<svg xmlns="http://www.w3.org/2000/svg" xmlns:xlink="http://www.w3.org/1999/xlink" width="116" height="101" viewBox="0 0 116 101">
    <defs>
        <path id="a" d="M.219.544h32.665v51.075H.219z"/>
    </defs>
    <g fill="none" fill-rule="evenodd">
        <path fill="#C21712" d="M56.936 84.71c.426.245.893.36 1.351.36.937 0 1.848-.483 2.35-1.345a2.682 2.682 0 0 0-.993-3.677L33.212 64.896V55.16l21.285 12.208a3.827 3.827 0 0 1 .003-1.94 3.876 3.876 0 0 1 1.828-2.368l.747-.43-23.87-13.689V18.636c0-.96-.516-1.85-1.354-2.33L4.065.36a2.723 2.723 0 0 0-2.71 0A2.687 2.687 0 0 0 0 2.691v31.882a2.7 2.7 0 0 0 2.71 2.691 2.7 2.7 0 0 0 2.709-2.691V7.354l8.487 4.87-.013 30.31a2.7 2.7 0 0 0 2.71 2.69 2.7 2.7 0 0 0 2.709-2.69l.011-27.2 8.464 4.856v30.32c0 .022.006.045.007.068v15.77c-.003.11-.01.217 0 .326V82.38c0 .963.517 1.852 1.355 2.332l27.787 15.928a2.71 2.71 0 0 0 1.351.361c.937 0 1.848-.483 2.35-1.346a2.682 2.682 0 0 0-.993-3.677L33.212 80.826V71.11l23.724 13.6z"/>
        <g transform="translate(83 49)">
            <mask id="b" fill="#fff">
                <use xlink:href="#a"/>
            </mask>
            <path fill="#C21712" d="M27.554 28.473L5.553 15.73V6.055L27.554 18.81v9.662zm3.998-13.522L6.702.544v.87c0 1.38-.739 2.666-1.928 3.356L.223 7.406v9.778c-.003.104-.008.208 0 .31v15.604a2.67 2.67 0 0 0 2.665 2.674 2.67 2.67 0 0 0 2.665-2.674V21.906L27.554 34.65v14.293a2.67 2.67 0 0 0 2.665 2.676 2.67 2.67 0 0 0 2.665-2.676V17.267c0-.955-.507-1.839-1.332-2.316z" mask="url(#b)"/>
        </g>
        <path fill="#670B05" d="M57.347 52.763c.833.479 1.86.479 2.692 0L83.616 39.21v9.685l-26.27 15.102a2.675 2.675 0 0 0-.985 3.663 2.694 2.694 0 0 0 3.678.981l27.615-15.877A2.677 2.677 0 0 0 89 50.442V34.565c0-.957-.513-1.843-1.346-2.321a2.701 2.701 0 0 0-2.692 0L61.385 45.797v-9.691l25.083-14.42C88.154 20.718 89 20.23 89 18.68 89 17.2 87.795 16 86.308 16a2.69 2.69 0 0 0-1.407.394c-.933.542-18.35 10.552-27.553 15.841A2.677 2.677 0 0 0 56 34.557v15.885c0 .958.513 1.843 1.346 2.321"/>
    </g>
</svg>
