<?xml version="1.0" encoding="utf-8"?>
<!-- Generator: Adobe Illustrator 25.0.1, SVG Export Plug-In . SVG Version: 6.00 Build 0)  -->
<svg version="1.1" id="Layer_1" xmlns="http://www.w3.org/2000/svg" xmlns:xlink="http://www.w3.org/1999/xlink" x="0px" y="0px"
	 viewBox="0 0 1909.5 1178.8" style="enable-background:new 0 0 1909.5 1178.8;" xml:space="preserve">
<style type="text/css">
	.st0{fill:#A9EADD;}
	.st1{fill:#FF3C00;}
	.st2{fill:#FFC21C;}
	.st3{fill:#FFFFFF;}
	.st4{fill:#1A6A96;}
	.st5{fill:#CD9FFF;}
</style>
<g>
	<path class="st0" d="M1883,628.3c-53.3-95-192.9-98-264.5-83.5v126.6c0,14.4-11.7,26-26,26h-334c-14.4,0-26-11.7-26-26V344.7
		c0-14.4,11.7-26,26-26h166.1c-0.2-1.2-0.4-2.4-0.4-3.6c0-14,11-25.4,24.6-25.4c0.8,0,1.5,0.2,2.3,0.2l2.7-4
		c-1.2-2.1-1.9-4.5-1.9-7.2c0-8,6.3-14.4,14-14.4c7.7,0,14,6.5,14,14.4c0,7.3-5.3,13.3-12,14.2l-1.2,4.6c4.2,4.5,6.8,10.7,6.8,17.5
		c0,1.2-0.2,2.4-0.4,3.6H1586c-8.5-60.5-32.3-120-90.4-160.1c-172.2-118.7-396.2,36.4-431.8,72C1028.2,266.2,918.9-25.5,666.6,1.8
		C506.7,19.2,408.6,164,413.3,300.6h219.1c4.4-4.3,10.3-7,16.8-7c0.8,0,1.5,0.2,2.3,0.2l-12.8,18.7c0,0,0,7.3,7.2,11.3
		c3.3,1.9,10.5,3.2,15.1-0.4l6-22c1,1,1.9,2.1,2.6,3.3c7.1,4.6,11.8,12.7,11.8,21.8v326.8c0,14.4-11.7,26-26,26h-334
		c-14.4,0-26-11.7-26-26V398.8C198.9,382.1,82,388.2,24,520.5c-115.8,264.2,225.4,516.2,225.4,516.2
		c276.1,201.3,1094.9,162,1425.5,46C1859.7,1017.9,1960.9,767.1,1883,628.3z M666.3,297.2c-7.7,0-14-6.5-14-14.4
		c0-8,6.3-14.4,14-14.4c7.7,0,14,6.5,14,14.4C680.3,290.7,674,297.2,666.3,297.2z M1190.4,687.8c6-4.8,15-3.6,19.9,2.6
		c5,6.2,4.1,15.2-2,20c-6,4.8-15,3.6-19.9-2.6C1183.5,701.6,1184.3,692.6,1190.4,687.8z M1017.1,250c7.7,0,14,6.5,14,14.4
		c0,8-6.3,14.4-14,14.4c-7.7,0-14-6.5-14-14.4C1003.1,256.4,1009.4,250,1017.1,250z M990.8,808.6L951.7,1133
		c-1.7,14.3-14.7,24.5-29,22.7l-331.6-40c-14.3-1.7-24.5-14.7-22.7-29l39.1-324.4c1.7-14.3,14.7-24.5,29-22.7l331.6,40
		C982.4,781.3,992.5,794.3,990.8,808.6z M1007.2,681.1H822.5c-18.3,0-33.2-14.9-33.2-33.2V329.7c0-18.3,14.9-33.2,33.2-33.2h153.4
		c1.9-12,12-21.2,24.2-21.2c0.8,0,1.5,0.2,2.3,0.2l-12.8,18.7c0,0,0,7.3,7.2,11.3c3.3,1.9,10.5,3.2,15.1-0.4l6-22
		c3.3,3.6,5.6,8.2,6.4,13.3h116.5c18.3,0,33.2,14.9,33.2,33.2v191.6c0,10.3-1.1,20.4-2.9,30.2h0.1c0,0-10,90.3-103.3,120.1
		c-16.8,6-34.8,9.4-53.6,9.4H1007.2z M1425.5,1094.5c0,14.4-11.7,26-26,26h-334c-14.4,0-26-11.7-26-26V767.8c0-14.4,11.7-26,26-26
		h118.7c-1.5-8.7,1.4-17.7,8.6-23.5c0.6-0.5,1.3-0.8,1.9-1.2l1.6,22.6c0,0,4.5,5.7,12.7,4.4c3.7-0.6,10.2-4,11.6-9.7l-9-20.9
		c6.1,0.9,12,4.1,16.2,9.4c4.4,5.6,6.2,12.4,5.4,18.9h166.2c14.4,0,26,11.7,26,26V1094.5z"/>
</g>
<g>
	<path class="st0" d="M1702,515.9c36.1,0,65.4-29.3,65.4-65.4s-29.3-65.4-65.4-65.4c-36.1,0-65.4,29.3-65.4,65.4
		S1665.8,515.9,1702,515.9z"/>
</g>
<g>
	<path class="st0" d="M182.5,247.3c24.8,0,45-20.1,45-45c0-24.8-20.1-45-45-45s-45,20.1-45,45C137.5,227.1,157.7,247.3,182.5,247.3z
		"/>
</g>
<g>
	<path class="st0" d="M292.8,319c0-6.8,2.6-12.9,6.8-17.5l-1.2-4.6c-6.8-1-12-7-12-14.2c0-8,6.3-14.4,14-14.4c7.7,0,14,6.5,14,14.4
		c0,2.6-0.7,5-1.9,7.2l2.7,4c0.8-0.1,1.5-0.2,2.3-0.2c6.5,0,12.4,2.7,16.8,7h37.7c22.1-57.7,17.3-137.4-36.4-166.3
		C252,89.4,314.4,240,259.5,252c-54.9,12.1-149.7-10.4-144.7,42c4.6,47.9,109.3,81.4,180.6,73.3v-37.1
		C293.8,326.8,292.8,323.1,292.8,319z"/>
</g>
<g>
	<path class="st1" d="M1007.2,681.1h6.8c18.8,0,36.9-3.4,53.6-9.4C1050.5,677.1,1030.5,680.6,1007.2,681.1z"/>
</g>
<g>
	<path class="st1" d="M1082.2,551.5h88.7c1.9-9.8,2.9-19.9,2.9-30.2V329.7c0-18.3-14.9-33.2-33.2-33.2h-116.5
		c0.2,1.4,0.4,2.7,0.4,4.2c0,14-11,25.4-24.6,25.4c-3.7,0-7.1-0.9-10.3-2.4l-6.4,13.5c-0.3,0.6-1,1-1.6,1c-0.3,0-0.5-0.1-0.8-0.2
		c-0.9-0.4-1.3-1.5-0.8-2.4l6.5-13.7c-6.7-4.5-11.2-12.3-11.2-21.2c0-1.4,0.2-2.8,0.4-4.2H822.5c-18.3,0-33.2,14.9-33.2,33.2v318.2
		c0,18.3,14.9,33.2,33.2,33.2h184.7c0,0,27.3-28.3,37.5-46.4C1070.2,589.3,1082.2,551.5,1082.2,551.5z M896.7,370.8h223.4
		c1,0,1.8,0.8,1.8,1.8c0,1-0.8,1.8-1.8,1.8H896.7c-1,0-1.8-0.8-1.8-1.8C894.9,371.6,895.7,370.8,896.7,370.8z M891.6,423.4H1115
		c1,0,1.8,0.8,1.8,1.8c0,1-0.8,1.8-1.8,1.8H891.6c-1,0-1.8-0.8-1.8-1.8C889.8,424.2,890.6,423.4,891.6,423.4z M891.6,487H1115
		c1,0,1.8,0.8,1.8,1.8c0,1-0.8,1.8-1.8,1.8H891.6c-1,0-1.8-0.8-1.8-1.8C889.8,487.8,890.6,487,891.6,487z M891.2,549.7h176.7
		c1,0,1.8,0.8,1.8,1.8c0,1-0.8,1.8-1.8,1.8H891.2c-1,0-1.8-0.8-1.8-1.8C889.4,550.5,890.2,549.7,891.2,549.7z M830.2,348.3
		c0-8,6.5-14.4,14.4-14.4c8,0,14.4,6.5,14.4,14.4v116c0,8-6.4,14.4-14.4,14.4c-8,0-14.4-6.5-14.4-14.4V348.3z M844.7,527.1
		c-10.1,0-18.4-8.2-18.4-18.4c0-10.1,8.2-18.4,18.4-18.4c10.1,0,18.4,8.2,18.4,18.4C863,518.9,854.8,527.1,844.7,527.1z
		 M1031.1,618.1H891.2c-1,0-1.8-0.8-1.8-1.8c0-1,0.8-1.8,1.8-1.8h139.8c1,0,1.8,0.8,1.8,1.8C1032.9,617.3,1032.1,618.1,1031.1,618.1
		z"/>
</g>
<g>
	<path class="st2" d="M1171,551.5L1171,551.5h-88.7c0,0-12,37.8-37.5,83.2c-10.2,18-37.5,46.4-37.5,46.4c23.3-0.5,43.3-3.9,60.5-9.4
		C1160.9,641.8,1171,551.5,1171,551.5z"/>
</g>
<g>
	<path class="st3" d="M896.7,374.4h223.4c1,0,1.8-0.8,1.8-1.8c0-1-0.8-1.8-1.8-1.8H896.7c-1,0-1.8,0.8-1.8,1.8
		C894.9,373.6,895.7,374.4,896.7,374.4z"/>
</g>
<g>
	<path class="st3" d="M891.6,427H1115c1,0,1.8-0.8,1.8-1.8c0-1-0.8-1.8-1.8-1.8H891.6c-1,0-1.8,0.8-1.8,1.8
		C889.8,426.2,890.6,427,891.6,427z"/>
</g>
<g>
	<path class="st3" d="M891.6,490.6H1115c1,0,1.8-0.8,1.8-1.8c0-1-0.8-1.8-1.8-1.8H891.6c-1,0-1.8,0.8-1.8,1.8
		C889.8,489.8,890.6,490.6,891.6,490.6z"/>
</g>
<g>
	<path class="st3" d="M891.2,553.3h176.7c1,0,1.8-0.8,1.8-1.8c0-1-0.8-1.8-1.8-1.8H891.2c-1,0-1.8,0.8-1.8,1.8
		C889.4,552.5,890.2,553.3,891.2,553.3z"/>
</g>
<g>
	<path class="st3" d="M1031.1,614.5H891.2c-1,0-1.8,0.8-1.8,1.8c0,1,0.8,1.8,1.8,1.8h139.8c1,0,1.8-0.8,1.8-1.8
		C1032.9,615.3,1032.1,614.5,1031.1,614.5z"/>
</g>
<g>
	<path class="st3" d="M844.7,478.7c8,0,14.4-6.5,14.4-14.4v-116c0-8-6.4-14.4-14.4-14.4c-8,0-14.4,6.5-14.4,14.4v116
		C830.2,472.3,836.7,478.7,844.7,478.7z"/>
</g>
<g>
	<path class="st3" d="M844.7,490.4c-10.1,0-18.4,8.2-18.4,18.4c0,10.1,8.2,18.4,18.4,18.4c10.1,0,18.4-8.2,18.4-18.4
		C863,498.6,854.8,490.4,844.7,490.4z"/>
</g>
<g>
	<path class="st3" d="M1448.8,340.3c-3.7,0-7.1-0.9-10.3-2.4l-6.5,13.5c-0.3,0.6-0.9,1-1.6,1c-0.3,0-0.5-0.1-0.8-0.2
		c-0.9-0.4-1.3-1.5-0.8-2.4l6.5-13.7c-5.8-3.9-9.8-10.2-10.8-17.6h-166.1c-14.4,0-26,11.7-26,26v326.8c0,14.4,11.7,26,26,26h334
		c14.4,0,26-11.7,26-26V544.8V344.7c0-14.4-11.7-26-26-26h-6.5H1473C1471.3,330.9,1461.2,340.3,1448.8,340.3z M1560.4,583.3h-272.2
		c-1,0-1.8-0.8-1.8-1.8c0-1,0.8-1.8,1.8-1.8h272.2c1,0,1.8,0.8,1.8,1.8C1562.2,582.5,1561.4,583.3,1560.4,583.3z M1560.4,537h-272.2
		c-1,0-1.8-0.8-1.8-1.8c0-1,0.8-1.8,1.8-1.8h272.2c1,0,1.8,0.8,1.8,1.8C1562.2,536.2,1561.4,537,1560.4,537z M1560.4,490.6h-272.2
		c-1,0-1.8-0.8-1.8-1.8c0-1,0.8-1.8,1.8-1.8h272.2c1,0,1.8,0.8,1.8,1.8C1562.2,489.8,1561.4,490.6,1560.4,490.6z M1560.4,444.2
		h-272.2c-1,0-1.8-0.8-1.8-1.8c0-1,0.8-1.8,1.8-1.8h272.2c1,0,1.8,0.8,1.8,1.8C1562.2,443.4,1561.4,444.2,1560.4,444.2z M1562.2,396
		c0,1-0.8,1.8-1.8,1.8h-272.2c-1,0-1.8-0.8-1.8-1.8c0-1,0.8-1.8,1.8-1.8h272.2C1561.4,394.2,1562.2,395.1,1562.2,396z"/>
</g>
<g>
	<path class="st4" d="M1288.1,394.2c-1,0-1.8,0.8-1.8,1.8c0,1,0.8,1.8,1.8,1.8h272.2c1,0,1.8-0.8,1.8-1.8c0-1-0.8-1.8-1.8-1.8
		H1288.1z"/>
</g>
<g>
	<path class="st4" d="M1560.4,440.6h-272.2c-1,0-1.8,0.8-1.8,1.8c0,1,0.8,1.8,1.8,1.8h272.2c1,0,1.8-0.8,1.8-1.8
		C1562.2,441.4,1561.4,440.6,1560.4,440.6z"/>
</g>
<g>
	<path class="st4" d="M1560.4,487h-272.2c-1,0-1.8,0.8-1.8,1.8c0,1,0.8,1.8,1.8,1.8h272.2c1,0,1.8-0.8,1.8-1.8
		C1562.2,487.8,1561.4,487,1560.4,487z"/>
</g>
<g>
	<path class="st4" d="M1560.4,533.4h-272.2c-1,0-1.8,0.8-1.8,1.8c0,1,0.8,1.8,1.8,1.8h272.2c1,0,1.8-0.8,1.8-1.8
		C1562.2,534.2,1561.4,533.4,1560.4,533.4z"/>
</g>
<g>
	<path class="st4" d="M1560.4,579.7h-272.2c-1,0-1.8,0.8-1.8,1.8c0,1,0.8,1.8,1.8,1.8h272.2c1,0,1.8-0.8,1.8-1.8
		C1562.2,580.5,1561.4,579.7,1560.4,579.7z"/>
</g>
<g>
	<path class="st2" d="M968.1,779.6l-331.6-40c-14.3-1.7-27.2,8.5-29,22.7l-39.1,324.4c-1.7,14.3,8.5,27.2,22.7,29l331.6,40
		c14.3,1.7,27.2-8.5,29-22.7l39.1-324.4C992.5,794.3,982.4,781.3,968.1,779.6z M904.7,1038.6l-0.2,0l-270.3-32.6c-1-0.1-1.7-1-1.6-2
		c0.1-1,0.9-1.7,2-1.6l270.3,32.6c1,0.1,1.7,1,1.6,2C906.4,1037.9,905.6,1038.6,904.7,1038.6z M910.2,992.5l-0.2,0l-270.3-32.6
		c-1-0.1-1.7-1-1.6-2c0.1-1,1-1.6,2-1.6l270.3,32.6c1,0.1,1.7,1,1.6,2C911.9,991.9,911.1,992.5,910.2,992.5z M915.8,946.5l-0.2,0
		l-270.3-32.6c-1-0.1-1.7-1-1.6-2c0.1-1,1-1.7,2-1.6L916,942.9c1,0.1,1.7,1,1.6,2C917.5,945.8,916.7,946.5,915.8,946.5z
		 M921.4,900.5l-0.2,0l-270.3-32.6c-1-0.1-1.7-1-1.6-2c0.1-1,0.9-1.7,2-1.6l270.3,32.6c1,0.1,1.7,1,1.6,2
		C923,899.8,922.3,900.5,921.4,900.5z M926.9,854.4l-0.2,0l-270.3-32.6c-1-0.1-1.7-1-1.6-2c0.1-1,0.9-1.7,2-1.6l270.3,32.6
		c1,0.1,1.7,1,1.6,2C928.6,853.8,927.8,854.4,926.9,854.4z"/>
</g>
<g>
	<path class="st4" d="M927.1,850.8l-270.3-32.6c-1.1-0.1-1.9,0.6-2,1.6c-0.1,1,0.6,1.9,1.6,2l270.3,32.6l0.2,0
		c0.9,0,1.7-0.7,1.8-1.6C928.8,851.8,928.1,851,927.1,850.8z"/>
</g>
<g>
	<path class="st4" d="M921.6,896.9l-270.3-32.6c-1.1-0.1-1.9,0.6-2,1.6c-0.1,1,0.6,1.9,1.6,2l270.3,32.6l0.2,0
		c0.9,0,1.7-0.7,1.8-1.6C923.3,897.9,922.6,897,921.6,896.9z"/>
</g>
<g>
	<path class="st4" d="M916,942.9l-270.3-32.6c-1-0.1-1.9,0.6-2,1.6c-0.1,1,0.6,1.9,1.6,2l270.3,32.6l0.2,0c0.9,0,1.7-0.7,1.8-1.6
		C917.7,943.9,917,943,916,942.9z"/>
</g>
<g>
	<path class="st4" d="M910.5,988.9l-270.3-32.6c-1-0.1-1.9,0.6-2,1.6c-0.1,1,0.6,1.9,1.6,2L910,992.5l0.2,0c0.9,0,1.7-0.7,1.8-1.6
		C912.2,990,911.5,989.1,910.5,988.9z"/>
</g>
<g>
	<path class="st4" d="M904.9,1035l-270.3-32.6c-1.1-0.1-1.9,0.6-2,1.6c-0.1,1,0.6,1.9,1.6,2l270.3,32.6l0.2,0c0.9,0,1.7-0.7,1.8-1.6
		C906.6,1036,905.9,1035.1,904.9,1035z"/>
</g>
<g>
	<path class="st5" d="M1399.5,741.8h-166.2c-0.7,6.2-3.7,12.1-8.9,16.2c-2.9,2.3-6.1,3.7-9.5,4.5l3.3,14.6c0.2,1-0.4,1.9-1.4,2.2
		c-0.1,0-0.3,0-0.4,0c-0.8,0-1.6-0.6-1.8-1.4l-3.4-14.8c-8.1,0.6-16.4-2.7-21.9-9.7c-2.8-3.5-4.4-7.6-5.2-11.7h-118.7
		c-14.4,0-26,11.7-26,26v326.8c0,14.4,11.7,26,26,26h334c14.4,0,26-11.7,26-26V767.8C1425.5,753.4,1413.9,741.8,1399.5,741.8z
		 M1367.4,1006.5h-272.2c-1,0-1.8-0.8-1.8-1.8c0-1,0.8-1.8,1.8-1.8h272.2c1,0,1.8,0.8,1.8,1.8
		C1369.2,1005.7,1368.4,1006.5,1367.4,1006.5z M1367.4,960.1h-272.2c-1,0-1.8-0.8-1.8-1.8c0-1,0.8-1.8,1.8-1.8h272.2
		c1,0,1.8,0.8,1.8,1.8C1369.2,959.3,1368.4,960.1,1367.4,960.1z M1367.4,913.7h-272.2c-1,0-1.8-0.8-1.8-1.8c0-1,0.8-1.8,1.8-1.8
		h272.2c1,0,1.8,0.8,1.8,1.8C1369.2,912.9,1368.4,913.7,1367.4,913.7z M1367.4,867.4h-272.2c-1,0-1.8-0.8-1.8-1.8
		c0-1,0.8-1.8,1.8-1.8h272.2c1,0,1.8,0.8,1.8,1.8C1369.2,866.5,1368.4,867.4,1367.4,867.4z M1367.4,821h-272.2c-1,0-1.8-0.8-1.8-1.8
		c0-1,0.8-1.8,1.8-1.8h272.2c1,0,1.8,0.8,1.8,1.8C1369.2,820.2,1368.4,821,1367.4,821z"/>
</g>
<g>
	<path class="st3" d="M1367.4,817.4h-272.2c-1,0-1.8,0.8-1.8,1.8c0,1,0.8,1.8,1.8,1.8h272.2c1,0,1.8-0.8,1.8-1.8
		C1369.2,818.2,1368.4,817.4,1367.4,817.4z"/>
</g>
<g>
	<path class="st3" d="M1367.4,863.8h-272.2c-1,0-1.8,0.8-1.8,1.8c0,1,0.8,1.8,1.8,1.8h272.2c1,0,1.8-0.8,1.8-1.8
		C1369.2,864.6,1368.4,863.8,1367.4,863.8z"/>
</g>
<g>
	<path class="st3" d="M1367.4,910.1h-272.2c-1,0-1.8,0.8-1.8,1.8c0,1,0.8,1.8,1.8,1.8h272.2c1,0,1.8-0.8,1.8-1.8
		C1369.2,910.9,1368.4,910.1,1367.4,910.1z"/>
</g>
<g>
	<path class="st3" d="M1367.4,956.5h-272.2c-1,0-1.8,0.8-1.8,1.8c0,1,0.8,1.8,1.8,1.8h272.2c1,0,1.8-0.8,1.8-1.8
		C1369.2,957.3,1368.4,956.5,1367.4,956.5z"/>
</g>
<g>
	<path class="st3" d="M1367.4,1002.9h-272.2c-1,0-1.8,0.8-1.8,1.8c0,1,0.8,1.8,1.8,1.8h272.2c1,0,1.8-0.8,1.8-1.8
		C1369.2,1003.7,1368.4,1002.9,1367.4,1002.9z"/>
</g>
<g>
	<path class="st3" d="M321.5,679.4h334c14.4,0,26-11.7,26-26V326.7c0-9.1-4.7-17.1-11.8-21.8c2.6,4,4.2,8.9,4.2,14.1
		c0,14-11,25.4-24.6,25.4c-13.6,0-24.6-11.4-24.6-25.4c0-7.3,3-13.8,7.7-18.4H413.3h-41.5h-37.7c4.7,4.6,7.7,11.1,7.7,18.4
		c0,14-11,25.4-24.6,25.4c-9.6,0-17.9-5.8-21.9-14.1v37.1v31.5v254.6C295.4,667.8,307.1,679.4,321.5,679.4z M623.3,565.3H351.1
		c-1,0-1.8-0.8-1.8-1.8s0.8-1.8,1.8-1.8h272.2c1,0,1.8,0.8,1.8,1.8S624.3,565.3,623.3,565.3z M623.3,519H351.1c-1,0-1.8-0.8-1.8-1.8
		s0.8-1.8,1.8-1.8h272.2c1,0,1.8,0.8,1.8,1.8S624.3,519,623.3,519z M623.3,472.6H351.1c-1,0-1.8-0.8-1.8-1.8c0-1,0.8-1.8,1.8-1.8
		h272.2c1,0,1.8,0.8,1.8,1.8C625.1,471.8,624.3,472.6,623.3,472.6z M623.3,426.2H351.1c-1,0-1.8-0.8-1.8-1.8c0-1,0.8-1.8,1.8-1.8
		h272.2c1,0,1.8,0.8,1.8,1.8C625.1,425.4,624.3,426.2,623.3,426.2z M623.3,376.2c1,0,1.8,0.8,1.8,1.8c0,1-0.8,1.8-1.8,1.8H351.1
		c-1,0-1.8-0.8-1.8-1.8c0-1,0.8-1.8,1.8-1.8H623.3z"/>
</g>
<g>
	<path class="st4" d="M349.3,378c0,1,0.8,1.8,1.8,1.8h272.2c1,0,1.8-0.8,1.8-1.8c0-1-0.8-1.8-1.8-1.8H351.1
		C350.1,376.2,349.3,377.1,349.3,378z"/>
</g>
<g>
	<path class="st4" d="M623.3,422.6H351.1c-1,0-1.8,0.8-1.8,1.8c0,1,0.8,1.8,1.8,1.8h272.2c1,0,1.8-0.8,1.8-1.8
		C625.1,423.4,624.3,422.6,623.3,422.6z"/>
</g>
<g>
	<path class="st4" d="M623.3,469H351.1c-1,0-1.8,0.8-1.8,1.8c0,1,0.8,1.8,1.8,1.8h272.2c1,0,1.8-0.8,1.8-1.8
		C625.1,469.8,624.3,469,623.3,469z"/>
</g>
<g>
	<path class="st4" d="M623.3,515.4H351.1c-1,0-1.8,0.8-1.8,1.8s0.8,1.8,1.8,1.8h272.2c1,0,1.8-0.8,1.8-1.8S624.3,515.4,623.3,515.4z
		"/>
</g>
<g>
	<path class="st4" d="M623.3,561.7H351.1c-1,0-1.8,0.8-1.8,1.8s0.8,1.8,1.8,1.8h272.2c1,0,1.8-0.8,1.8-1.8S624.3,561.7,623.3,561.7z
		"/>
</g>
<g>
	<path class="st2" d="M315.1,293.9l12.8,18.7c0,0,0,7.3-7.2,11.3c-3.3,1.9-10.5,3.2-15.1-0.4l-6-22c-4.2,4.5-6.8,10.7-6.8,17.5
		c0,4.1,1,7.8,2.7,11.2c4,8.3,12.3,14.1,21.9,14.1c13.6,0,24.6-11.4,24.6-25.4c0-7.3-3-13.8-7.7-18.4c-4.4-4.3-10.3-7-16.8-7
		C316.6,293.7,315.8,293.8,315.1,293.9z"/>
</g>
<g>
	<path class="st1" d="M305.6,323.5c4.6,3.6,11.8,2.3,15.1,0.4c7.2-4,7.2-11.3,7.2-11.3l-12.8-18.7l-2.7-4c-2.4,4.3-6.9,7.3-12.1,7.3
		c-0.7,0-1.3-0.1-1.9-0.2l1.2,4.6L305.6,323.5z"/>
</g>
<g>
	<path class="st2" d="M312.4,289.9c1.2-2.1,1.9-4.5,1.9-7.2c0-8-6.3-14.4-14-14.4c-7.7,0-14,6.5-14,14.4c0,7.3,5.2,13.3,12,14.2
		c0.6,0.1,1.3,0.2,1.9,0.2C305.5,297.2,309.9,294.2,312.4,289.9z"/>
</g>
<g>
	<path class="st4" d="M624.7,319c0,14,11,25.4,24.6,25.4c13.6,0,24.6-11.4,24.6-25.4c0-5.2-1.5-10.1-4.2-14.1
		c-0.8-1.2-1.7-2.3-2.6-3.3l-6,22c-4.6,3.6-11.8,2.3-15.1,0.4c-7.2-4-7.2-11.3-7.2-11.3l12.8-18.7c-0.8-0.1-1.5-0.2-2.3-0.2
		c-6.5,0-12.4,2.7-16.8,7C627.7,305.2,624.7,311.7,624.7,319z"/>
</g>
<g>
	<path class="st4" d="M666.3,268.3c-7.7,0-14,6.5-14,14.4c0,8,6.3,14.4,14,14.4c7.7,0,14-6.5,14-14.4
		C680.3,274.8,674,268.3,666.3,268.3z"/>
</g>
<g>
	<path class="st4" d="M1428.9,349.9c-0.4,0.9-0.1,2,0.8,2.4c0.3,0.1,0.5,0.2,0.8,0.2c0.7,0,1.3-0.4,1.6-1l6.5-13.5
		c-1.1-0.5-2.1-1.1-3.1-1.8L1428.9,349.9z"/>
</g>
<g>
	<path class="st2" d="M1435.4,336.2c1,0.7,2.1,1.2,3.1,1.8c3.1,1.5,6.6,2.4,10.3,2.4c12.4,0,22.5-9.5,24.2-21.7
		c0.2-1.2,0.4-2.4,0.4-3.6c0-6.8-2.6-12.9-6.8-17.5l-6,22c-4.6,3.6-11.8,2.3-15.1,0.4c-7.2-4-7.2-11.3-7.2-11.3l12.8-18.7
		c-0.8-0.1-1.5-0.2-2.3-0.2c-13.6,0-24.6,11.4-24.6,25.4c0,1.2,0.2,2.4,0.4,3.6C1425.6,326,1429.6,332.3,1435.4,336.2z"/>
</g>
<g>
	<path class="st1" d="M1445.5,319.9c3.3,1.9,10.5,3.2,15.1-0.4l6-22l1.2-4.6c-0.6,0.1-1.3,0.2-1.9,0.2c-5.2,0-9.7-2.9-12.1-7.3
		l-2.7,4l-12.8,18.7C1438.3,308.6,1438.3,315.9,1445.5,319.9z"/>
</g>
<g>
	<path class="st2" d="M1465.9,293.1c0.7,0,1.3-0.1,1.9-0.2c6.8-1,12-7,12-14.2c0-8-6.3-14.4-14-14.4c-7.7,0-14,6.5-14,14.4
		c0,2.6,0.7,5,1.9,7.2C1456.2,290.2,1460.7,293.1,1465.9,293.1z"/>
</g>
<g>
	<path class="st4" d="M980.1,335.6c-0.4,0.9,0,2,0.8,2.4c0.3,0.1,0.5,0.2,0.8,0.2c0.7,0,1.3-0.4,1.6-1l6.4-13.5
		c-1.1-0.5-2.2-1.1-3.2-1.8L980.1,335.6z"/>
</g>
<g>
	<path class="st4" d="M986.6,321.9c1,0.7,2.1,1.2,3.2,1.8c3.1,1.5,6.6,2.4,10.3,2.4c13.6,0,24.6-11.4,24.6-25.4
		c0-1.4-0.2-2.8-0.4-4.2c-0.8-5.1-3.1-9.7-6.4-13.3l-6,22c-4.6,3.6-11.8,2.3-15.1,0.4c-7.2-4-7.2-11.3-7.2-11.3l12.8-18.7
		c-0.8-0.1-1.5-0.2-2.3-0.2c-12.2,0-22.2,9.2-24.2,21.2c-0.2,1.4-0.4,2.7-0.4,4.2C975.5,309.6,979.9,317.4,986.6,321.9z"/>
</g>
<g>
	<path class="st4" d="M1017.1,278.8c7.7,0,14-6.5,14-14.4c0-8-6.3-14.4-14-14.4c-7.7,0-14,6.5-14,14.4
		C1003.1,272.4,1009.4,278.8,1017.1,278.8z"/>
</g>
<g>
	<path class="st4" d="M1214.7,777.9c0.2,0.8,0.9,1.4,1.8,1.4c0.1,0,0.3,0,0.4,0c1-0.2,1.6-1.2,1.4-2.2l-3.3-14.6
		c-1.2,0.3-2.4,0.5-3.6,0.6L1214.7,777.9z"/>
</g>
<g>
	<path class="st4" d="M1211.3,763.1c1.2-0.1,2.4-0.3,3.6-0.6c3.4-0.8,6.6-2.2,9.5-4.5c5.2-4.1,8.2-10,8.9-16.2
		c0.7-6.5-1-13.3-5.4-18.9c-4.2-5.3-10.1-8.5-16.2-9.4l9,20.9c-1.3,5.7-7.9,9.2-11.6,9.7c-8.1,1.3-12.7-4.4-12.7-4.4l-1.6-22.6
		c-0.6,0.4-1.3,0.7-1.9,1.2c-7.2,5.7-10.1,14.8-8.6,23.5c0.7,4.1,2.3,8.1,5.2,11.7C1194.9,760.4,1203.2,763.7,1211.3,763.1z"/>
</g>
<g>
	<path class="st4" d="M1208.4,710.4c6-4.8,6.9-13.8,2-20c-5-6.2-13.9-7.4-19.9-2.6c-6,4.8-6.9,13.8-2,20
		C1193.4,714.1,1202.3,715.2,1208.4,710.4z"/>
</g>
</svg>
