<?xml version="1.0" encoding="utf-8"?>
<!-- Generator: Adobe Illustrator 25.0.0, SVG Export Plug-In . SVG Version: 6.00 Build 0)  -->
<!DOCTYPE svg PUBLIC "-//W3C//DTD SVG 1.1//EN" "http://www.w3.org/Graphics/SVG/1.1/DTD/svg11.dtd" [
	<!ENTITY ns_extend "http://ns.adobe.com/Extensibility/1.0/">
	<!ENTITY ns_ai "http://ns.adobe.com/AdobeIllustrator/10.0/">
	<!ENTITY ns_graphs "http://ns.adobe.com/Graphs/1.0/">
	<!ENTITY ns_vars "http://ns.adobe.com/Variables/1.0/">
	<!ENTITY ns_imrep "http://ns.adobe.com/ImageReplacement/1.0/">
	<!ENTITY ns_sfw "http://ns.adobe.com/SaveForWeb/1.0/">
	<!ENTITY ns_custom "http://ns.adobe.com/GenericCustomNamespace/1.0/">
	<!ENTITY ns_adobe_xpath "http://ns.adobe.com/XPath/1.0/">
]>
<svg version="1.1" id="_x3C_Layer_x3E_" xmlns:x="&ns_extend;" xmlns:i="&ns_ai;" xmlns:graph="&ns_graphs;"
	 xmlns="http://www.w3.org/2000/svg" xmlns:xlink="http://www.w3.org/1999/xlink" x="0px" y="0px" viewBox="0 0 2523.8 1348.7"
	 style="enable-background:new 0 0 2523.8 1348.7;" xml:space="preserve">
<style type="text/css">
	.st0{fill:#FBECDB;}
	.st1{fill:#A8D29F;}
	.st2{fill:#4A75CB;}
	.st3{fill:#699DEE;}
	.st4{fill:#D86713;}
	.st5{fill:#F1A34F;}
	.st6{fill:#C95C12;}
	.st7{fill:#82B378;}
	.st8{fill:#FFB973;}
	.st9{fill:#ED975D;}
	.st10{fill:#2B478B;}
	.st11{fill:#233862;}
	.st12{fill:#1E3D70;}
	.st13{fill:#FFB27D;}
	.st14{fill:#2C3A64;}
	.st15{fill:#4A82D3;}
	.st16{fill:#A9453D;}
	.st17{fill:#EE9849;}
	.st18{fill:#E58638;}
	.st19{fill:#2A4E96;}
	.st20{fill:#35488B;}
	.st21{fill:#8296D8;}
	.st22{fill:#4271BC;}
</style>
<metadata>
	<sfw  xmlns="&ns_sfw;">
		<slices></slices>
		<sliceSourceBounds  bottomLeftOrigin="true" height="1348.7" width="2523.8" x="500.6" y="-1682.5"></sliceSourceBounds>
	</sfw>
</metadata>
<path class="st0" d="M89.5,1348.6c0,0-282.7-602,274.5-602c294.4,0,173.1-165.2,373.2-356.3c200.1-191.1,900.1-343.9,1049,25.2
	c149,369.1-219.2,649.4,136.6,601.3c427.5-57.8,596.4,331.8,596.4,331.8H89.5z"/>
<path class="st1" d="M2379,1272.2c-26.4-19.3-80.3-6.3-120.1,7.7c-5.9-8.4-13.2-17-21.9-25.4c85.7-55.2,204.1-173,141.3-182.9
	c-54.5-8.7-128.1,97.3-167.5,161.8c-40.8-27.5-103.4-47.7-199-40.7c-248,18.2-441.8-141.8-584.6-88.4
	c-113.6,42.4-217.6,66.2-318,58.1c4.3-73.3,5.3-217.3-52.3-232.2c-58.4-15.2-1.1,148.3,30.7,229.9c-7.5-1-14.9-2.1-22.4-3.4
	c-20.6-40.7-54.6-93.9-92-95.7c-35.2-1.7,8.2,46.2,50.9,86.7c-122.7-25.8-268.3,74-270.7,192h1532.3c0,0-2.7-17.2-14.7-39.9
	C2330.4,1298.5,2407.7,1293.2,2379,1272.2z"/>
<rect x="684.1" y="1248.4" class="st2" width="403.8" height="91.2"/>
<rect x="559.5" y="1248.4" class="st3" width="403.8" height="91.2"/>
<rect x="1246.8" y="919.3" transform="matrix(-1 -1.224647e-16 1.224647e-16 -1 2794.2468 2258.9053)" class="st4" width="300.7" height="420.3"/>
<rect x="1154.1" y="919.3" transform="matrix(-1 -1.224647e-16 1.224647e-16 -1 2608.8081 2258.9053)" class="st5" width="300.7" height="420.3"/>
<polygon class="st6" points="1454.8,919.3 1547.5,982.4 1547.5,919.3 "/>
<path class="st7" d="M526.5,1012.4c0,0-56.2,41.8-67.2,39.3c-11-2.5,41.1-45.1,41.1-45.1c-19.6-9.4-80.5-3.5-80.5-3.5
	s-20.3,65.4-30.3,60.3c-10-5.2,20.9-57,20.9-57c-21.8-1.3-48.6,14.9-48.6,14.9c-36.6,28.9,2.4,74.5,2.4,74.5s-7.5,22.5-30.7,43
	c0,0-33,24.4-35.3,68.1l6,0.5c0,0,9.5-40.7,26.8-59.9c0.7-0.7,1.6-1.7,2.9-2.9c2.8-2.6,4.8-4.6,6.1-6c8.6-8.3,20.5-18.8,26.2-19.8
	c0,0-0.3-1.1-0.2-2.9c0.1,0.9,0.2,1.9,0.2,2.9c2,23,46.6,43.1,74.1,47.3c27.5,4.1,19-7.2,9.5-23.9c-9.5-16.7-39.4-24.2-46.3-32
	c-6.8-7.7,7.3-7.7,23.9-0.2c16.6,7.6,18.8,27.7,45.4,40.4c26.6,12.7,66.5-31.4,66.5-31.4c-21.2-1.1-51.4-24.1-50.3-31.1
	c1.1-7,51.3,12.1,59.9,13.1c8.6,0.9,28.1-9.8,31.1-44.3C583.2,1022,526.5,1012.4,526.5,1012.4z"/>
<path class="st1" d="M227.8,1038.4c0,0,62.1-34.8,33.1-82c0,0-23.2-29-48-36.4c0,0,13.2,70.4,0,72.1c-13.3,1.7-9.1-79.5-9.1-79.5
	s-65.4-31.5-91.1-29c0,0,40.6,68.7,27.3,67.1c-13.3-1.7-58.8-71.2-58.8-71.2s-67.1-12.4-77.8,27.3C-7.4,946.4,10,966.3,20,968.8
	c9.9,2.5,73.7,1.7,72.1,9.9c-1.7,8.3-44.7,21.5-68.7,14.1c0,0,26.5,65.4,61.3,62.1c34.8-3.3,45.5-24.8,67.1-26.5s37.3,4.1,26.5,9.9
	c-10.8,5.8-47.2,1.9-64.6,16.7c-17.4,14.8-31.5,23.9,0.8,30.5c32.3,6.6,90.3,2.5,101.9-22.4C227.8,1038.4,227.8,1038.4,227.8,1038.4
	z"/>
<path class="st7" d="M244.4,1098.8c-17.4-32.3-16.6-60.5-16.6-60.5C208,975.4,34,919.1,34,919.1c221.1,89.4,182.2,144.1,182.2,144.1
	c6,3.5,14.9,20.1,21.1,32.8c0.9,2.2,2.3,5.2,4.4,9.2l0,0c0.8,1.8,1.5,3.3,2,4.4c11.4,28.5,5.4,77.7,5.4,77.7l6.9,1.9
	C271.2,1139.5,244.4,1098.8,244.4,1098.8z"/>
<path class="st1" d="M326.6,990.4c0,0-81.9-45.9-43.7-108.1c0,0,30.6-38.2,63.3-48c0,0-17.5,92.8,0,95c17.5,2.2,12-104.8,12-104.8
	s86.2-41.5,120.1-38.2c0,0-53.5,90.6-36,88.4c17.5-2.2,77.5-93.9,77.5-93.9s88.4-16.4,102.6,36c14.2,52.4-8.7,78.6-21.8,81.9
	c-13.1,3.3-97.2,2.2-95,13.1c2.2,10.9,59,28.4,90.6,18.6c0,0-34.9,86.2-80.8,81.9c-45.9-4.4-60-32.8-88.4-34.9
	c-28.4-2.2-49.1,5.5-34.9,13.1c14.2,7.6,62.2,2.5,85.2,22c22.9,19.5,41.5,31.5-1.1,40.2c-42.6,8.7-119,3.3-134.3-29.5
	C326.6,990.4,326.6,990.4,326.6,990.4z"/>
<path class="st7" d="M582.1,833.2c0,0-229.3,74.2-255.5,157.2c0,0,1.1,37.1-21.8,79.7c0,0-35.4,53.7-15.2,119l9.1-2.4
	c0,0-8-64.8,7.1-102.4c0.6-1.4,1.5-3.4,2.6-5.8c0,0,0,0,0,0c2.7-5.4,4.6-9.3,5.7-12.2c8.2-16.8,20-38.6,27.8-43.2
	C341.9,1023.1,290.6,951.1,582.1,833.2z"/>
<path class="st5" d="M323.9,1330.8c88.6,0,160.4-71.8,160.4-160.4H163.5C163.5,1259,235.3,1330.8,323.9,1330.8z"/>
<path class="st8" d="M363.4,1329.6c-6.5,0.8-13.2,1.2-19.9,1.2c-88.6,0-160.4-71.8-160.4-160.4h39.8
	C222.9,1252.3,284.2,1319.8,363.4,1329.6z"/>
<path class="st5" d="M466.7,1319.8H181.1c-10.9,0-19.8,8.9-19.8,19.8h325.2C486.5,1328.7,477.6,1319.8,466.7,1319.8z"/>
<path class="st4" d="M485.5,1170.5H160.7c-1.4,0-2.5,1.1-2.5,2.5s1.1,2.5,2.5,2.5h324.8c1.4,0,2.5-1.1,2.5-2.5
	S486.8,1170.5,485.5,1170.5z"/>
<path class="st9" d="M1723.1,325.9c-4.6-0.7-18.7,12.2-18.7,12.2l0,0c-29.9,3.5-73.6,11.4-89.4,14.4c-11.2,2.1-41.2-8.1-70.5-19.8
	c-34.9-14-68.8-30.1-68.8-30.1c-19.3-1-41.3,34.3-2.1,56.8c6,3.4,28.5,9.3,54.4,14.6c0,0,0,0,0,0c35.8,7.4,78,13.8,92.4,11.5
	c16.7-2.6,64-19.9,92.1-33.1v0c0,0,0,0,0.1,0c0.1,0,0.2-0.1,0.3-0.1c1.7-0.8,8.6-3.9,13.2-3.6c5.3,0.3,17-9.3,17.4-11.9
	C1743.8,334.1,1727.7,326.6,1723.1,325.9z"/>
<path class="st10" d="M1686.5,770.6l-16.5,3.3c0,0-75.4-84.7-87-120.3c-6.2-19-46-27.3-87.6-38c-36.2-9.4-73.7-20.6-91.7-42.6
	c-38.5-47.3,24.2-105.3,24.2-105.3s66.7,39.7,124.3,80.6c40.2,28.6,76,57.9,81.4,74.7C1646.8,663.9,1674.5,741.6,1686.5,770.6z"/>
<path class="st11" d="M1664.5,798.5h9.3c3.1-0.5,5.4-1.4,8.6-1.8c4.8-0.6,7.1,1.3,7.5,1.8c0.1,0.1,0.1,0.1,0.1,0.1h39.4
	c1-1.4,0-4.7-0.9-7.1c-0.6-1.6-2-2.9-3.7-3.4c-4.2-1.2-12.4-2.3-19.9-9.1c-4.2-3.8-20.5-14.1-20.5-14.1l-0.1,0
	c-0.4,0-2.1,0.5-9.4,6.8c-3.8,3.2-10.3-4.5-10.3-4.5s-1.2,1-2.1,2.9c-0.7,1.5-1.3,3.5-0.8,6c0.6,3.5-1.3,10.1-2.8,14.6
	c-0.9,2.7-1.7,4.6-1.7,4.6S1656.5,797.5,1664.5,798.5z"/>
<path class="st12" d="M1552.3,548.3l-56.8,67.3c-36.2-9.4-73.7-20.6-91.7-42.6c-38.5-47.3,24.2-105.3,24.2-105.3
	S1494.7,507.3,1552.3,548.3z"/>
<path class="st10" d="M1500.7,513.1c0,0-4.6,14.4-12,36.2c-9.4,27.5-23.5,66.6-38.7,102.9c-3.3,8-6.8,15.8-10.2,23.4
	c-12.7,27.9-25.6,51.9-37.1,64c-20.5,21.9-70.4,162.4-70.4,162.4l-12.4-3.4c0,0-17.3-120,44.1-188.3c0.7-0.7,1.2-1.6,1.2-2.5
	c0,0,0,0,0,0c0.8-10.1,3.7-55.4,10.1-101.3c1.6-11.3,3.3-22.5,5.3-33.4c0.1-0.7,0.3-1.4,0.4-2.1c9.3-50,18.3-72.2,29.8-83.4
	l84.9,24.2L1500.7,513.1z"/>
<path class="st11" d="M1318.5,919.2h9.3c3.1-0.5,5.4-1.4,8.6-1.8c4.8-0.6,7.1,1.3,7.5,1.8c0.1,0.1,0.1,0.1,0.1,0.1h39.4
	c1-1.4,0-4.7-0.9-7.1c-0.6-1.6-2-2.9-3.7-3.4c-4.2-1.2-12.4-2.3-19.9-9.1c-4.2-3.8-20.5-14.1-20.5-14.1l-0.1,0
	c-0.4,0-2.1,0.5-9.4,6.8c-3.8,3.2-10.3-4.5-10.3-4.5s-1.2,1-2.1,2.9c-0.7,1.5-1.3,3.5-0.8,6c0.6,3.5-1.3,10.1-2.8,14.6
	c-0.9,2.7-1.7,4.6-1.7,4.6S1310.5,918.2,1318.5,919.2z"/>
<path class="st13" d="M1336.7,349.8c0,0-14.2,34.7-30.6,68.5c-13.8,28.4-29.1,56.2-38.8,62.1c-13.7,8.4-51.4,31.9-75.8,49.5
	c0,0-19.1-0.1-22,3.5c-3,3.7-9.8,20.1-7.8,21.7c2,1.7,17.2,0.9,20.8-2.9c3.2-3.3,10.4-5.7,12.1-6.2c0.1,0,0.2-0.1,0.3-0.1
	c0,0,0.1,0,0.1,0v0c29.7-9.1,76.3-28.2,90.4-37.5c12.1-8,39.1-41.2,60.5-70.7c0,0,0,0,0,0c15.6-21.4,28.3-40.9,30.4-47.4
	C1390.3,347.4,1350.3,336.1,1336.7,349.8z"/>
<path class="st14" d="M1410.9,213.6c-1.7-2.5-3.4-4.6-5.1-6.6c2.1,0,4.4-0.2,6.3-0.9c5-2.1,7.3-17.9,6.5-22.6
	c-0.7-4.7-7.7-18.3-16.2-19.6c-8.5-1.4-17.4,8.1-17.4,8.1c1.6-6.8,16-10.8,16-10.8c-29.8,5.5-28.2,25.3-28,27.2
	c-27.2-9.7-43.2,41.6-43.2,41.6l70.5,41.6c0,0,0.2-11.3,6.9-10.6C1417.8,262.1,1426.5,236.3,1410.9,213.6z"/>
<path class="st13" d="M1415.4,321.2c-16.2,7.6-37.7-3.4-37.6-3.5c1.4-1.4,0.9-5.5-0.4-11c-1.3-5.7-4.3-13.4-9.8-22.7
	c-1.2-2-2.3-3.9-3.7-6l1.9-0.7l31.4-12.6c0,0,5.1,9.1,10.4,17.5c4.5,6.9,9.2,13.2,11.3,13C1419.1,295.1,1439.9,309.4,1415.4,321.2z"
	/>
<path class="st9" d="M1397.3,267.9c-0.8,11.2-4.6,31.4-19.8,38.9c-1.3-5.7-4.3-13.4-9.8-22.7L1397.3,267.9z"/>
<path class="st13" d="M1365.8,296.9c0,0,40.9-16.1,30.5-41.5c-10.4-25.3-12.2-44.5-38.8-35.3c-26.6,9.2-27.6,21-26.2,30.3
	C1332.8,259.7,1354.9,300.4,1365.8,296.9z"/>
<path class="st14" d="M1381.1,249.6c18.9-2.7,24.4-10.3,24.4-10.3s-17.4-5-27.6-22c0,0-21.2-7.2-37,4.8c-1,1.2-1.6,2.7-2,4.4
	c-3.6-1.2-9-0.9-12.2,9.3c-4.7,15.3,12,32.1,12,32.1c4.1-1.1-0.5-14.8-1.2-22.1c-0.5-5.4,2.4-12.2,4-15.5c2,2.6,21.9,27.7,46.3,28.7
	c0,0-12.9-4.5-24.6-13.2C1369.1,248.7,1375.3,250.4,1381.1,249.6z"/>
<path class="st3" d="M1493.4,373.5c-0.3-1.2-0.7-2.5-1.1-3.8c6.1-11.6,9.1-22.1,10.3-31c2.8-18.7-2-30.3-2-30.3s-28.4-15.1-40.9-17
	c-0.1,0-0.1,0-0.2,0c-0.1,0-0.3,0-0.5,0c-12.7-1.7-40.1,3.8-40.1,3.8s5.3,14.1-9.6,23.5c-14.9,9.4-30.8-2.4-30.8-2.4
	c-0.5,0.3-1,0.7-1.5,1.1c0,0,0,0,0,0c0,0-39.2,25.9-42.8,31.8c-3.5,5.9-18.6,35.2-18.6,35.2s4.8,24.6,57.8,26.7
	c4.4,10.6,7.7,20.9,8.8,29.5c4.2,33.4-0.7,59.7,4.2,79.2c4.9,19.5,93.4,8.4,109.4,4.6c16-3.8,12.4-20.9,13.6-37.5
	C1511,465.9,1498.6,391.9,1493.4,373.5z"/>
<path class="st15" d="M1502.6,338.7c-1.3,8.9-4.3,19.4-10.4,31.1c-1.4-6.1-7.1-28.6-16.2-38.7C1476,331.1,1491.4,332.5,1502.6,338.7
	z"/>
<path class="st9" d="M1142.5,557.5c0,0,16.5-20,20-22.3c3.5-2.4,19.1-6.5,20-5.7c0.9,0.8,0.9,2-1,3.7c-1.9,1.7-9.3,6-8.2,6.5
	c1.1,0.5,23.3-10.6,26.5-6.9c3.2,3.7-1.8,19.1-10.4,26.4c-8.6,7.4-34.1,10.5-35.7,11.5C1140,579.5,1142.5,557.5,1142.5,557.5z"/>
<path class="st13" d="M852.3,511.4c0,0,23.7,28.1,53.8,16.3c0,0,6.5-15.7,6.6-27.3c0-1.4,0-2.8,0-4.1c0.2-13,0.6-20.3,0.6-20.3
	s0,0,0,0c-1.4-0.6-46.1-18.9-46-17.4C868.1,493.8,852.3,511.4,852.3,511.4z"/>
<path class="st9" d="M871.8,467c4.3,8,19.1,23.6,41,29.3c0.2-13,0.6-20.3,0.6-20.3s0,0,0,0C912.1,475.7,870.5,464.7,871.8,467z"/>
<path class="st13" d="M922.7,474.7c0,0-50.3,11.8-57.2-19.6c-6.9-31.4-18-51.1,13.8-59.9c31.8-8.9,40.7,1.7,45.5,11.7
	C929.8,416.7,935.6,470.8,922.7,474.7z"/>
<path class="st16" d="M867.3,463.6c-0.7,0.4-11.5,3.8-32-37.1c-3.2-6.4-5.4-20.3,2.1-32.5c7.5-12.2,34.1-21.9,56.2-26.1
	c22.1-4.2,27.4,8.2,32.6,20.7c5.5,13.1,21.2,23.9,21.2,23.9c-19,10.6-42-4.6-49.9-2.1c-7.9,2.5-10.8,15-11.4,19
	c-0.6,4-1.5,7.4-11.5,3.8c-10-3.6-4.5,14.2-2.9,17.6C871.7,450.9,873,460,867.3,463.6z"/>
<path class="st14" d="M737.8,1248.4h-30.5c-6.4,0-13.5-6.5-15.3-18.3c-1.8-11.9-14.9-18.3-17.7-28c-2.8-9.7,11.7-23.4,11.7-23.4
	l2.4-3.2l2.5-3.3l24.1,5.7c0,0,0.6,5.8,1,13.2c0.3,5.4,0.4,11.5,0.1,17c-0.7,12.9,3.6,26.9,14.9,29.4
	C742.4,1240.1,737.8,1248.4,737.8,1248.4z"/>
<path class="st14" d="M949.7,1248.7H869c-0.8-0.2-1.4-0.3-1.7-0.5c-5.4-2.8-3.7-24-3.1-30.6c0.1-1.2,0.2-1.9,0.2-1.9
	s28.4-23.4,32.3-5.5c0.1,0.6,0.3,1.1,0.4,1.6v0c4.9,16.7,27,24.3,39.7,26.5C946.6,1240,949.1,1245.8,949.7,1248.7z"/>
<path class="st17" d="M933.5,782c0,0-4.3,53.8-9.4,118.4c-6.9,87.8-15.2,195.7-16,216.1c-1.4,35.5-7.1,92.2-7.1,92.2
	s-13.5,13.5-40.4,7.8c0,0-24-81-30.9-166.8c-0.1-1.4-0.2-2.8-0.3-4.2c-6.4-87.3-16.3-271-16.3-271L933.5,782z"/>
<path class="st18" d="M933.5,782c0,0-4.3,53.8-9.4,118.4l-94.4,149.4c-0.1-1.4-0.2-2.8-0.3-4.2c-6.4-87.3-16.3-271-16.3-271
	L933.5,782z"/>
<path class="st17" d="M913.8,788.4c0,0-77.7,194.8-128.8,286.3c-51.1,91.5-67,117.1-67,117.1S688.7,1180,686,1172
	c0,0,19.5-176.7,53.7-219.8c19.3-24.3,42-97.4,43.1-122.9c1.1-25.5,6.9-76.1,6.9-76.1L913.8,788.4z"/>
<path class="st9" d="M735.9,755.9c0,0-2,24.3-3.5,28.1c-1.5,3.7-11.3,15.3-12.4,15.1c-1.1-0.2-1.8-1.1-1.2-3.4
	c0.6-2.4,4-9.6,2.9-9.5c-1.1,0.2-12.3,20.7-16.8,19.5c-4.5-1.2-8.9-15.7-6.2-26c2.7-10.3,20.7-26.5,21.4-28.1
	C725.9,737.6,735.9,755.9,735.9,755.9z"/>
<path class="st12" d="M727.6,762.1c8.6,2.8,10,2.1,10,2.1s41.9-76.2,46.1-83.2c4.2-7,88.9-85.5,88.9-85.5l-21.7-81.1
	c0,0-96.3,124.6-106.6,142.5c-17.2,29.6-27.2,98.2-27.2,98.2S720.8,759.9,727.6,762.1z"/>
<path class="st19" d="M949.9,627.4c-0.3,16.7-1.3,35.4-2.6,54.4c-0.1,1.1-0.2,2.3-0.2,3.4c-0.8,11.8-1.7,23.6-2.8,35.1
	c-0.4,4.6-0.9,9.2-1.3,13.7l-0.1,0.6c0,1.7-0.2,3.5-0.4,5.2c-4.2,43.1-8.7,77.2-9.5,77.7c-1,0.7-2.1,1-3.3,0.8
	c-11.3-1.4-45.1,1.1-72.7-4.9c-23.3-4.9-43.4-14.2-64.7-26.8c-2.8-1.7-9.3-6.1-8.7-9.4c0.5-3.6,1.5-8.9,2.7-15.5
	c4.2-22.9,11.4-62.4,13.9-108.6c0.5-8.6,1.2-17.1,2.1-25.5c2.4-21.8,6.2-42.4,11.3-60.8c9.5-34.1,23.4-60.2,40.9-70.4
	c2.3-1.3,14.6,6.5,25.8,13.8c10.4,6.7,21.4,8.5,32,7.6l9.4,10.4c11.4,13.2,23.5,30.8,26.8,55.8c0.2,1.8,0.5,3.8,0.6,5.9
	C949.9,600.1,950.1,613,949.9,627.4z"/>
<path class="st12" d="M949.9,627.4c-0.3,16.7-1.3,35.4-2.6,54.4c-0.1,1.1-0.2,2.3-0.2,3.4c-64.6-40.4-74.6-114.4-74.6-114.4
	c31.8,1.4,57,8.7,76.5,19.1C949.9,600.1,950.1,613,949.9,627.4z"/>
<path class="st19" d="M1152.3,559.5c-3.3-9-8.5-8.4-8.5-8.4s-96.1,23.9-104.7,25c-8.6,1-103.4-37-103.4-37s-37.3-16.7-54.8-1.5
	c-15.2,13.3-15.9,30.1-12.3,44.3c4.2,16.8,18.5,29.3,35.7,31.5c38.7,4.9,115.9,14.2,132,11.9c36-5,117.6-52.1,117.6-52.1
	S1154.9,566.6,1152.3,559.5z"/>
<path class="st14" d="M2099.4,735.6c0,0,13.3,12.4,10.7,21.2c-2.6,8.8-14.6,14.6-16.3,25.4s-8.1,16.6-14,16.6s-27.9,0-27.9,0
	s-4.3-7.6,6.1-9.8c10.4-2.3,14.3-14.9,13.7-26.6c-0.7-11.7,1-27.3,1-27.3l22.1-5.2L2099.4,735.6z"/>
<path class="st14" d="M1933.1,797.2c-1.4,0.7-6.1,1.1-12.6,1.5h-63.2c0.2-1.9,1.7-8.6,12-10.2c11.7-1.9,31.9-8.7,36.4-23.6
	c0.2-0.5,0.3-1,0.4-1.5c3.6-15.9,29.6,4.9,29.6,4.9s0.1,0.6,0.2,1.7C1936.5,775.9,1938,794.8,1933.1,797.2z"/>
<path class="st20" d="M1872.4,370.7c0,0,4,49.3,8.6,108.6c6.3,80.6,13.9,179.5,14.7,198.3c1.3,32.6,6.5,84.6,6.5,84.6
	s12.4,12.4,37.1,7.2c0,0,22-74.3,28.3-153c0.1-1.3,0.2-2.6,0.3-3.9c5.9-80.1,15-248.7,15-248.7L1872.4,370.7z"/>
<path class="st14" d="M1872.4,370.7c0,0,4,49.3,8.6,108.6l86.6,137.1c0.1-1.3,0.2-2.6,0.3-3.9c5.9-80.1,15-248.7,15-248.7
	L1872.4,370.7z"/>
<path class="st20" d="M1890.4,376.5c0,0,71.3,178.7,118.1,262.7c46.9,84,61.5,107.4,61.5,107.4s26.9-10.7,29.3-18.1
	c0,0-17.9-162.1-49.3-201.6c-17.7-22.3-38.6-89.3-39.5-112.8c-1-23.4-6.3-69.8-6.3-69.8L1890.4,376.5z"/>
<path class="st13" d="M1670.6,279.6c0,0-19.3-4.4-22.6-4.2c-3.3,0.2-14.6,5-14.8,5.9c-0.2,0.9,0.4,1.7,2.4,1.8c2,0.1,8.4-0.7,8,0.1
	c-0.4,0.8-19.1,4.4-19.3,8.2c-0.2,3.8,10,10.7,18.6,11.2c8.6,0.5,25.6-9.6,27.1-9.7C1682.4,291.8,1670.6,279.6,1670.6,279.6z"/>
<path class="st18" d="M1662.3,284.5c-2.8-8.8-2.1-10.2-2.1-10.2s78.4-42.4,85.5-46.7c7.2-4.3,88.2-90.5,88.2-90.5l83,22.8
	c0,0-128.4,97.8-146.8,108.3c-30.4,17.4-100.8,27.3-100.8,27.3S1664.5,291.5,1662.3,284.5z"/>
<path class="st13" d="M1859,95.2c0,0-29.1,51.2-57.5,57.9c0,0,1.2-17.2,8.1-28.9c-2.8-3.3-5.3-6.4-7.5-9.2
	c-7.2-9.2-10.6-14.8-10.6-14.8l9.6-25.9l6.5-17.6c3.1,5.7,6.6,10.6,10.2,14.7C1836.6,92.8,1859,95.2,1859,95.2z"/>
<path class="st9" d="M1818,71.4c0,0,3.5,25.6-15.9,43.6c-7.2-9.2-10.6-14.8-10.6-14.8l9.6-25.9C1811.6,71.1,1818,71.4,1818,71.4z"/>
<path class="st13" d="M1783.9,104c0,0,43.5-16.9,32.5-43.8c-11-26.9-12.7-47.2-41-37.5c-28.2,9.7-29.4,22.1-27.9,32
	C1749,64.5,1772.3,107.7,1783.9,104z"/>
<path class="st17" d="M2008.4,357.8c-17.5,25.2-148.6,58.9-147,41.4c0.6-6.7,1.4-18.4,0-34.4c-0.3-3.7-0.8-7.7-1.4-11.9
	c-3.3-22.9-11.2-52.4-28.9-86.5c-1.3-2.6-2.7-5.1-4.1-7.7c-7.3-13.2-13.5-27.2-18.2-40.8c-9.1-26.2-12.7-51.3-8.2-67.8
	c0-0.1,0-0.2,0.1-0.2c27.4-12.7,38-61.8,38-61.8s93.5,16.8,145.8,141.4C1984.5,229.4,2023.7,335.9,2008.4,357.8z"/>
<path class="st18" d="M1861.3,364.8c-0.3-3.7-0.8-7.7-1.4-11.9c-3.3-22.9-11.2-52.4-28.9-86.5c3-18.4,7.2-33.6,11.8-40.5
	c18.6-27.9,29.5-32.3,29.5-32.3S1900.3,311.5,1861.3,364.8z"/>
<path class="st13" d="M1714,336.8c0,0-25.9,1.4-29.9,2.8c-4,1.4-16.6,11.5-16.5,12.7c0.1,1.2,1.1,2,3.6,1.4
	c2.5-0.5,10.3-3.9,10.1-2.8c-0.2,1.1-22.3,12.4-21.3,17.2c1.1,4.8,16.4,9.9,27.4,7.4c11-2.5,28.7-21.2,30.5-21.8
	C1733.2,347.9,1714,336.8,1714,336.8z"/>
<path class="st17" d="M1709.1,346.6c-5.2-8.4-1.4-12.2-1.4-12.2s79.9-62.5,86.1-68.9c6.3-6.3,35.3-106.9,35.3-106.9
	s10-40.7,33.4-45.2c20.3-3.9,34.4,6.1,43.5,17.9c10.9,14,12,33.4,2.9,48.7c-20.4,34.4-61.5,102.6-73.5,114.2
	c-26.7,25.9-116.2,62.2-116.2,62.2S1713.2,353.2,1709.1,346.6z"/>
<path class="st10" d="M1822.7,10.2c0.3-0.6,1.2-1.2,3.3-1.9c0,0-2-0.7-4.4-0.2c-1.2-3-4.2-8-9.7-8.1c0,0,3.2,0.8,4.4,4
	c-7.6-4.8-21.8-6.2-57,5.5C1712.7,25,1736,52,1743,54.2c7,2.2,20-11.7,31.7-13.6c11.7-1.9,18,14.4,22.4,15.7
	c4.4,1.3,1.9-2.3,6.6-6.1c4.7-3.7,7.3,5,7.2,11.1c-0.1,6.1,9,11.9,9,11.9s0,0,5.3-9.8c5.3-9.8,3.9-45.2-1.2-51.6
	C1823.6,11.3,1823.1,10.7,1822.7,10.2z"/>
<path class="st21" d="M2520.4,1348.7H77.3c-1.9,0-3.5-1.6-3.5-3.5v-1.8c0-1.9,1.6-3.5,3.5-3.5h2443.1c1.9,0,3.5,1.6,3.5,3.5v1.8
	C2523.8,1347.1,2522.3,1348.7,2520.4,1348.7z"/>
<polygon class="st22" points="1087.9,1247.4 1087.9,1300 963.4,1247.4 "/>
<rect x="1741.8" y="798.7" class="st2" width="411.8" height="540.9"/>
<rect x="1614.8" y="798.7" class="st3" width="411.8" height="540.9"/>
<polygon class="st22" points="2153.6,798.7 2153.6,879.6 2026.6,798.7 "/>
</svg>
