<?xml version="1.0" encoding="utf-8"?>
<!-- Generator: Adobe Illustrator 25.0.0, SVG Export Plug-In . SVG Version: 6.00 Build 0)  -->
<!DOCTYPE svg PUBLIC "-//W3C//DTD SVG 1.1//EN" "http://www.w3.org/Graphics/SVG/1.1/DTD/svg11.dtd" [
	<!ENTITY ns_extend "http://ns.adobe.com/Extensibility/1.0/">
	<!ENTITY ns_ai "http://ns.adobe.com/AdobeIllustrator/10.0/">
	<!ENTITY ns_graphs "http://ns.adobe.com/Graphs/1.0/">
	<!ENTITY ns_vars "http://ns.adobe.com/Variables/1.0/">
	<!ENTITY ns_imrep "http://ns.adobe.com/ImageReplacement/1.0/">
	<!ENTITY ns_sfw "http://ns.adobe.com/SaveForWeb/1.0/">
	<!ENTITY ns_custom "http://ns.adobe.com/GenericCustomNamespace/1.0/">
	<!ENTITY ns_adobe_xpath "http://ns.adobe.com/XPath/1.0/">
]>
<svg version="1.1" xmlns:x="&ns_extend;" xmlns:i="&ns_ai;" xmlns:graph="&ns_graphs;"
	 xmlns="http://www.w3.org/2000/svg" xmlns:xlink="http://www.w3.org/1999/xlink" x="0px" y="0px" viewBox="0 0 2504.6 1716.4"
	 style="enable-background:new 0 0 2504.6 1716.4;" xml:space="preserve">
<style type="text/css">
	.st0{fill:#EBF3FA;}
	.st1{fill:#A8D29F;}
	.st2{fill:#FFB27D;}
	.st3{fill:#5E2B17;}
	.st4{fill:#E8945B;}
	.st5{fill:#CC3399;}
	.st6{fill:#A53479;}
	.st7{fill:#233862;}
	.st8{fill:#061635;}
	.st9{fill:#FFFFFF;}
	.st10{fill:#ED7D2B;}
	.st11{fill:#163560;}
	.st12{fill:#BECC00;}
	.st13{fill:#A2AE09;}
	.st14{fill:#F2CCAA;}
	.st15{fill:#2B478B;}
	.st16{fill:#298C63;}
	.st17{fill:#B37446;}
	.st18{fill:#ED985F;}
	.st19{fill:#02091C;}
	.st20{fill:#C9284B;}
	.st21{fill:#82B378;}
	.st22{fill:#F99746;}
	.st23{opacity:0.5;fill:#E86531;}
	.st24{fill:#AFCDFB;}
	.st25{fill:#ADC8FE;}
	.st26{fill:#BFC6CC;}
</style>
<metadata>
	<sfw  xmlns="&ns_sfw;">
		<slices></slices>
		<sliceSourceBounds  bottomLeftOrigin="true" height="1716.4" width="2504.6" x="264.4" y="-1864.2"></sliceSourceBounds>
		<optimizationSettings>
			<targetSettings  fileFormat="JPEGFormat" targetSettingsID="0">
				
					<JPEGFormat  blurAmount="0" embedICCProfile="false" matteColor="#FFFFFF" noMatteColor="true" optimized="true" progressive="true" quality="100">
					</JPEGFormat>
			</targetSettings>
		</optimizationSettings>
	</sfw>
</metadata>
<path class="st0" d="M2419.4,1716.4l-2251.8-2.7c0,0-370.1-496.7-10.1-767.1c340.5-255.8,93-378.6,289.7-709.7
	c8.7-14.6,18.3-28.6,28.8-41.9c23.9-30.4,52.2-57.4,84.1-80.8c241.4-177.6,684.6-151.2,937.1,102.3
	c183.5,184.3,458.7,71.9,642.4,303c183.7,231.1-69.3,413.1,58.9,527.4C2326.7,1161.2,2584.9,1358.3,2419.4,1716.4z"/>
<path class="st1" d="M1696.3,1482.3c0,0-54.3-237.2-112.3-266.5s-150.5-21-153.7-20.8c-3.3,0.3,32.4,48.5,90.5,79.3
	c58.1,30.8,105.1,20.3,109,27.9c36.7,71.9,53.4,181.2,53.4,181.2L1696.3,1482.3z"/>
<path class="st2" d="M811.8,977.4c0,0,6.8,24.6,1.6,34.6c-5.2,10-15.1,18.6-19.8,12.9c-4.8-5.7,4.5-41.7,4.5-41.7L811.8,977.4z"/>
<path class="st3" d="M733.4,486.9c0,0-26-2.7-49,12.3c-23,15-20.5,53.7-40.5,62.9c-20,9.2-52.4,38.9-49.3,66.5
	c3.2,27.6,12.7,36.4,0,52.8c-12.7,16.5,9.6,57.4,46.5,44.9c36.9-12.5,151.7-50.8,163.2-72.5c11.5-21.7,5.6-47-6-67.8
	C786.7,565.3,812.1,491.4,733.4,486.9z"/>
<path class="st4" d="M769.9,1125c-18.4,118.6-33.4,246.3-26.3,313.5c5.7,18.8,23,25,38.3,27.3l-10.4,11.5l-29.6,1.8l-39.5-15.3
	c0,0,2.2-7.8,4-21.4c2-15.8-5.5-51.9-5.5-51.9s-19.9-124.6-9.1-152.7c3.1-8,5.1-17.1,6.3-27v0c3.1-25.2,1.1-55.5-1.1-84.9
	c-2.5-32-5.3-62.9-2.4-85.3c13.3-102.1,13-190.4,13-190.4l77.4-0.4c0,0,22.3,62.2,12.3,115.7C788.8,1010.9,778.9,1066.8,769.9,1125z
	"/>
<path class="st5" d="M778.5,654.2c0,0,16.9,4.3,25.1,24.1c8.2,19.9,11.8,171.5,13.3,187.9c1.5,16.3-3.5,118.3-3.5,118.3
	s-11.9,4.2-20.9-2.6c-32.4-24.8-17.6-162.1-17.6-162.1L778.5,654.2z"/>
<path class="st6" d="M801,910.1c0,0,8.7-119.3,4-150.2c-1.7-10.9-21.3,8.1-23.5,36C779.2,824,801,910.1,801,910.1z"/>
<path class="st7" d="M734.7,1483.4c17.2-2.2,12.7,2.2,36.8,2.2s32.4-8.1,33.5-11.5c1-3.1-10.7-5.5-23.1-8.4l-0.4,0.3
	c0,0-15.1,8.5-35.1,6.7c-16.2-1.4-32.9-8-44.1-9c-0.7,3.7-1.3,7.4-1,11.2C702.3,1485.7,717.5,1485.7,734.7,1483.4z"/>
<path class="st2" d="M726.2,1112.9c-18.4,118.5-47.5,259.2-40.4,326.4c5.7,18.8,23,25,38.3,27.3l-10.4,11.5l-29.6,1.8l-39.5-15.3
	c0,0,2.2-7.8,4-21.4c2-15.8-5.5-51.9-5.5-51.9s-19.9-124.6-9.1-152.7c3.1-8,5.1-17.1,6.3-27v0c3.1-25.2,1.1-55.5-1.1-84.9
	c-2.5-32-5.3-62.9-2.4-85.3c13.3-102.1,13-190.4,13-190.4l77.4-0.4c0,0,22.3,62.2,12.3,115.7C731,1011.8,735.2,1054.8,726.2,1112.9z
	"/>
<path class="st7" d="M676.9,1484.3c17.2-2.2,12.7,2.2,36.8,2.2s32.4-8.1,33.5-11.5c1-3.1-10.7-5.5-23.1-8.4l-0.4,0.3
	c0,0-15.1,8.5-35.1,6.7c-16.2-1.4-32.9-8-44.1-9c-0.7,3.7-1.3,7.4-1,11.2C644.5,1486.6,659.7,1486.6,676.9,1484.3z"/>
<path class="st5" d="M628.8,733.7c0,0-1.4,20.9,0.2,45.9c1.1,16.6,18,38.7,20.4,44.2c6,13.8,12.8,16,12.8,16l52.2,12.5l18.4,4.4
	l57.7-17.6c0,0,25.9-73.6,15.2-114.9c-10.8-41.3-27.1-70-27.1-70s-66.6-16.9-118-1.6L628.8,733.7z"/>
<path class="st8" d="M801.9,982.4c-6,78.3-13.2,144.2-13.2,144.2s-36.4,24.8-88,28.2l0,0h0c-23.6,1.5-50.3-1.4-78.3-13.1
	c0,0-11.6-188.9-5-219c6.6-30.1,36.3-71.7,36.3-71.7l134.7,4.5C788.5,855.5,808,904.2,801.9,982.4z"/>
<path class="st7" d="M791.3,836.5c0,0-11.4,9.2-34.3,9.7c-27.3,0.7-94.9-6.5-94.9-6.5s-3,8.4-2.8,17.3c0,0,82.6,20.4,130.4,2.4
	C789.8,859.4,795.9,847.8,791.3,836.5z"/>
<path class="st9" d="M751.2,855.7c0-7.8,5.5-14.1,12.4-14.1c6.9,0,12.5,6.3,12.5,14c0,7.8-5.5,14.1-12.4,14.1
	C756.9,869.7,751.2,863.4,751.2,855.7z M755.3,855.7c0,5.5,3.8,9.9,8.4,9.9c4.6,0,8.3-4.5,8.3-10c0-5.5-3.8-9.9-8.4-9.9
	C759,845.7,755.3,850.2,755.3,855.7z"/>
<rect x="609.9" y="755.5" transform="matrix(-0.7576 -0.6528 0.6528 -0.7576 627.244 1897.4006)" class="st10" width="112.1" height="153.5"/>
<path class="st2" d="M681.3,853.5c0,0,31,3.5,30.9,10.8c-0.1,7.4-7.6,22.5-11.4,23.2c-3.8,0.7-25.3-20.3-25.3-20.3L681.3,853.5z"/>
<path class="st5" d="M669.9,650.9c0,0-41.3,3.1-57,41.7c-15.7,38.6-45.4,103.5-45.3,114.4c0.1,10.9,17,44.4,107.4,63.2
	c0,0,9.3-9.9,8.7-17.6c0,0-56.6-48.1-56.5-53.7c0.2-10.7,9.1-24.9,58.3-74.6C698.8,710.7,669.9,650.9,669.9,650.9z"/>
<path class="st2" d="M676.4,648.8c8.4-1.9,15.3-7.8,18.1-15.9c3.4-9.8,6.1-24.2,6-42.2l2.6,0.5l44.1,8.5c0,0-0.9,13.9-0.9,26.9
	c0,0.1,0,0.2,0,0.3c0,11.3,7.5,21.3,18.4,24.4c5.6,1.6-26.3,44-30,43.1C727.1,692.8,673.7,649.4,676.4,648.8z"/>
<path class="st4" d="M747.2,599.7c0,0-0.9,13.9-0.9,26.9c-24.6-0.6-37.8-23-43.2-35.4L747.2,599.7z"/>
<path class="st2" d="M755.4,612c0,0-58.3,1.3-58.5-35c-0.2-36.3-7.9-60.6,29.3-62.9c37.2-2.3,44.5,11.5,47.5,23.6
	C776.8,549.7,770.6,610.8,755.4,612z"/>
<path class="st3" d="M752.8,513.1c0,0-15.7,42.7-40.2,49.1c-24.5,6.4-35.1-0.1-35.1-0.1s18.7-15,22.5-41.1
	C700,521,740.6,492.9,752.8,513.1z"/>
<path class="st11" d="M748.8,516.5c0,0,11.9,4.4,16.8,13c4.8,8.4,8.9,19.6,8,33.3c0,0,11.9-29-1.7-45.3
	C757.5,500.2,748.8,516.5,748.8,516.5z"/>
<path class="st6" d="M734.7,694.5c0,0-39.6-41.9-41.2-59.1c0,0-10,2.8-21.8,14.4c0,0,9.6,23.7,20.9,31.4c0,0,8.2-1.2,14.7-3.9
	c0,0-4.1,6.8-7.3,10.9C700,688.3,717.9,698.3,734.7,694.5z"/>
<path class="st6" d="M748.2,636.7c0,0,6.4,27.5-13.5,57.8c0,0,18.4-3.6,27.8-16.7c0,0-3-7-5.5-8.6c0,0,5.5-2.2,9,1
	c0,0,2-15.2-0.1-19.9C763.8,645.7,753.1,637.6,748.2,636.7z"/>
<path class="st7" d="M731.8,694.5c0-1.6,1.3-2.9,2.9-3c1.6,0,2.9,1.3,3,2.9c0,1.6-1.3,2.9-2.9,3
	C733.1,697.4,731.8,696.1,731.8,694.5z"/>
<path class="st7" d="M747.6,736c0-1.6,1.3-2.9,2.9-3c1.6,0,2.9,1.3,3,2.9c0,1.6-1.3,2.9-2.9,3C749,739,747.7,737.6,747.6,736z"/>
<path class="st7" d="M750.8,784.8c0-1.6,1.3-2.9,2.9-3c1.6,0,2.9,1.3,3,2.9c0,1.6-1.3,2.9-2.9,3
	C752.2,787.7,750.8,786.4,750.8,784.8z"/>
<path class="st4" d="M1622.3,998.5c0,0-6.6,29-4.7,37c1.9,8,22.2,20.6,29.9,18.3c7.6-2.3,1.1-42.2-12.1-48.7
	C1622.3,998.5,1622.3,998.5,1622.3,998.5z"/>
<path class="st11" d="M1759.9,515.4c-19.2-9.9-34.5-3.7-34.5-3.7c-58.6-6.9-75.7,61.5-74.9,85c0.8,23.5,3.5,48.8-22.7,79.3
	c-75.6,88.3,82.7,92.2,82.7,92.2c1.3-70.5,85.9-44.8,82.2-37.6C1901.1,756.5,1803.5,538,1759.9,515.4z"/>
<path class="st12" d="M1678.2,680.4c0,0-32,5.7-39.4,33.3c-7.3,27.3-19.4,123.3-20.3,166c-0.8,38-0.9,130-0.9,130s12.2,6.1,29.9,0
	l37-188.3L1678.2,680.4z"/>
<path class="st13" d="M1647.8,951.7c0,0,6.4-104.9,1.1-156.5c-4.2-41.3,47.4,79.3,43.9,101.2
	C1689.3,918.4,1647.8,951.7,1647.8,951.7z"/>
<path class="st12" d="M1827.6,759.7c0,0,1.5,20.9,0,46.1c-1,16.7-17.8,39-20.2,44.5c-6,13.8-12.8,16.1-12.8,16.1l-52.3,12.8
	l-18.4,4.5l-58-17.3c0,0-26.4-73.8-15.8-115.3c10.6-41.5,26.8-70.4,26.8-70.4s39.3-9.5,109-3.9L1827.6,759.7z"/>
<path class="st14" d="M1812.3,812.1c-1,16.7-2.5,32.2-4.9,37.7c-6,13.8-12.8,16.1-12.8,16.1l-52.3,12.8l-22.7-6.7
	c0,0,75.9-11.5,67.5-76.8L1812.3,812.1z"/>
<path class="st7" d="M1669.5,877.1c0,0-28.7,89.5-30.6,119.9c-1.8,30.5,54.9,432.7,57.2,446.8c2.2,13.2,18.6,21.7,18.6,21.7
	s7.6,4.5,18.3,1.4c15-4.2,19.7-9.3,19.7-9.3s22.4-286.9,8.5-389.4c-13.8-102.5-14-191.1-14-191.1H1669.5z"/>
<path class="st15" d="M1791.3,874.4c0,0,43.8,58.8,47.9,98.6c4.1,39.8,6.4,179.5,15.1,218.2s47.8,130.2,47.8,251.2
	c0,0-7.8,0.8-18,4.5c-3.3,1.2-8.7-0.9-13,0.1c-8.5,1.9-13.6,8.1-17.5,0.3c-21.6-43.6-95.8-201.8-99.3-231
	c-2.5-20.6-24.3-157.2-71.7-237.3c-11.4-19.2,7-95.8,7-95.8L1791.3,874.4z"/>
<path class="st7" d="M1664.9,863.3c0,0,11.5,9.1,34.5,9.6c27.4,0.6,95.2-7,95.2-7s3,8.4,2.9,17.3c0,0-82.9,20.9-130.9,3.1
	C1666.6,886.3,1660.4,874.6,1664.9,863.3z"/>
<path class="st9" d="M1692.8,896.5c-6.9,0-12.5-6.3-12.5-14.1s5.6-14.1,12.5-14.1c6.9,0,12.5,6.3,12.5,14.1
	S1699.7,896.5,1692.8,896.5z M1692.8,872.3c-4.6,0-8.4,4.5-8.4,10c0,5.5,3.7,10,8.4,10c4.6,0,8.4-4.5,8.4-10
	C1701.2,876.8,1697.4,872.3,1692.8,872.3z"/>
<rect x="1734.5" y="781.3" transform="matrix(0.7542 -0.6567 0.6567 0.7542 -123.4112 1387.0027)" class="st16" width="112.6" height="154.1"/>
<path class="st4" d="M1775.5,879.7c0,0-33.2,2.9-33.1,10.3c0.1,7.4,10.5,20.3,15.5,20.3c11.2,0,23.6-16.8,23.6-16.8L1775.5,879.7z"
	/>
<path class="st12" d="M1785.9,676.7c0,0,41.5,2.4,57.5,41.1c15.9,38.7,46.1,103.7,46.1,114.6s-16.9,44.6-107.5,64
	c0,0-9.4-9.9-8.8-17.7c0,0,56.6-48.6,56.4-54.3c-0.3-10.7-9.3-24.9-58.9-74.6C1757.1,736.4,1785.9,676.7,1785.9,676.7z"/>
<path class="st4" d="M1770.5,880.4c0,0-7.5-1.7-12.5-1.7c-4.9,0-10.8-1-10.9,0.7c-0.1,3.1,9.8,4.1,9.8,5.5
	C1757,886.3,1770.5,880.4,1770.5,880.4z"/>
<path class="st4" d="M1762,675.6c-3.1-5.8-11.9-35.3-11.9-50.7l-2.6,0.4l-44.2,7.4c0,0,1,11.8,1,22.9c0,0.1,0,0.2,0,0.3
	c0.1,9.6-0.1,14.4,1.8,26.3c0.9,5.4-1,44.1,17.5,41.3C1730.3,722.6,1764.1,679.5,1762,675.6z"/>
<path class="st17" d="M1703.3,632.8c0,0,1,11.8,1,22.9c24.7-0.6,37.8-19.7,43.2-30.3L1703.3,632.8z"/>
<path class="st4" d="M1695.1,646.7c0,0,58.5,1,58.5-35.5c0-36.4,7.6-60.9-29.7-63c-37.4-2.2-44.6,11.7-47.6,23.9
	C1673.3,584.2,1679.8,645.5,1695.1,646.7z"/>
<path class="st11" d="M1697.2,547.3c0,0,16,42.8,40.6,49.1s35.2-0.3,35.2-0.3s-18.9-15-22.8-41.1
	C1750.3,554.9,1709.3,526.9,1697.2,547.3z"/>
<path class="st11" d="M1701.2,550.7c0,0-11.9,4.4-16.8,13.1c-4.8,8.5-8.9,19.7-7.9,33.5c0,0-12.1-29.1,1.5-45.5
	C1692.4,534.4,1701.2,550.7,1701.2,550.7z"/>
<path class="st13" d="M1718.6,724.4c0,0,38.1-41.8,39.6-58.7c0,0,10.7,1.3,21.2,10.6c0,0-8.6,27.5-19.7,35.1c0,0-8.1-1.2-14.4-3.8
	c0,0,4,6.7,7.2,10.7C1752.6,718.3,1735,728.1,1718.6,724.4z"/>
<path class="st13" d="M1704.5,667.9c0,0,0.8,23.9,14.1,56.4c0,0-18-3.5-27.3-16.3c0,0,2.9-6.8,5.4-8.4c0,0-5.4-2.2-8.8,1
	c0,0-2-14.9,0.1-19.5C1690.1,676.6,1699.4,671.6,1704.5,667.9z"/>
<ellipse transform="matrix(0.2402 -0.9707 0.9707 0.2402 602.6351 2218.6514)" class="st7" cx="1718.6" cy="724.4" rx="2.9" ry="2.9"/>
<path class="st7" d="M1705.9,765.1c0-1.6-1.3-2.9-2.9-2.9c-1.6,0-2.9,1.3-2.9,2.9c0,1.6,1.3,2.9,2.9,2.9
	C1704.6,768,1705.9,766.7,1705.9,765.1z"/>
<ellipse transform="matrix(0.2366 -0.9716 0.9716 0.2366 507.939 2272.2417)" class="st7" cx="1699.9" cy="812.9" rx="2.9" ry="2.9"/>
<path class="st1" d="M1123.2,1386.9c0,0-54.1-139-74.7-148.9c-20.6-9.9-67.9-26.6-106.4-3.6c-38.5,23-61.3,78.2-61.3,78.2
	s28.1,11.2,91.5-5.2c63.4-16.4,73.8-54.4,79.4-50.7s62.2,130.3,62.2,130.3L1123.2,1386.9z"/>
<path class="st1" d="M1356.8,1386.9c0,0,35.2-90.3,48.5-96.7c13.4-6.4,44.1-17.3,69.1-2.4c25,14.9,39.8,50.8,39.8,50.8
	s-18.2,7.3-59.4-3.4c-41.2-10.7-47.9-35.3-51.6-32.9c-3.6,2.4-40.4,84.6-40.4,84.6L1356.8,1386.9z"/>
<path class="st1" d="M1173,1387.5c0,0-34.3-241.5-90-275.8c-55.7-34.3-149.5-33.8-152.8-33.8s28.4,51.2,84.2,86.9
	c55.8,35.7,104,29.2,107.2,37.2c30.7,75,38.2,185.6,38.2,185.6L1173,1387.5z"/>
<path class="st7" d="M1121.6,1412.9c0,0,0-17.6,2.5-23.5c2.5-5.9,11.7-29.8,11.7-29.8h36c0,0,6.7,21.8,7.1,28.9
	c0.4,7.1,0,24.3,0,24.3H1121.6z"/>
<path class="st7" d="M1350.4,1412.9c0,0,0-17.6-2.5-23.5c-2.5-5.9-11.7-29.8-11.7-29.8h-36c0,0-6.7,21.8-7.1,28.9
	c-0.4,7.1,0,24.3,0,24.3H1350.4z"/>
<path class="st2" d="M1206.1,422.7c0,0-1.3,39.3-6.3,56.9l-39.8,27.8l149.8,22.4l-35.7-49.4c0,0-10.8-52.7-5.1-72.2
	C1274.6,388.8,1206.1,422.7,1206.1,422.7z"/>
<path class="st18" d="M1205.8,428.1c0,0,11.8,28.5,34.2,27.9c22.3-0.6,27.4-25.9,27.4-25.9L1205.8,428.1z"/>
<path class="st19" d="M1192.5,405c0,0-7.2-36-12.2-46.9s-9.2-59.5,46.5-62c0,0,21.4,2.5,33.1-4.6c0,0,0,7.1-2.9,9.6
	c0,0,19.3-4.6,34.4,12.2c15.1,16.8-10.1,75.4-8.8,89.3L1192.5,405z"/>
<path class="st2" d="M1237.5,445c-16.2-0.3-45.9-21.8-45.9-48.5v-41.6c0-9.7,6.8-17.7,15.1-17.7h61.7c8.3,0,15.1,8,15.1,17.7v39.2
	C1283.4,422.1,1256,445.3,1237.5,445z"/>
<path class="st19" d="M1191.5,377.1c0,0,0.1-25,19.9-28.8c19.8-3.8,64.1,12.2,70.4-6c6.3-18.2-85.7-17.9-90.3-6.3
	S1191.5,377.1,1191.5,377.1z"/>
<path class="st15" d="M1126.2,801.9c0,0,6.3,192.5-3.1,302.4c-9.4,109.8,0.1,262.7,0.1,262.7s30.2,16.6,62.8,0
	c0,0,35.8-212.2,35.6-262.7c-0.2-53.8,39-294,39-294L1126.2,801.9z"/>
<path class="st15" d="M1349.1,1367c0,0-30.1,16.6-62.8,0c0,0-35.8-212.2-35.6-262.7c0.1-22.7-6.8-78.7-14.9-135.8
	c-11-78.1-24.1-158.2-24.1-158.2l139.6-8.7c0,0-11.5,192.9-2.1,302.7C1358.6,1214.1,1349.1,1367,1349.1,1367z"/>
<path class="st9" d="M1349.6,834c0,0-59.5,11.5-113.8,11.5c-23.7,0-49.4-2.6-69.9-5.3c-22.7-3-38.9-6.2-38.9-6.2s-12.1,1.1-4.9-58.4
	c5.4-45.3,3.7-86.2,2.5-128.2c-0.1-4.7,0-10.2,0.3-16.4c2.3-49,17.1-137.3,28.4-142.1c0,0,16.8-6.2,46.5-9.3
	c0,0.6,17.2,25.8,37.7,28.6c12.7-5,22.7-9.3,36.6-27.8c17.6,2,36.8,5.5,57.4,11.1c0,0,2.1,9.4,10.2,171.6
	C1344.8,727.3,1366.8,834.2,1349.6,834z"/>
<path class="st7" d="M1250.7,1104.3c0.1-22.7-6.8-78.7-14.9-135.8c8.4-34.1,28.7-66.9,28.7-66.9
	C1290.3,973.9,1250.7,1104.3,1250.7,1104.3z"/>
<path class="st9" d="M1069.6,682c-1.4,1.2,3.5,13.5,10.8,29.4c15,32.8,39.9,81.4,39.9,81.4c-3.6,13.7-7.6,22.1-7.6,22.1
	c-41.9-32.9-69-61-86.2-82.5c-24.3-30.2-29.2-47.6-29.2-47.6c93.4-190.1,159.1-197.1,159.1-197.1l-7.8,125.6
	C1148.6,613.5,1073.9,678.4,1069.6,682z"/>
<path class="st2" d="M1115.3,795.2c0,0,22.6-21,31.8-9.2c9.2,11.7,10.9,30.2,3.8,28.9c-7.1-1.3-21.8-8-23.9-4.6
	c-2.1,3.4-11.5,9.8-14.3,4.7C1109.9,809.9,1115.3,795.2,1115.3,795.2z"/>
<path class="st2" d="M1120.3,792.8c-3.6,13.7-7.6,22.1-7.6,22.1c-41.9-32.9-69-61-86.2-82.5c13-1,32-5.6,53.9-21
	C1095.4,744.3,1120.3,792.8,1120.3,792.8z"/>
<path class="st9" d="M1481,684.9c0,0-5,17.3-29.2,47.6c-17.3,21.5-44.3,49.5-86.2,82.5c0,0-4-8.5-7.6-22.1c0,0,24.9-48.5,39.9-81.4
	c7.3-16,12.2-28.3,10.8-29.4c-3.4-2.8-49-42.5-69.4-60.1c-5.9-5.1-9.7-8.4-9.7-8.4l-4.7-123.7C1325,489.7,1387.6,494.8,1481,684.9z"
	/>
<path class="st2" d="M1362.9,795.2c0,0-22.6-21-31.8-9.2c-9.2,11.7-10.9,30.2-3.8,28.9c7.1-1.3,21.8-8,23.9-4.6
	c2.1,3.4,11.5,9.8,14.3,4.7C1368.3,809.9,1362.9,795.2,1362.9,795.2z"/>
<path class="st2" d="M1357.9,792.8c3.6,13.7,7.6,22.1,7.6,22.1c41.9-32.9,69-61,86.2-82.5c-13-1-32-5.6-53.9-21
	C1382.8,744.3,1357.9,792.8,1357.9,792.8z"/>
<path class="st20" d="M1201.9,470c0,0-6.7,2.8-8.5,10.3c0,0,26.7,27.4,44.1,27.9L1201.9,470z"/>
<path class="st20" d="M1237.5,508.2l34.4-39.6c0,0,7.1,4.7,7,12.4C1278.9,481,1252.3,509.2,1237.5,508.2z"/>
<path class="st20" d="M1231.2,505.3c0,0-26.3,226.9-17.1,254.6c4.7,14.2,11,26.6,16,35.2c3.6,6.2,12.6,6.2,16.1,0
	c7-12.1,16.1-29.7,16.1-38.6c0-14.4-19.9-251.3-19.9-251.3L1231.2,505.3z"/>
<path class="st20" d="M1224.4,494.1c0,0,15.9-1.6,25.6-0.6c1.9,0.2,3,2.3,2.1,4c-2.7,4.9-8.2,13.3-14,13.3
	C1229.8,510.8,1217.2,494.7,1224.4,494.1z"/>
<path class="st9" d="M1224.6,418.2c0,0,5,6.8,13.8,6.6c8.8-0.2,12.9-6.6,12.9-6.6S1236.5,415.8,1224.6,418.2z"/>
<path class="st21" d="M1196.8,1364.7c0,0-2-155.4-40.3-166.3c-38.2-10.8-93.9,32-103.9,86.7c0,0-8.9,36.3-21.1,49.3
	c0,0,27.7,12,56.7,6c29-5.9,53.3-38.8,54.9-67c1.5-28.2,12.2-66.2,17.1-63.9c5,2.4,12.1,16.4,17.2,39.2c5.1,22.8,9.2,116,9.2,116
	L1196.8,1364.7z"/>
<path class="st1" d="M581.2,1459.6c0,0-53.3-137-73.6-146.7c-20.3-9.7-66.9-26.2-104.8-3.6c-37.9,22.6-60.3,77.1-60.3,77.1
	s27.6,11,90.1-5.2c62.5-16.2,72.7-53.6,78.2-49.9c5.5,3.7,61.3,128.3,61.3,128.3L581.2,1459.6z"/>
<path class="st1" d="M630.2,1460.2c0,0-33.8-237.9-88.7-271.6c-54.9-33.7-147.3-33.3-150.5-33.3c-3.3,0,28,50.4,82.9,85.6
	c54.9,35.2,102.4,28.8,105.6,36.6c30.3,73.9,37.6,182.8,37.6,182.8L630.2,1460.2z"/>
<path class="st21" d="M766.5,1438.7c0,0,1.6-120.7,31.3-129.1c29.7-8.4,72.9,24.9,80.7,67.3c0,0,6.9,28.2,16.4,38.3
	c0,0-21.5,9.3-44,4.7c-22.5-4.6-41.4-30.2-42.6-52.1c-1.2-21.9-9.4-51.4-13.3-49.6c-3.9,1.8-9.4,12.8-13.3,30.5
	c-3.9,17.7-7.2,90.1-7.2,90.1L766.5,1438.7z"/>
<path class="st1" d="M1704.6,1487.7c0,0-63.7-107.4-82-112.8c-18.3-5.3-59.7-12.7-88.4,11.5c-28.6,24.2-39.9,73-39.9,73
	s24.7,5.4,74.8-16.8c50.1-22.2,53.5-55,58.7-52.7c5.1,2.3,69.1,99.1,69.1,99.1L1704.6,1487.7z"/>
<path class="st21" d="M1876.5,1450.4c0,0,2-149.6,38.8-160c36.8-10.4,90.3,30.8,100,83.4c0,0,8.6,34.9,20.3,47.4
	c0,0-26.6,11.5-54.6,5.8c-27.9-5.7-51.3-37.4-52.8-64.5c-1.5-27.2-11.7-63.7-16.5-61.5c-4.8,2.3-11.6,15.8-16.5,37.8
	c-4.9,21.9-8.9,111.6-8.9,111.6L1876.5,1450.4z"/>
<path class="st22" d="M1391,1380.4l-0.6,19.4c0,0.1,0,0.3,0,0.3l-0.2,2l-4.9,38.3l-29.9,235c-2.8,20.3-18.2,35.3-36.2,35.3h-164.2
	c-20.6,0-38.7-16.3-43.2-39.3l-42.6-232l-6.9-37.3l-0.3-1.9v-0.4c0-0.1,0-0.1,0-0.3c0-10.5,7.5-19.1,16.7-19.1H1391z"/>
<path class="st23" d="M1390.2,1402l-4.9,38.3c-29.9-6.6-94.6-17.4-163.6-17.4c-66.3,0-123.9,9.8-152.6,16.5l-6.9-37.3H1390.2z"/>
<path class="st22" d="M1401.1,1413.5h-349.7c-3.5,0-6.2-3.6-5.7-7.6l5.7-40.7c0.4-3.2,2.9-5.5,5.7-5.5h339.3c2.9,0,5.3,2.4,5.7,5.7
	l4.7,40.7C1407.2,1410,1404.6,1413.5,1401.1,1413.5z"/>
<path class="st22" d="M1109,375.2c-56.1-41.9-137.9-49.5-174-50.8c-11.4-0.4-18.2-0.2-18.2-0.2l-2.1-1
	c16.3-48.9,0.2-99.8-39.1-117.5c-8.4-3.8-17.2-5.8-26.1-6.1c-16.9-0.7-34.2,4.5-49.9,14.5c-0.9,0.6-1.8,1.2-2.7,1.8
	c-13.7,9.4-26,22.4-35.3,38.5c-7.8-2.4-16.3,0.5-21,7c-0.7,1-1.3,2.1-1.8,3.2l-30.4,67.4c-12.3,27.2,0,59.5,27.2,71.8l16.1,7.2
	l77.1,34.7c30.6,13.8,66.8,0,80.6-30.5l8.3-18.4c5.1-3,10.3-6.4,15.6-9.9c87.5-58.5,177.8,4.5,177.8,4.5c1-2.3,1.4-4.4,1.4-6.4
	C1112.4,379.2,1109,375.2,1109,375.2z M906.8,319.8l-3.4-1.5c2.5-8.8-1.7-18.3-10.2-22.2L861.8,282c3.6-7.9,0-17.2-7.9-20.8l-4.3-2
	c-1.9-0.8-3.9-1.3-5.9-1.4c-6.2-0.2-12.3,3.3-14.9,9.3l-31.4-14.2c-0.3-0.2-0.7-0.3-1-0.4c-0.4-0.2-0.8-0.3-1.3-0.4
	c-7.5-2.2-15.6,0.5-20.2,6.7c-0.3,0.4-0.6,0.8-0.8,1.2l-1.4-0.6l-3.3-1.5c10-16.9,23.4-30.2,38.3-38.8c5.7-3.3,11.7-5.9,17.7-7.8
	c10.4-3.2,21.1-4.1,31.5-2.4c5.2,0.8,10.3,2.4,15.2,4.6C907.1,229.3,921.3,275.3,906.8,319.8z"/>
<path class="st23" d="M917.5,397c5.1-3.1,10.3-6.4,15.6-9.9c87.5-58.5,177.8,4.5,177.8,4.5c1-2.3,1.4-4.5,1.4-6.4
	c-12.6-9-60.1-38.9-120.4-31.3C921.2,362.7,908.2,372,917.5,397z"/>
<path class="st23" d="M735.5,403.9l16.1,7.2c-24-14.2,8.2-69.5,27.2-106.1c19-36.6,45.2-18.7,45.2-18.7
	c6.6-12.3,19.7-11.1,19.7-11.1c1.1-12,10.4-14.1,10.4-14.1l-4.3-2c-1.9-0.8-3.9-1.3-5.9-1.4c-6.2-0.2-12.3,3.3-14.9,9.3l-31.4-14.2
	c-8.5-3.8-19.2-3.7-24.1,4l-4,1c10-16.9,23.4-30.2,38.3-38.8c15.7-9,32.9-12.9,49.2-10.1c-2.5-2.2-5.1-5.1-7.5-9.3
	c-16.9-0.7-34.2,4.5-49.9,14.5c-14.8,9.4-28.1,23.2-38,40.3c-9-2.8-18.9,1.5-22.9,10.3l-30.4,67.3
	C696,359.3,708.3,391.7,735.5,403.9z"/>
<path class="st2" d="M810,246.2c-16.3,6.2-52.4,22.8-75.6,13.5c-9.2-3.7-18.5-11.6-27.1-15.1c-30.8-12.7-93.2-28.3-93.2-28.3
	l16.2-58.7c0,0,80.3,43.5,89,45.2c13.5,2.6,28.3-2.9,37,1.3c23.9,11.5,45.9,14.8,57.4,9.9c8.8-3.7,11.8-2.6,11.8-2.6
	S826.3,240.3,810,246.2z"/>
<path class="st24" d="M1105,414.6c0.1-3.5,6.9-14.1,6.9-14.1s6,11.1,5.9,14.6c-0.1,3.5-3.1,6.3-6.6,6.1
	C1107.6,421,1104.9,418.1,1105,414.6z"/>
<path class="st24" d="M1103.6,456.1c0.1-3.5,6.9-14.1,6.9-14.1s6,11.1,5.9,14.6c-0.1,3.5-3.1,6.3-6.6,6.1
	C1106.2,462.6,1103.5,459.6,1103.6,456.1z"/>
<path class="st2" d="M728.6,204.3c0,0,15.4-9.9,34.6-9.5c10.2,0.2,43.6,3.2,43.2,5.2c-2.2,11.4-20.8,0.8-25.5,12.1
	C776.2,223.5,728.6,204.3,728.6,204.3z"/>
<path class="st25" d="M647.3,225.2c-8.2,8.6-19.3,17.5-34.4,26L476,205.6c23.9-32.1,52.2-60.5,84.1-85.2
	c19.3,9.8,100.9,53.5,109.4,58.1c0.5,0.3,0.7,0.4,0.7,0.4S671,200.4,647.3,225.2z"/>
<path class="st26" d="M2500.9,1716.4H46.8c-2,0-3.7-1.7-3.7-3.7v-4c0-2,1.7-3.7,3.7-3.7h2454.1c2,0,3.7,1.7,3.7,3.7v4
	C2504.6,1714.8,2502.9,1716.4,2500.9,1716.4z"/>
<path class="st22" d="M808,1425.3l-0.5,16.4c0,0.1,0,0.2,0,0.2l-0.2,1.7l-4.1,32.4l-25.3,199c-2.4,17.2-15.4,29.9-30.7,29.9h-139
	c-17.5,0-32.7-13.8-36.6-33.3l-36.1-196.4l-5.8-31.6l-0.3-1.6v-0.3c0-0.1,0-0.1,0-0.2c0-8.9,6.3-16.2,14.1-16.2H808z"/>
<path class="st23" d="M807.3,1443.6l-4.1,32.4c-25.3-5.6-80.1-14.7-138.5-14.7c-56.1,0-104.9,8.3-129.2,13.9l-5.8-31.6H807.3z"/>
<path class="st22" d="M816.5,1453.4H520.4c-3,0-5.3-3.1-4.8-6.4l4.8-34.5c0.4-2.7,2.4-4.7,4.8-4.7h287.3c2.4,0,4.5,2.1,4.8,4.8
	l4,34.5C821.7,1450.4,819.4,1453.4,816.5,1453.4z"/>
<path class="st22" d="M1912.9,1425.3l-0.5,16.4c0,0.1,0,0.2,0,0.2l-0.2,1.7l-4.1,32.4l-25.3,199c-2.4,17.2-15.4,29.9-30.7,29.9h-139
	c-17.5,0-32.7-13.8-36.6-33.3l-36.1-196.4l-5.8-31.6l-0.3-1.6v-0.3c0-0.1,0-0.1,0-0.2c0-8.9,6.3-16.2,14.1-16.2H1912.9z"/>
<path class="st23" d="M1912.3,1443.6l-4.1,32.4c-25.3-5.6-80.1-14.7-138.5-14.7c-56.1,0-104.9,8.3-129.2,13.9l-5.8-31.6H1912.3z"/>
<path class="st22" d="M1921.5,1453.4h-296.1c-3,0-5.3-3.1-4.8-6.4l4.8-34.5c0.4-2.7,2.4-4.7,4.8-4.7h287.3c2.4,0,4.5,2.1,4.8,4.8
	l4,34.5C1926.7,1450.4,1924.4,1453.4,1921.5,1453.4z"/>
</svg>
