<?xml version="1.0" encoding="utf-8"?>
<!-- Generator: Adobe Illustrator 25.0.0, SVG Export Plug-In . SVG Version: 6.00 Build 0)  -->
<!DOCTYPE svg PUBLIC "-//W3C//DTD SVG 1.1//EN" "http://www.w3.org/Graphics/SVG/1.1/DTD/svg11.dtd" [
	<!ENTITY ns_extend "http://ns.adobe.com/Extensibility/1.0/">
	<!ENTITY ns_ai "http://ns.adobe.com/AdobeIllustrator/10.0/">
	<!ENTITY ns_graphs "http://ns.adobe.com/Graphs/1.0/">
	<!ENTITY ns_vars "http://ns.adobe.com/Variables/1.0/">
	<!ENTITY ns_imrep "http://ns.adobe.com/ImageReplacement/1.0/">
	<!ENTITY ns_sfw "http://ns.adobe.com/SaveForWeb/1.0/">
	<!ENTITY ns_custom "http://ns.adobe.com/GenericCustomNamespace/1.0/">
	<!ENTITY ns_adobe_xpath "http://ns.adobe.com/XPath/1.0/">
]>
<svg version="1.1" id="Objects" xmlns:x="&ns_extend;" xmlns:i="&ns_ai;" xmlns:graph="&ns_graphs;"
	 xmlns="http://www.w3.org/2000/svg" xmlns:xlink="http://www.w3.org/1999/xlink" x="0px" y="0px" viewBox="0 0 660.5 319.7"
	 style="enable-background:new 0 0 660.5 319.7;" xml:space="preserve">
<metadata><?xpacket begin="﻿" id="W5M0MpCehiHzreSzNTczkc9d"?>
<x:xmpmeta xmlns:x="adobe:ns:meta/" x:xmptk="Adobe XMP Core 6.0-c002 79.164519, 2020/08/25-17:54:00        ">
   <rdf:RDF xmlns:rdf="http://www.w3.org/1999/02/22-rdf-syntax-ns#">
      <rdf:Description rdf:about=""
            xmlns:xmp="http://ns.adobe.com/xap/1.0/"
            xmlns:xmpGImg="http://ns.adobe.com/xap/1.0/g/img/"
            xmlns:xmpTPg="http://ns.adobe.com/xap/1.0/t/pg/"
            xmlns:stDim="http://ns.adobe.com/xap/1.0/sType/Dimensions#"
            xmlns:xmpG="http://ns.adobe.com/xap/1.0/g/"
            xmlns:dc="http://purl.org/dc/elements/1.1/"
            xmlns:xmpMM="http://ns.adobe.com/xap/1.0/mm/"
            xmlns:stRef="http://ns.adobe.com/xap/1.0/sType/ResourceRef#"
            xmlns:stEvt="http://ns.adobe.com/xap/1.0/sType/ResourceEvent#">
         <xmp:CreatorTool>Adobe Illustrator 25.0 (Windows)</xmp:CreatorTool>
         <xmp:CreateDate>2020-11-29T16:37:50-03:00</xmp:CreateDate>
         <xmp:MetadataDate>2020-11-29T16:37:52-03:00</xmp:MetadataDate>
         <xmp:ModifyDate>2020-11-29T16:37:52-03:00</xmp:ModifyDate>
         <xmp:Thumbnails>
            <rdf:Alt>
               <rdf:li rdf:parseType="Resource">
                  <xmpGImg:width>256</xmpGImg:width>
                  <xmpGImg:height>124</xmpGImg:height>
                  <xmpGImg:format>JPEG</xmpGImg:format>
                  <xmpGImg:image>/9j/4AAQSkZJRgABAgEASABIAAD/7QAsUGhvdG9zaG9wIDMuMAA4QklNA+0AAAAAABAASAAAAAEA&#xA;AQBIAAAAAQAB/+4ADkFkb2JlAGTAAAAAAf/bAIQABgQEBAUEBgUFBgkGBQYJCwgGBggLDAoKCwoK&#xA;DBAMDAwMDAwQDA4PEA8ODBMTFBQTExwbGxscHx8fHx8fHx8fHwEHBwcNDA0YEBAYGhURFRofHx8f&#xA;Hx8fHx8fHx8fHx8fHx8fHx8fHx8fHx8fHx8fHx8fHx8fHx8fHx8fHx8fHx8f/8AAEQgAfAEAAwER&#xA;AAIRAQMRAf/EAaIAAAAHAQEBAQEAAAAAAAAAAAQFAwIGAQAHCAkKCwEAAgIDAQEBAQEAAAAAAAAA&#xA;AQACAwQFBgcICQoLEAACAQMDAgQCBgcDBAIGAnMBAgMRBAAFIRIxQVEGE2EicYEUMpGhBxWxQiPB&#xA;UtHhMxZi8CRygvElQzRTkqKyY3PCNUQnk6OzNhdUZHTD0uIIJoMJChgZhJRFRqS0VtNVKBry4/PE&#xA;1OT0ZXWFlaW1xdXl9WZ2hpamtsbW5vY3R1dnd4eXp7fH1+f3OEhYaHiImKi4yNjo+Ck5SVlpeYmZ&#xA;qbnJ2en5KjpKWmp6ipqqusra6voRAAICAQIDBQUEBQYECAMDbQEAAhEDBCESMUEFURNhIgZxgZEy&#xA;obHwFMHR4SNCFVJicvEzJDRDghaSUyWiY7LCB3PSNeJEgxdUkwgJChgZJjZFGidkdFU38qOzwygp&#xA;0+PzhJSktMTU5PRldYWVpbXF1eX1RlZmdoaWprbG1ub2R1dnd4eXp7fH1+f3OEhYaHiImKi4yNjo&#xA;+DlJWWl5iZmpucnZ6fkqOkpaanqKmqq6ytrq+v/aAAwDAQACEQMRAD8A9U4qpXd3a2drNd3cqQWt&#xA;ujSTzSEKiIgqzMTsABirwb80f+cltEGi3GneSLmWXVZXER1ExFI44qHm8RkoxfoFqvv4ZZGHe0zy&#xA;9z5pvL69vbl7q8uJbm5kNXnmdpJGPWpZiScucd6n+VX/ADkBrXk6Kaw1dJ9b0pwv1aJ5qSW7A/F6&#xA;bOG+Bgfs+PSm+QlC2yGSn075D8/+XvO+i/pXRpG4o3p3NtKAs0MlAeLqCRuDsQSD9+UkU5EZAskw&#xA;MnYq7FXYq7FXYq7FXYq7FWkdHUMjBlYVDA1BGKt4q7FXYq7FXYq7FXYq7FXYq7FXYq7FXYq7FXYq&#xA;7FXYq8l/5ye1S7sfywaG3LKuoXsFrcFa/wB1xeY1I6AtCB+GTx82rKdnx9l7irlR2ZVVSzMaKoFS&#xA;SdtsUvXNN/5xt813lvp9297bW0NzFHLdQTeqtxCXAZo+ARlLL7sN8w5ayItzo6CRo2n/APziQl+v&#xA;mTzBQMLIWkQuBT4fW9X91X34+pT6cvyOPh5vp7KnIdirsVdirsVdirsVdir59/P382PMWleY28s6&#xA;Jci2tY7QpqRCqzSPdxkcasCV4RsCpUjc+wzM0+IEWUvKvKH5reefKcH1XSNQIsa8vqU6rNCCTU8Q&#xA;wqle/AjMieKMuavov8s/zw8vea4bPT9RlSw8yzckazCuIpGXesTtVfiG/EtXtvmFlwGO45IemZQr&#xA;sVdirsVdirGvO35heXPJlvaTa1JIovZDFCkKc2+EAu5FR8K1Fe+/TG2cMZlyYhrv/OR/5e2Fvy01&#xA;59XuGBKRRRPAgPg7zqhH+xVsFtkdPI82Fxf85Ual9aBl8vw/Va7otw3qBf8AWKca/wCxwW2/lR3v&#xA;cvKvmbTPM2g2utaaxa1ulqFagdGU8XRwK0ZWFMk4somJoptixdirsVdirsVdirsVeffn15fbWvyt&#xA;1qONeU9ki38Pen1Zg8n/ACS5jJQO7DILi8w8m/l75S82/k1Bb2FvaprEiPy1AqDNHeI52kcVkCkU&#xA;+H+Ug06Zi5M0oZd+TlYsEZ4duf6XpvlPyfpnl7QNM0tI455NNi4JdMi8y7sXkZSaleTuxpXMbJkM&#xA;iT3uXjxCMQO5PsrbUX5T8n+XvK2nNY6JaLbQyuZp2qWkkkbqzu1WY+Hh2za3bp+EDknWKXYq7FXY&#xA;q7FXYq7FXYq+Pv8AnICJk/NfWJDQrMtq6EeAtY0P/DIc2OnNwDKnneXqitKvptP1Ozv4WKzWk0c8&#xA;bL1DRuGFPuwEWEPvpHSRQ6MGQ9GU1B+kZpwQeSkEbFvCh2KuxV2KvEP+cjPLGp6vqfliSEMbFnmt&#xA;ZpQCVieQowLU/mVDT/VyrLPhiT3OZpNzT591jSbvSdRm0+74+vDTlwPJTyUMCDt2ODHMTFhy5Ro0&#xA;gsmh6J+Rfma/0n8wtMtUndbDUXa1ubfkeDGRSIzxrSok474Q0543F9NeYPzB8k+XrlbXWtatbG6Y&#xA;chbySD1Ap6EoKsAe1cmAS60yASLWPz2/KrS/S9XXobhpl5Ktmr3NF/yjErKp9mNfbCIFByRDz781&#xA;f+cktMTQreDyFfCbUL0t9YvGhdWto1psEmVau5OxoQAD7ZKMO9hPLts8Cm/MDz5NObiTzHqbTE8u&#xA;f1ycGvtR9qdqZbQaOI973r/nHz87NU1i/Xyl5muDdXkis2l6jIf3jlByaGU/tNxBZW69Qe2VTh1b&#xA;sWS9i+gcrb3YqtmhimieGVQ8UilJEYVDKwoQR7jFXz15A/KLWvJn5kald3LlNBhLppbiQETrNX0y&#xA;6g9Y0qrch9rplOryjhA6tuiwESMuj1DzJrcGhaDf6xOpeKxheYxjYsVHwqD/AJTUGYMRZp2JNPjv&#xA;zR5v1/zPqL32r3TTMzExQ1IiiU/sxpWigff45sIwEeTjE2jIvzJ89w6DDoUGt3cOmQMzRxRSsjAN&#xA;T4PUUh+ApslaDJMeEK3lj80vPfly+jurDWLl0Q1e0uJXmt5B3DxuSN/EUPgcUGIL6g8j/n55G813&#xA;1rpaPNp+rXKqEt7lQEaUj4o45VJDGv2eXHl89sNtEsZD0kkAVOwHU4WDyfzT+ctzHeSWugRRGCM8&#xA;TeygvzI7otQAvua1zX5dYbqL0uk7DBjxZSb7glOn/nP5ngmBvIoLyGvxJxMTU/yWU0H0qcrjrZjn&#xA;u5OXsLCR6SYn5s+0X81PKmqXMVqJJLSeagQXChVLn9nmpYdfGmZcNVCRp0ufsfNjBlsQO5mGZLq3&#xA;Yq+Vv+ckdCuLHzdaX7oVgvoGSN6bM0MhJ3/1ZUzI7PBEZRPf97kZpCVEdzyPNg0pl5b0+XUfMOmW&#xA;ESl5Lq6hiVVFT8cgGV5ZVAnyTDmH3Tpdu9vYQxPs6glh4FiWp+OabBAxgAWWeYlMkIrLWp2KuxV2&#xA;KpV5pi9Xy/erStI+f/AEN/DKNULxlyNKayB81fmb5X+uSWd9YwO9/cTLbS8KlSCp4s3hSlK+Ga/R&#xA;5qsHk7fNC9wxHzt5QTy5NZrHcGdLlGJLAAh0py2HY8hTMvT5/Evbk1ZMfCo+QPUXzpo88aF2tLlL&#xA;woNqra/v2H/AxnMoOPlNRKYeX/y28x+ftA8wecZ5nn1SSVmsoTsbmYMHm3PYKeKAftbbAZPJnEJC&#xA;LqcWmM4mTzWaGaCV4ZkaKaNikkbgqysDQhgdwRmQC4pCYeWvMF/5e16x1qwI+tWMqyorCqsAfiRh&#xA;4MNjiRag0XoH/OQp8v3XmjSNc0aJYI9f0m31KeNV41eV5FDtTbkVSje4yMOTZlq7YF5T1g6L5o0j&#xA;V+RUWF5BcOVrXhHIGYbeKgjJEMImi/QOKWKaJJYnEkUih43U1VlYVBBHYjMZzV2KsV1/8yvKui3j&#xA;2U9wZbuPaWOFS4Q+DMNq+2ZmHQ5MgsDZ1Gr7b0+CXBI3Id3Ri8/mhkuptSuZm1HyzqD84L2JSTaO&#xA;AAYpEA5Kvht+vBqezvEAERWWPMfzvMMNJ22cMzKZ49PM7SH8B7iOdI250rRfOGiX+gJq0Lw39s6R&#xA;FGSSRGFCrcKgngRWm2aqGkyQl6gRXk9F/KODIB4coyvuI+58k+dvKeq+UPMdzoGo+nLd23EmSBiY&#xA;2WRQykFgp3U+GZDIStJUBA+I1Y9cWTeKptb6dq9jJpV/AjJd3M/LT1FQ5eJkKMPmzbZGMwSQOjOW&#xA;MiIJ6vtn8x9W/Rvk+/lV+E06i2h7EmU8Wp7hORyGpnwwKey8PiZ4joN/k+d80z3LsVV7e1eeC6kX&#xA;7NrGJW+RkSP9cmGmEpUQO/8AVb6K8j39xf8AlLTLq5Jad4QruerFCU5H3PGubrBImAJeF7QxiGeU&#xA;RytPMtcNgv5w/l23nfyt9VtWVNWsn+sae7mis1KPEx7B17+IHbLcOThNpBfK9x+XPnmCVon0W6Zl&#xA;6mNPUX6GTkp+/MkazEf4g3HBMdHqn5A/lVrMHmf/ABFrlsbSLTkJs7eSnN5pVZORUElQi1696ZVl&#xA;1UJgiJthPHKPPq+jsxmt2KpR5r80aZ5Z0SfV9QJ9GKixxr9uSRvsovufwG+W4cRyS4QkC3zl5h/O&#xA;jz3q9yzwXp0y1r+6trT4KDtyk+2x8d6ewzd49DjiOV+9vEAENof5u+ftJuUlGqS30Skc7e9JnVwO&#xA;xZvjHzVhksmjxyHKvckwBfRHk/zZpnnXyyby3HpNIrW97aseTRSFaMtdqgg1U9x71GaLVacwJier&#xA;TvGQLz6eGSCaSGQcZI2KOPAqaHOVlEg0Xo4yBFh4v+ZqayuvkXztJaUJsH4hVEbHkVFAKlTsa79M&#xA;2+j4eDbn1cTNd7s+/wCccvKDrrF55j1W2eG3t4PR08zIQsjz1EjoCPiCxgr4fFmT4kR1cPPGRFB6&#xA;v5b8taX5Z0mLRdLZmsbd5WgL/a4yytLQnvx58a+2YeafFIlngx8MAGEfnL+Wmka/oF5q9rYu3mK1&#xA;jDW72qFpZ6ED03RQfU26HqPltlumzGJq9mjVacSiSB6njfnv8oJvKHkzTNbvL3lqN3KkN3YFQBG0&#xA;kbScVYE1KcKN28MzcWo45EDk4GbS8EBIndR/M7yrrWl6H5L1G7ic2d1osEcczA0ST1JZ/Sbb4SEm&#xA;UgfPwOXxPNomKAefZJre8/kF+d95pt5ZeT/MMpm0qdlt9LvHPx2zsaJE5PWIk8R/J/q9K5w6t+PJ&#xA;0L6U169ex0W+vI/7yCCR4/8AWCnj+ORww4pgd5Tqspx4pSHMRL5ad3d2d2LOxLMx3JJ3JJzrwHyU&#xA;kk2WXflp5hOm66tlM3+g6jSGRT9kSHaNvv8AhPzzC12HjhY5xdz2HrPCzcB+ie3x6fqeuQeXtCt7&#xA;xb2DT7eK7Q8kmSNVYN41AzSyzTIok09pDR4Yz4xCIl30+Yv+cjIJ0/NK9uJQQl3b20sFaU4LEIjx&#xA;9ucTZhSFF3eGVxec6f8AVhf2xut7b1U9f/jHyHL8MhK6Nc2+FWL5PS9S8nWF9qunXtmkEdpGeV0s&#xA;YAWRVo0fFVHE16H2zAhnIiQebs56cSkCOT1r8tfI2ia1q8WvajG002hyVsISR6Qlko3qMOpZPTHH&#xA;t38Mu0Y5uJ2lLkHfnTrNzNrdvpQJW1tYllK/zSyV+I/JaAfTlOtmTKna9hYAMZn1J+x5zmE75l/5&#xA;dr5fkuL221UQmSdES29fjQ1JDhS37RqtKb5ZCurre0fEABhe3OmT+Wvy5aLTLuxvZlF1qPGN5I6s&#xA;I41bl8NeNSaVy3His13uBqu0vUJRG0XqFjZW1jZwWdsnC3t0WOJfBVFBm2jEAUHmsmQzkZHmVZpE&#xA;X7TAfM5KmskIG7vOXwRVK/tMMsjHvaZ5O5LWSxJqyoD7ihwHTxP8IUamY/iKpFIi09EdOhUUA/Vk&#xA;xAAVyazkJN3aZxX8ZUCSqt3PUZWYN0cg6q6Twvsrgnw75EgsxIF4f/zknqchn0XS1akYSW5kSvVi&#xA;QiEj2o1Pnm27MjsS5GIPE82ra7FXoP5L+dofLfmY297J6el6oFhncmixyKf3UjewJKn2Ne2YWuwc&#xA;cLHMMJxsPou/0PRLiQ3NzapJK/VqkFvnQjOanp4SNkbsYaicRQOzE9S8mXcZkudJuUWdSzQ28qBl&#xA;36KGJO47EjMY6GI3DstP2jCwMkdu8FiWn+eda0+8li1RGulDFZYyFjkjZdjxoAPmDlHLYu/y9nY8&#xA;kQce33FlflzzVaa61xGkLQSQcTwkKksjftbe43wuq1Wjlhq97TnmErzNFG4Y+GBxHj9j+XvnT8yP&#xA;O1xP5tkaDyhoV7LHZwcPS+tKJKgIBvRkC85CfZd602uERjEEcy6fPxTmRLkC971PRNI1TTJNL1Cz&#xA;hutOkUI9rIgMfFfs0XtxptTphtSHyb+fX5Pad5HubTU9GmP6H1GRo1s5W5SQSKOVFY7uhHSu47k5&#xA;fCVuNkhTyuwtLq8v7a0tFL3dxKkVui15GR2CoBTvyOTaw/QLzDbi50a6gY0WVODfJtj+vK8EqmC3&#xA;aqHFjMe98vSxPFK8TijxsVYeBBoc60G3yeUSCQejSsysGUkMDUEbEEYUA0+hfK2sDWNBs7+oMkiA&#xA;TAdpE+F/+GGczqMXBMxfStBqfGwxn1I39/Vjn5p/lTbefdKUW7pba7YgtYXL14Op+1DLSp4t1B/Z&#xA;PzNcXIHaafJRp8raj5N806dfzWF1plwtzbu0UqqhkUMpofjTkp+dcxjkiOrshikRYBelflz5L8wQ&#xA;aNNItlPPJJKGljhRpPT+GihuHLc0rmFmJmfSLAdhgrEPUQCX0N5B0dtA8tj6/SC4uJGmmV6ArUBV&#xA;X58VrT3zJwxGOHq2dbq5+Lk9O9MP/NXy+NVu49X0k/WJkjEV1bqrcyFJKugp8XWhA9vfMTUmMzcT&#xA;u7rsjOcUTDJsL2Lywgg0OxHUZiPRKlvO9vcRTp9uJ1dfmpqMWMo2CH0X5bc39tb6kqMkE0ayx8qV&#xA;PNa/hXNlp4EnieI1h4CYdbTS9nKARqaM25PgM2EA6rJKtkBlrS7FDsVdirsVWO3FkPiaH6R/ZhCC&#xA;wn8z/wAupfNyQXlrciLU7OMxxLJ/dyITy4sw3Ugk0O+ZOl1Hh7HkXJxZ+HYvn7V9G1TR717LUrZ7&#xA;W5TqjjqPFSNmHuNs28JiQsOdGQIsIPJpdir0HyL+cGvaC9vY6jI1/oqEIY33lhQ7VifqeP8AK23Y&#xA;UzB1GijPcbSYSgC+ioJop4Y54WDxSqHjcdGVhUEfMZoiK2cd4/8AmIkaebrsIAOccLvT+YpQ/goz&#xA;Xakep7bsSROnF9CUv8sap+jNetbhjxhkb0Jz24S0FT/qtxOUhy9fh8TEe8bvXmVWFGAPffffC8q8&#xA;G1X80PzT8s+Z57W9vlJt5uTWZij+ryRk1Xj8Ifgy9CG5fTm8w48Zh6WqeMS5vo/y/rNvreh2OrW4&#xA;4xX0CTqh6rzWpU+6nbKZCjTrpCjTyr87vye86+ftd0+fTtSsoNIsoCi21y0qskruTJIojjkDclCD&#xA;cjpk4SAackDIq/5W/wDOO+jeT9Qi1rVLv9LazDU21E9O3gY7clUks706MaU8K74JTtYYqes3cfqW&#xA;sqeKmnzpggaIZzFxL5v89af9S8zXYAolwRcJ7+pu3/D8s6nSz4sY8nzLtfD4eol3S3+f7UgzJdY9&#xA;Q/K3ULqw0K8e4iY2TzqbQ/zOVIkpXsOK/TnL+0Gvx6cgneXc9/7I6LNmxy6Y72P319jJpfNWoDkb&#xA;VEhYghWYFyCe/VQfuzjsnb+Q8ogD5/j5Pe4ux4R3JJ+xgd7oGrXV3LczTxyyzu0kkhJUlmNSaAUH&#xA;0ZV/KUDuQbdlHHwihyZV5Jvr7QLeS1Ecdys8nqFV5Bq0C0DfR/Lk8Xa5iajG/vcXU6IZNyapl15M&#xA;bx1kkQAqKLGTUAnr/nTNpkmZ7kODihwCgghayu/qSuAw+yE2oB0ocq4d7buIVSB1vTvLOoSs+q2s&#xA;AkWivct+6ZidwWkUqa/FTc5OR4zy3WGplgjfFwx8+Q+aW2+k/lfp0wuLmO2dVH2DM8/0+mXev3ZZ&#xA;iwi94uPqu3qh/exHuq/s3ZXp3n7ydcGK2tbwI5pHDB6Uieyqo48flTNjToIdpYZnaW596OlkMkjO&#xA;e/T5ZeBTORsqZNPvA+/CxbxV2KuxV2KqNy1DEPFxko9WMuitkWSV+YPLWi+YLE2eq2yzx9Y36SRt&#xA;/MjjdTk8eWUDYZxmYmw8M87flDrmhM91pofU9L68kWs8Y/4sReo/yl+mmbXBq4z2Oxc3HnEuexYv&#xA;beT/ADVcSenFpN3ypX44nQfe4UZkHLHvDZLLEcyih+X3nMzGL9FShx1JKBd/8otx/HMfJr8MPqkG&#xA;zGOMXHcPovyxcR6Z5a0vT7lme5tLWGGbiKgMiAFQSeg6ZzWfW4zMkdSj8pMli975YOo+YbzVL+UN&#xA;DPJWKBKg+mgCoGPb4RvT781uXLxGw9Bp9V4WEQiNx1TYWFmsPopCiRgUChVoPoIIym3HOWRNkp1a&#xA;uWt0qxZgOLMaVJHc0oN8uibDizG7CfzX8hjzHpH12ySusWCloQOssfVoj79199u+Zuk1HBKj9JYF&#xA;kX5FXbXH5aaaj/btnuIDXrtMzAfQGAzOy/U6/OPUz/K2l2KuIqCPHFXmXnbyMdcuLeVJxbPFyXmV&#xA;58lahA6joa5tMOu8GBNW85r+x/zc4ji4T31aWaV+U+l28qyahcvecd/SVfSQnwNCzH6CMxM/b2SQ&#xA;qA4ftcnR+x2GBvLIz8vpH6T9zNktbZIEt1iQQRgKkQUcQB0AHTNDk9f1eq+96/FEYwBD0gdzQs7M&#xA;GogjB/1F/plP5fH/ADR8g2+JLvK4W9uOkSD5KMkMUB0COM968Ko6AD5ZMABjalNd2kH99NHF/rsF&#xA;/WckASwlkjHmQEk1Xz35b0/4TdLcy1AKW/7wKCaVZlqoA7719smMMj0cHP2rp8ZAMr926rWO6hLO&#xA;VmjnHI90ZWHbxFMxLIPm7aozjXOJHzDC9e8oXMEj3GnxmW2NWaMbsnf6Rm10uU5BVbh4TtnsbwJc&#xA;WPeB6dR+sJn+Weg+tcvq86/u4Kx21e8hHxN/sQfx9szIhxey9PZ4z05PScm71TnaiqO7MoH31wxC&#xA;JFUwJdirsVdiqA1K4SJ1LuEC78mIAqfnkxIRFk01zO6621SCZa8lYfzoQw/DAAJbxNpE+9Fo6OKq&#xA;QR7ZEimYNrsVUrv/AHnf6P15KHNjk5JJP9ofLNV2oP3g9zuOyD+7P9ZRllihjMsrrHGv2nYhVHzJ&#xA;zW07cCzQS8+ZNAD8P0hBXx5in39MPCW38vk/mlfLr+iRRGV7+DgO6yKxPyCkk/RjwlAwTJqixjyh&#xA;+Y6aj5/vdKZiun3MQj04MAD6sFS3/IyrfcM2UtLw4RLr1+LiZNpEdz07MRg35G0pdNt9VijFIJtR&#xA;luIVHQCaON3A9vULdM2eOVxHudfqPqZJkmh2KuJABJNAOpxV5D5589tMZtP0SSiqx5XqnclT0j9v&#xA;8rvmJn1n8MXZaPs2jxz+AZD5e8yWOraVFd+qkcwUC6iLAFJAPiBB7dx7ZiW5E4EGkS2u6MpIF5E7&#xA;A8SsbCRq+FE5GuVzzRjzKjHI9EFL5ss6kW8Es5HcLxX7zv8AhmLPtGA5bt0dLI80JL5h1iX+6iit&#xA;1P8AMTI34UGYk+05dA3R0g6oK4ub+RGe6vZCiglgh9NaDxC5inVZchq+bZKGPHEyPIbvP7sRXF1L&#xA;OUBMjE/Fuaduvtna6fF4cBHuD5BrdXLPmlkP8R+zp9ijDweLoOLE7e1SMucY82VeR9fMMo0W7eqm&#xA;psZG+8x/0/2s1+rw/wAQew9nu07/AHMz/V/V+p6JawlyqDvuxza6XGMeId7PWZTlynuGyaW9vBbx&#xA;CKBBHGCSFUUFWJY/eThYxiIigp399a2FpLd3TiOCIcmY/qHiT2wMcmQQiZHkGL+VfNp1vUbiOcCM&#xA;o3O2jHaI7UPiQaVPvhhKwQ4Gk1niyN/D3Mwxdk7FXYqluu6qbC15xPEJ61EUlSWXoaBTXMTV6jw4&#xA;2CL83L0mnGSW4PD5MG1S7utRuDPO+/7CAUVR4AZzupnLMbkXPn2QCPTLfzS5oLhCXhLRzAfDIh4n&#xA;7xTMeHHA2NnXz7OzA1w2lF35989eWLkSXccep6XKxMZf93Kld/T9VNtvFlNc7bszPHUQo/3g5+fm&#xA;zl2fIRBI4Smjf85B6YtuOGmXb3NN429MID/xkDMf+FzN/Jm2gaWfektz+fuvSt+60mFIu6SSs5P0&#xA;qEH4ZbHR0zOjsblQ8tav568++a7e3N1JZaajI97HZFoo44ENSC9SxaSlBU9e1Mq1GmxQHHIAy6W5&#xA;OMeFCgXof5uagog0/R49vVc3Myjb4IxxWv8ArEn7s5/UGhQd52Bh4pyyHps889OOlOIp8hmE9XTQ&#xA;iiBqEAPjTG1p54s08dwl1BI0NxE4kilQkMrA1BBHgc6fhFU8STZt7H5D/N+/1S7tNF1LT3uNSuXW&#xA;GC5tuIV2P7UqMRwAG7Mtf9XNZm0FbxOzEyoWXutrbR20Cwx/ZBJ+liWY/eclEUKdZOXEbVcLF2Ks&#xA;M/NXVrix8vJbwEo19J6Ujj/fYUsw/wBlsPlXMbVTIjXe5/Z+MSnZ6PGgCSABUnYAZrHeEp/o/wCX&#xA;dzqEgmvENtE2/Hf1G/2P7P05sMGhnLeXpH2up1XasIbQ9UvsZpb+T9Ms7VYrCJbeeJ+YkarlmFPt&#xA;EmvbtmN2lpAZR4duHf3+9jodXKcSZb3t7vcjdS0pZozLCgW46so6N4/Tmu1miExxRHq+9zcOfhNH&#xA;kk5sL0dYH+hSf1ZqDpsn80/JzfFj3hjvmDVIFs2t4ZVeWU8XCkHio+1Wn3ZteydBPxeKcSBHv73l&#xA;vaPtfENOceOQlKexo3Q68vkxSR1RC7dBnVPngFqFg9YmHgf15VjyCRIHR2Wv7Onp4QlL/KA7d1f2&#xA;hWlQsAVYpIhDRuNiGHQ5YRbroTMTYexeTtftNYtjKlEukULcW5PxI21f9iexzKMwYvTaTMMgvqyG&#xA;WWOKNpZWCRoCzuxoABuSScg5hNPIfN3nA69cenasRpsDFY1O3Nh/uwj5H4a5UZW852hqTkND6Uq0&#xA;fUpNN1KC8Sp9NvjUd1OzD7sQaNuJgy+HMSeuaJ5q0rV/UW0Zy8IUyBl4/ar0+7Bkzxjzes0WSOos&#xA;QPJNPrC+Byk6yPcXYjQS7wta6VVLEUUCpJNAAMgdb5MvyHfJgGpajJqF29y3Rto18EHQZps+Y5Jc&#xA;Rd3psMccAAhcpb3Yqpzx280TRTqkkTCjo4BUj3ByUJmJuJosZGPVA6b+V/krVGuHubp9O48fT9OZ&#xA;FUk1rtKH/A50Wh7ay0RMxPvdVrDCFcNbo61/KT8r7WT1LrWnugp3ia5gVT7ERqH+45mS7a7jEOF4&#xA;97BmFj5g/Lvy7p31bTrm1t7ZBX0rasjMfE8eTMx8WOYmTU8RuRtzI9naiZ+k/HZ5lr+uSa9rdxqZ&#xA;UpCwEVrG3VYk6V9ydz75rss+IvYdn6TwMQj16+9BZU5zsVecSIUkZD1UlT9BpnTxNi3ipRokJ15J&#xA;8xf4c81adrJT1EtJayoKVMcimOTjXvwc098E42KaskeIU+vrO8tb20hu7WRZra4RZYZV3VkcVUj5&#xA;jMAh1pFK2KHYql2vaPpuq6c9tqEXqwg813KsrjoVYdDvkZYxPYs4ZpYzxRY1pfk/SNPbnFCok/34&#xA;au30M3T6Mvx4ccPpG7j5tVly7Slt3BO44kjFEFMsJtoApJdW1dLJ/V9NpVdqFU6gAbsM1na2eOKM&#xA;b+on7PxTsuyscpzlX019qHg816NIQrSNCx7SKR+I5DNRHXYz1p3B08wq6tfxnQ764tJVkZIJCrIw&#xA;NDxO+3hmbhlGRFG3X68yhgmRzET9zxzNs+YoK6aSZlRATGWKhuxYUJ39q5janLwiu96b2c7NGbLx&#xA;y+mH39EZFEsUQjX5k965g4c3Abev7X7LGsxiN8Momwea6hzYQ1MJdaeF1Xs9q8O/Dxj+jv8AZz+x&#xA;Us7u7sL2K+spPRu4T8D9QQeqsO4OXguqx5J4pdxCZeZPO3mDWrI2tx6VtaAVljg5VlYbgMWJPGvb&#xA;CZFzM2vnlHCjfIvlR9Y8q66yxk3kLwyWe25aNXLIP9dWp86ZWJA8nKx9nzlimJAiWxF/H72OEEGh&#xA;2I6jJujZr+XEbwz3k8wMcTIqqzAgMak/DXr0zD1UhQD1fs1hmJTkQaoM4F7EzUjDSH/JH9aZh29b&#xA;SV+a5bxdLIiWkTnjcHqQpHTbsehyjWWIek+91+slPgO1Bg6QSBgtu7KWNAi7gk+AzWRlLkHXYtRk&#xA;h9JIeh+S/K1sIJpdTUXVywACOBwRT2AH7Xv92dFp+z+CIOTeR6dzk49ZkndyLzu406OOeSNmZjGz&#xA;LWvgaZzsiQSHBkSTup/UoPf78jxFjTYtLf8Alr9Jx4iqN0rS4rq9WJYwQFeR6ivwxqXPX/Vy/TQM&#xA;8gDkaWN5Y/1gxURRDoij6Bm0t9VpfirsVdirBdcg9HVbhezNzH+z+L+OdBpJ8WMPJ67Hw5pD4/NA&#xA;ZkOI9y/5x987zyGXyneNyWNWuNNkJ+yAayRb/Pmv+yzHzY/4g4epiAb6l7dmM4rsVYz5g86eXtN1&#xA;y20G/u1tby6h+sQ+r8EbjmUC8z8PKqnY5fixSI4g4ufPESESd0aCCKjcHocLFiHl3zkms6n5kijc&#xA;G20y5S1tyPBUIkbw3kVqe2XZICERI7CrLRiymcjEd9BDXlybicv+yNkHtnnnaOtOoymXTkPc9xod&#xA;KMGMR69feh2RGFGUMPAiuYLmKElhbtXiDGSCCVNKg7EUyUckomwWMoCQoiwkt35QgkJMbFa9eLFf&#xA;wPIZs8XbGaPM373Raj2a0mQ2AYf1T+ux8mUaf5CGo+SI7Sz9Nb60upJYnf8Aa5oodWYd2ou9Owzb&#xA;6SctTiMj9XF+gIx48eimIRHo4fjfe85uzHa3k1pLIhlgdo5CpqvJTQ0bod8MtPMdG6HbWllIjjAI&#xA;79lqsrCqkEexrlRiRzdhjzQmLiRL3G28lDJKPItOp0OHOKyREvv+fN1MZ5JS5ljpdBh04rHER+/5&#xA;83pf5MPqIGowlg1gpWRiVAb1n2FD4cE3GZulkTdfS67V4OAXI8U5Hn+xksvl7RzfTXa2sSzSOWLr&#xA;GgNSetaZswBVU6HwYifEBR71raSityVQ4/lO2US0mOXk50Ndlj/SXgiP4WQx+AptmPPQyH07uVDt&#xA;CB+qw23pupVqMrCjKdwQfEZiywyGxDlDLCQ5gpdZ+XtOS9M9vHxI8TVV91B75maTs+GI8ZHq6eTo&#xA;85gZVDkyfTQscnprspH4jMzJuyxbGnj1zIJbiWQdHdm+81zh5myS0FTyKuxVOfKU7x6wIVj9T61F&#xA;JAw7gMtar7/DmboJ1lHns36aXDkB82C5sH1Vqv44REmz3MZTAIB68vv/AEN4GTsVY55lsPWuYpkI&#xA;5ceL/Qaj9edH2RpZSxknYXs8R7R9pRx5hGFSlXq8u5J0008iGalKV+nNuNHHq81PtfKeVBOvL95L&#xA;oeqWupWZpcWsiyKelQOq/JhscvOCJiY9C4J1EzPiJsvrW3njngjnj/u5VV0rsaMKjOWIo07wG1+B&#xA;L5r/AOclQG882IO4/RkX/URPm57O/uz7/wBTzna5rKP6v6S8403zX5n0tPT07V7y1iXZYY5ZPT2/&#xA;yK8fwzKliieYcKOeceRTDyd5m8waO93Fp0qrHeJ/pIkHI/DWhG+zHl1wZdNHLExlyqm7R55Qncfe&#xA;9Z0HzXperQoFlWG8pSS1c0YN341pyHyzzDtLsbPpZGwZQ6SHL49z6Vou08WeIo1Lu/HNOs1DsUJq&#xA;Or6bpsRkvbhIRSoUn4j/AKqj4j9GZWl0WbPKscTL7vnycfUarHhFzkAw1PzKB1lWeFk0cgx9Kycq&#xA;/wB4f+aRnWS9kyNPsbz8/L+r+154e0IObcfuvt9/7GbRfmLaW/lq4h0icS3N1IRHKtR6YKgO1DQh&#xA;ulP7Mq7L0mbAJQyx4d7cH2g7Wx0PClciPkwBoIW+0gJ8aZtXhuIqZsoOoBU+IOAgM45ZRNguEEy/&#xA;Ymb5N8WVS08D0dng7c1WPlM/Hf77c8t3GhZgjAdxUHKTo497tsftZmqjGJPx/W9Y/I6/E+j6nbMP&#xA;3sVysrN/kyxhVH0ekcvhARFBt0WtnqOIzNm/wB8lnkv8xrTXL270y+ZLbVYZ5RAlQFmi5njw3+0q&#xA;7EfT402mfTGABHJhjzCRI6s0zGbXEAih3GKqTWkDfs0PttkhMsTAKiIqKFUUAyJNsgKYbd/mXYDz&#xA;RHoel8bspDdSXlwG+ANDbSSLEjDqxZRU9unXpPPgMcEpnoGsZhx0PP7mFHVLEakummUfXGjMoj/y&#xA;Qaff7Zw400/D8SvRdMfEHFw9UXlDN2KqltczWtxHcQMUmiYOjDsRkoTMSCOYUGmO3ym3uGUofTJq&#xA;hG4oe30Z1eh0P5rHx45C+oPQvU4va+ENssDffGjfwNfeh0k9R0AB67n57ZuNN2OYCYkQRIUP1uu7&#xA;Q9qY5TilCJjLHLiN+6iAfiei9luAxCx1p0Ndsrh2AP4p/Y3ZfbY/wYwPfK/0D72hDOwqzBVrxIHX&#xA;rTNhh7KwY964j5/inSav2l1eYVxcA/o7fbz+1DavBGtiCo3jk3Pc1rmyDooHdj7j95TpyUivuOn6&#xA;8S3Nhn2BQkn+Wh/tw2r640m3a20qyt2FGhgijINdiqAd/lnJZDcifN6GAoAIrIMny1+d93f6x+YN&#xA;80NtLJbWCR2cLqjEH0wWelB/v13zeaOo4xvzeY7R4p5jQNDZgS6VqgUf6HPXv+7f+mZXHHvcE45X&#xA;yKb6Rpl/FDJI1pNzc0A9N+g+jxyyGSI6uXpsUgLpFvpN48iqbaXYEuwRtz92EyieocnhPcqR2GsB&#xA;aIbpFBICgOOmUnBhJsiP2NoyZByMvtU/0Nd+oC8Ezsaklkb+mWjgG1hrIkUVFpN7MyxfVpAp61Rq&#xA;AfdjlzwhEm2udxF0U9g0+WCJYo4HVFFAOJ/pnNTmZEkuplCcjZB+S/6rdf75f/gT/TIMfCn3H5O+&#xA;q3X++X/4E/0xXwp9x+Tvqtz/AL5f/gT/AExXwp9x+SFvI7rgY0gkJPUhGoB92JZwwT50WX/lDqNx&#xA;peqamk6vFDLZvKocEK0sB5KN6b8WbGMbIDuOyzKEyCNiPueaTaXqDyCZIZknU8lkCuDUGta0rXOq&#xA;kYnqF4ZdzMtC/NHz3pSLBf2TarAuweRXWag/4tUGvzZSc1+TS4zyNORDNMcxbKYPzptSn7/Qb+N/&#xA;BAHH3nh+rMc6T+kG4Z/IqF5+dUoUix8vXUjdjMSgH0Kj/rwx0Y6yCDnPQMM8w+dvP/mBHgkR7Gxf&#xA;Zre3jdAw8GY1dvcVp7Zl4tPjju0TyTkkVpb6npqyXFrDMlwsUoSQRsSC8bL0p/lZfmhjnAwlRBaT&#xA;xR3A3Y39X8wfWxe+ndG8DBxcFHL8h3qRmN+Xw+H4dDg7nX3k4uKjbN9G86XhRYtX064ikAobmKJ2&#xA;RvdlAqPornJaz2fMTeIgjuP63aYtWT9QLJoNQs505xyCh7MCh/4FgDmlnoc0TRhL5X9zliYK281S&#xA;ztIjJIxenRIlaRz8lQE5LF2fnyGhE/Hb71lkADFtO1rVdS8xSF7OaCyki9OCN42BqhLBmNOpBOd3&#xA;2PoxpcfCSDI7l1ObJLJPkaTtLW6NqAIn5gbAqeqn+zNx4ke8I4JXyK/hcAb28vy4E/qx4494R4cu&#xA;5b9VuhGSYm5MwNAp23GPiR7wvBLuKE1myuDZsUhkLFlqArH8MRkj3hlCEr5MdksL7kh+rS7N/I3c&#xA;H2wnJHvDfwHuRFta3sNzFKbWVhG6uV4NvxNadMZTiRzCiJB5Pq1L2zdFdZkKsAQeQ6HOTIegtcLm&#xA;2JAEqEnYAMMCXmNt9Z+rxfWuH1niPW9OvDnT4uPLelelcuNXs0xut+apgS7FXYq7FXYq7FXYq7FX&#xA;Yq7FXYq7FXYq7FXYq7FXYq7FXYq7FXYq7FXYq7FXYq7FXYq7FXYq7FV8PD1U9Tlw5Dlw+1Su9PfF&#xA;L//Z</xmpGImg:image>
               </rdf:li>
            </rdf:Alt>
         </xmp:Thumbnails>
         <xmpTPg:MaxPageSize rdf:parseType="Resource">
            <stDim:w>660.466643</stDim:w>
            <stDim:h>319.724064</stDim:h>
            <stDim:unit>Pixels</stDim:unit>
         </xmpTPg:MaxPageSize>
         <xmpTPg:NPages>1</xmpTPg:NPages>
         <xmpTPg:HasVisibleTransparency>True</xmpTPg:HasVisibleTransparency>
         <xmpTPg:HasVisibleOverprint>False</xmpTPg:HasVisibleOverprint>
         <xmpTPg:PlateNames>
            <rdf:Seq>
               <rdf:li>Cyan</rdf:li>
               <rdf:li>Magenta</rdf:li>
               <rdf:li>Yellow</rdf:li>
               <rdf:li>Black</rdf:li>
            </rdf:Seq>
         </xmpTPg:PlateNames>
         <xmpTPg:SwatchGroups>
            <rdf:Seq>
               <rdf:li rdf:parseType="Resource">
                  <xmpG:groupName>Grupo de amostras padrão</xmpG:groupName>
                  <xmpG:groupType>0</xmpG:groupType>
               </rdf:li>
               <rdf:li rdf:parseType="Resource">
                  <xmpG:groupName>Grupo de colores 1</xmpG:groupName>
                  <xmpG:groupType>1</xmpG:groupType>
                  <xmpG:Colorants>
                     <rdf:Seq>
                        <rdf:li rdf:parseType="Resource">
                           <xmpG:swatchName>R=165 G=183 B=198</xmpG:swatchName>
                           <xmpG:mode>RGB</xmpG:mode>
                           <xmpG:type>PROCESS</xmpG:type>
                           <xmpG:red>165</xmpG:red>
                           <xmpG:green>183</xmpG:green>
                           <xmpG:blue>198</xmpG:blue>
                        </rdf:li>
                        <rdf:li rdf:parseType="Resource">
                           <xmpG:swatchName>R=29 G=38 B=45</xmpG:swatchName>
                           <xmpG:mode>RGB</xmpG:mode>
                           <xmpG:type>PROCESS</xmpG:type>
                           <xmpG:red>29</xmpG:red>
                           <xmpG:green>38</xmpG:green>
                           <xmpG:blue>45</xmpG:blue>
                        </rdf:li>
                        <rdf:li rdf:parseType="Resource">
                           <xmpG:swatchName>R=249 G=251 B=252</xmpG:swatchName>
                           <xmpG:mode>RGB</xmpG:mode>
                           <xmpG:type>PROCESS</xmpG:type>
                           <xmpG:red>249</xmpG:red>
                           <xmpG:green>251</xmpG:green>
                           <xmpG:blue>252</xmpG:blue>
                        </rdf:li>
                     </rdf:Seq>
                  </xmpG:Colorants>
               </rdf:li>
            </rdf:Seq>
         </xmpTPg:SwatchGroups>
         <dc:format>image/svg+xml</dc:format>
         <xmpMM:DerivedFrom rdf:parseType="Resource">
            <stRef:instanceID>xmp.iid:a6c7b3ba-ed4f-b24c-b6c6-f737bd980f14</stRef:instanceID>
            <stRef:documentID>xmp.did:a6c7b3ba-ed4f-b24c-b6c6-f737bd980f14</stRef:documentID>
            <stRef:originalDocumentID>xmp.did:a6c7b3ba-ed4f-b24c-b6c6-f737bd980f14</stRef:originalDocumentID>
         </xmpMM:DerivedFrom>
         <xmpMM:DocumentID>xmp.did:0bc2e28a-0273-e144-ae7f-d7d5f7171188</xmpMM:DocumentID>
         <xmpMM:InstanceID>xmp.iid:0bc2e28a-0273-e144-ae7f-d7d5f7171188</xmpMM:InstanceID>
         <xmpMM:OriginalDocumentID>xmp.did:a6c7b3ba-ed4f-b24c-b6c6-f737bd980f14</xmpMM:OriginalDocumentID>
         <xmpMM:History>
            <rdf:Seq>
               <rdf:li rdf:parseType="Resource">
                  <stEvt:action>saved</stEvt:action>
                  <stEvt:instanceID>xmp.iid:a6c7b3ba-ed4f-b24c-b6c6-f737bd980f14</stEvt:instanceID>
                  <stEvt:when>2020-11-29T10:13:26-03:00</stEvt:when>
                  <stEvt:softwareAgent>Adobe Illustrator 25.0 (Windows)</stEvt:softwareAgent>
                  <stEvt:changed>/</stEvt:changed>
               </rdf:li>
               <rdf:li rdf:parseType="Resource">
                  <stEvt:action>saved</stEvt:action>
                  <stEvt:instanceID>xmp.iid:0bc2e28a-0273-e144-ae7f-d7d5f7171188</stEvt:instanceID>
                  <stEvt:when>2020-11-29T16:37:52-03:00</stEvt:when>
                  <stEvt:softwareAgent>Adobe Illustrator 25.0 (Windows)</stEvt:softwareAgent>
                  <stEvt:changed>/</stEvt:changed>
               </rdf:li>
            </rdf:Seq>
         </xmpMM:History>
      </rdf:Description>
   </rdf:RDF>
</x:xmpmeta>
                                                                                                    
                                                                                                    
                                                                                                    
                                                                                                    
                                                                                                    
                                                                                                    
                                                                                                    
                                                                                                    
                                                                                                    
                                                                                                    
                                                                                                    
                                                                                                    
                                                                                                    
                                                                                                    
                                                                                                    
                                                                                                    
                                                                                                    
                                                                                                    
                                                                                                    
                                                                                                    
                           
<?xpacket end="w"?>
	</metadata>
<g id="XMLID_236_">
	<path id="XMLID_33_" style="fill:#D6594C;" d="M230.2,76.2c0,0,6.9-2.1,13.3,3.1c6.4,5.1,9.9,15.5,7.7,23.7
		c-2.2,8.3-9.3,12.6-9.3,12.6L230.2,76.2z"/>
	<path id="XMLID_32_" style="fill:#08668D;" d="M10.5,260.7c-1.9,4.6-2.8,11.4-2.3,18.9c0.5,7.5,0.3,11.6-2,19.1
		C3.9,306.2,0,319.7,0,319.7h68.2v-79.2c0,0-18.8-4.2-32.6,3C21.8,250.8,10.5,260.7,10.5,260.7z"/>
	<path id="XMLID_182_" style="fill:#0B597F;" d="M35.6,243.5c-13.8,7.2-25.1,17.2-25.1,17.2c-0.6,1.4-1.1,3.1-1.5,5
		c0.1,0.2,5.7,7.2,18.1,10.3c12.6,3.2,15.3,2.1,15.3,2.1l6.8-18.6l1.5,20c0,0,9.1,1.8,17.4,1.9v-40.9
		C68.2,240.5,49.4,236.3,35.6,243.5z"/>
	<path id="XMLID_31_" style="fill:#19313A;" d="M90,12.9c0,0,12.7-6.1,21.3,5.8c8.6,11.9,2.1,27-7.7,28.6S90,12.9,90,12.9z"/>
	<path id="XMLID_30_" style="fill:#FFDBC2;" d="M101.5,29.8c1.4,4.8,3.2,18.8,1.8,30.5c-1.4,11.7-10,27.8-14.9,31
		c-5,3.2-13.2-1-13.2-1s-1.1,3-1.6,5.6c-0.6,2.9,2.5,6.8,7,12.9c1.7,2.3,4.5,6.7,7,13.1c0,0-36.5-9-43-30.7c0,0,4.2-6.2,6.2-16.7
		c0,0-9.9-10.1-11.3-21.3C37.9,42.1,41.6,29,53.6,18.9S91.4,6.3,101.5,29.8z"/>
	<path id="XMLID_251_" style="fill:#EDC1A4;" d="M57,85.7c3.5,4.2,14,8.1,16.8,9.1c0.6-2.3,1.4-4.4,1.4-4.4
		c-4.8-1.7-14.6-7.5-17.1-12.1c-2.5-4.6-2-14.6-2-14.6s-1.3,1.5-2.3,6.3C52.7,74.7,52.9,80.9,57,85.7z"/>
	<path id="XMLID_29_" style="fill:#19313A;" d="M49.9,77.8c2.3-2.9,3.3-5,3.8-6.3c1.8-4.3,2.1-6.6,2.3-7.9
		c-2.6,0.8-9.2-1.4-10.6-7.5c-1.6-6.6-0.4-10,2.1-12c2.6-2,6.6-2.1,9.3,2c2.4,3.6,1.7,6.5,3.1,7.1c1.5,0.6,6.6-4.4,7-13.3
		c0,0,7.6,5.2,14.3,0c6.8-5.2,4.4-12.1,4.4-12.1s2.4,5.2,8.6,5.6c6.3,0.4,7.2-3.6,7.2-3.6s2-8-5.8-13.7c0,0,0.7-11.7-12.8-15.1
		C68.5-2.6,56.1,4.1,53.7,14.2c0,0-11.1-1.4-16,7.2c-5.8,10.4-3.7,19.9-0.6,31.4c2.4,9,6,17.6,7.9,20.9
		C47.7,78.3,49.9,77.8,49.9,77.8z"/>
	<path id="XMLID_28_" style="fill:#DEF1F8;" d="M46.7,87c-1.6,3.1-10.1,6.2-15.7,9.8c-5.6,3.6-18.8,16.5-15,42.3
		c3.8,25.9,9.3,72.1,8.7,80.7c-0.6,8.6-2.5,14-7.3,23.8c-4.8,9.8-7.9,16.1-7.9,16.1s7.3,10,31.1,12.1l9.2-23.2l2.1,25.3
		c0,0,29.5,4.5,40.6,0.7c0,0,7-102.1,5.2-120c-3.3-32.5-21.2-51.1-21.2-51.1s-9.1,1-15.8-2.7C49.2,94.2,46.7,87,46.7,87z"/>
	<path id="XMLID_181_" style="opacity:0.37;fill:#90C8EE;" d="M96.9,197.9l-24.5-19.5l-25-32.5L41,112l-19-5.8
		c-4.5,7-8.2,17.7-5.9,32.9c0.3,2.2,0.7,4.5,1,6.9c2.8,11.7,6.3,24.6,9.6,32.8c0,0,1.4,0.6,4.4,0l6.4,15l-12.8,21.8
		c0.1,1.8,0.1,3.3,0,4.2c-0.5,7.3-2,12.3-5.4,19.7c8.8,1.9,37.8-14.2,44.9-18.7c0,0,0.4,3.1,2.1,6c1.7,2.9,0.1,6.7,1.9,8.7
		c1.8,2-16.7,34.1-16.7,34.1l0.4,4.2c0,0,29.5,4.5,40.6,0.7C92.5,274.5,95.3,232.7,96.9,197.9z"/>
	<path id="XMLID_27_" style="fill:#3F292D;" d="M147.1,75.9c0,0,7-1.7,12.5,3.7c6.6,6.5,8.9,25-5.6,32.5c0,0-7.4-9.5-9.1-18.2
		C143.2,85.1,147.1,75.9,147.1,75.9z"/>
	<path id="XMLID_26_" style="fill:#4477BB;" d="M149.5,269.1l7,50.7H45.7c0,0,3.3-28.1,17.2-51.4L149.5,269.1z"/>
	<path id="XMLID_151_" style="fill:#35679E;" d="M68.2,319.7c0,0,2.8-25.1,12-38.3h3.8c0,0-9.2,12-12.5,38.3H68.2z"/>
	<path id="XMLID_183_" style="fill:#35679E;" d="M149.5,269.1l-86.5-0.7c-1.6,2.8-3.1,5.6-4.5,8.4c0,0.1,0.8,13.2,22.5,18.8
		c21.9,5.6,38.9,1,52.1-10.9c0,0,8.3,9.9,19.8,9.4L149.5,269.1z"/>
	<path id="XMLID_25_" style="fill:#C17A61;" d="M72.7,162.6c-5.9,4.5-41.3,32.3-50.7,41.3c-9.4,9.1-12.1,19.8-8.5,24.9
		c3.6,5.1,7.7,5.6,16.2,2c8.5-3.6,42.3-23.3,42.3-23.3s2.1-3.2,3.3-16.9C76.5,177.1,72.7,162.6,72.7,162.6z"/>
	<path id="XMLID_23_" style="fill:#AA6552;" d="M75.3,190.7c0.3-4,0.3-8,0-11.8c-5.8-1.1-13.5-2.6-19-3.6
		c-6.3,5-13.4,10.7-19.6,15.9c1.9,6.7,7.8,18.6,12.3,20.3c3.1,1.1,12.8-0.3,18.4-1.2c2.9-1.7,4.7-2.7,4.7-2.7S74.1,204.4,75.3,190.7
		z"/>
	<path id="XMLID_22_" style="fill:#C17A61;" d="M141.4,155.1c-6.8-1-9.2-1.9-9.6-2.8c-0.4-0.9,0.2-9.6,1.8-12.3c0,0,4.2,2,8.9,1.5
		c4.8-0.5,6.7-3.6,9.4-12.9c2.7-9.3,2.9-31.6,1.4-38.2s-19.2-18.9-38.2-11.1c-19,7.8-22.1,35.9-19,44.6c3.1,8.7,10.7,14.5,10.7,17.2
		c0,2.7,0.4,7.9-2.7,9.4c-3.1,1.5-11.8,3.4-11.8,3.4s0.6,6.6,22.7,8.8C137.3,164.7,141.4,155.1,141.4,155.1z"/>
	<path id="XMLID_21_" style="fill:#F9B354;" d="M135.5,153.8c0,0-8.2,5.6-22.4,4.1c-14.3-1.6-13.3-5.9-13.3-5.9s-9.7,1.5-13.4,2.5
		c-7.3,2-11.5,3.4-13.6,8c-1.4,3.1-4,27.2-1.7,39.4l2.4,13.1c0,0,4,14.6,3.1,21.7c-0.9,7.1-16.8,30.5-16.8,30.5s-1,19.2,30,22.5
		c31,3.3,45.9-18.2,45.9-18.2c4.5,15.5,19.2,13,19.2,13c-3.3-9.3-4.8-37.4-3.6-47.2c1.2-9.8,12.8-71.7,9.1-74.8
		C153.1,156.5,142.3,154.8,135.5,153.8"/>
	<path id="XMLID_20_" style="fill:#DD9845;" d="M155.8,173l-51.3,10.3l-34.1,15.3c0.1,1.2,0.3,2.4,0.5,3.4l1.4,7.7
		c5.1-1.3,17.5-5,30.1-8c17.3-4.1,37.6-9.5,46.4-11.6l10.9-10c0.2-2,0.4-3.8,0.6-5.6L155.8,173z"/>
	<path id="XMLID_19_" style="fill:#DD9845;" d="M125.2,236.4l-27.6-5.3l-11.9-14.7L80,205.9c-2.1,2.3-2.1,6.1-1.2,9.3
		c0.9,3.2,4.2,9.5,4.2,9.5l-6.5,8.2c0.1,1.4,0,2.8-0.1,3.9c-0.2,1.3-0.8,3.1-1.8,5.3c1.7,1.2,5.8,3.7,10.7,4.6
		c6.5,1.1,21.6,3.4,37.3,9.3c15.7,5.9,21.4,6.3,24.1,5.4c1.2-0.4,2.8-2.1,4.3-3.8c-0.4-8.1-0.4-15.8,0.1-20.1
		c0.1-0.6,0.2-1.4,0.3-2.4l-0.1-0.5L125.2,236.4z"/>
	<path id="XMLID_18_" style="fill:#FFDBC2;" d="M126,224.9c-4.1-0.2-21.2-0.9-23.7-1.3c-2.5-0.4-3.7-1.5-4.5-3.4
		c-0.8-1.8-1.8-4.8-4.7-6.8c-2.9-2-6.2-3.4-7.4-5.1c-1.2-1.8-1.8-5.2-4.4-4.1c-2.5,1.1-1.5,5.7-0.6,7.8c0.9,2.1,3.7,5.9,3.9,6.7
		c0.2,0.8-0.8,1.1-2.9,0.5c-2.1-0.6-8.4-4.1-8.4-4.1l-0.6-3.2c0,0-2.6-0.4-3.8,2.1c-1.2,2.5-0.8,5,0,6.6c0.8,1.5-0.2,3.4,1.3,5.7
		c1.5,2.3,2.3,2.5,2.6,4.1c0.3,1.5,1.3,5,4.5,7.1s8.9,2.7,15.2,3.7c6.3,1,30.1,8.4,30.1,8.4s2-2.4,3.4-9
		C127.9,231.5,126,224.9,126,224.9z"/>
	<path id="XMLID_17_" style="fill:#3F292D;" d="M153.7,91.9c-1.1,4.1-4.2,7.7-7.8,10.4c-3.5,2.7-4,4.5-4.9,8.3c-1,3.8-3,6.3-4.9,6
		c-1.9-0.3-1.1-4.1-2.5-6.7s-3.8-6.5-9-4.6c-5.2,1.9-4.4,12.3-1.3,15.7c3.2,3.4,5.5,3.4,7.3,2.6c1.8-0.8,2.7,0.5,2.3,2.7
		c-0.4,2.2-1.1,8.9-6.2,12.8c-5.2,3.8-18.1,2.3-20,0.9c-1.9-1.4-6.5-4.2-10.8-9.1c-4.2-4.9-7.1-10.4-7.5-18c-0.5-8.8,1.1-19.3,4-22
		l17.8-20c0,0,4.8-8,18.6-7.1c13.8,1,18.3,12.1,18.3,12.1S157.8,84.9,153.7,91.9z"/>
	
		<ellipse id="XMLID_12_" transform="matrix(0.6814 -0.7319 0.7319 0.6814 -27.6451 95.537)" style="fill:#3F292D;" cx="95.9" cy="79.5" rx="19.3" ry="15.3"/>
	<path id="XMLID_11_" style="fill:#FFDBC2;" d="M252.5,162.6c-7.8-1.2-14.4-1.3-22.3-2.6c-7.8-1.3-11.6-2.1-10.8-9.5
		c0.8-7.4,1.6-12.3,1.6-12.3l-25.2-1.4c0,0-1.2,11.9-1.8,14.7c-0.6,2.7-0.8,2.7-6.6,3.7c-5.9,1-18,3.4-18,3.4s1.6,6.6,33.7,12.5
		C235.1,176.8,252.5,162.6,252.5,162.6z"/>
	<path id="XMLID_10_" style="fill:#3CB28E;" d="M227.7,159.5c0,0,18.6,2.2,24.8,3.1c6.2,0.9,11.3,2.7,16.5,15.4
		c0,0-13.3,37.2-12.2,43c1.5,8.4-1.8,32.2-2.8,37.7c-1,5.5,0.9,18,4.6,36c3.8,18,5.5,25,5.5,25H131.7c0,0,9.8-18.4,23-35.2
		s22.8-31.5,24.3-36.3c1.5-4.8-6.3-31.9-6.3-31.9s-21.6,32.4-24.2,36c-2.6,3.6-3.9,3.3-10.8,1.5c-6.9-1.7-15.1-4.5-15.1-4.5
		s-3.1-5.7-1.2-14c1.9-8.3,4.6-10.6,4.6-10.6s3.5,0.1,4.9,0.1s3.8-0.2,5.8-5c2.1-4.8,16.4-40.8,20.4-49.2c3.9-8.4,6.6-13,14.9-14.4
		c8.4-1.4,15.4-1.4,15.4-1.4s4.5,6.9,17.7,8.3C218.2,164.7,227.7,159.5,227.7,159.5z"/>
	<path id="XMLID_44_" style="fill:#349977;" d="M253.6,263.9L253.6,263.9l-10.5,15.6c1.5,8.4,2.9,19.9-12.2,28.1
		c-15.1,8.2-72.3,12.1-72.3,12.1H264c0,0-1.7-7-5.5-25C255.7,281,253.9,270.6,253.6,263.9z"/>
	<path id="XMLID_24_" style="fill:#349977;" d="M259.2,208.2l-11.3,3.7l-25.8-12.9c0,0-25.6-31.9-25.9-32.3
		c-0.3-0.4-11.5-4.3-11.5-4.3l-27.6,8.2c0,0,0,0,0,0.1c-1.5,3.2-4.9,11.3-8.1,19.2c3.4-0.8,13.7-2.1,18.2-2.4
		c6.1-0.4,12.9-5.6,12.9-5.6s21.8,33,30.4,41.8c8.6,8.8,14.3,16.4,22.5,16.8c8.2,0.4,14.1-9.8,20.9-15.5l3-3.3
		c0-0.3-0.1-0.6-0.1-0.8C256.4,219.2,257.5,214.2,259.2,208.2L259.2,208.2z"/>
	<path id="XMLID_255_" style="fill:#349977;" d="M241.8,253.9l3.7,8.9l9.3,11.7v0c-1.1-7.3-1.5-12.7-0.9-15.8c0.9-5,3.7-25.1,3.1-35
		l-0.1-0.5l-7.5-15c0,0-1.3,15.5-2.9,26.1C245.4,241.9,241.8,253.9,241.8,253.9z"/>
	<path id="XMLID_206_" style="fill:#349977;" d="M237.1,263.9l-61.4-9.2c-2.3,3.9-5.6,8.9-9.7,14.6c5.6,0.8,28.9,4.3,46.8,7.4
		c20.5,3.6,28.8,6.3,35,4.7c6.3-1.6,5.2-4.8,6.9-7l0,0c-0.6-4.2-1-7.7-1.1-10.6C249.7,264.3,237.1,263.9,237.1,263.9z"/>
	<path id="XMLID_9_" style="fill:#FFDBC2;" d="M240,91.1c2.9,8.5,4.9,27.6,2.2,37.5c-2.7,9.8-5.8,11.4-9.8,11.4
		c-4,0-17.8-2.3-17.8-2.3l-18.8-1c0,0,0.4-4.3-2.8-6.7c-3.3-2.4-16.7-18.4-7.6-38.9s31.6-22.2,41.6-14.5
		C236.9,84.2,240,91.1,240,91.1z"/>
	<path id="XMLID_55_" style="fill:#F2C5A7;" d="M232.4,140c1.7,0,3.3-0.3,4.7-1.5c-3.1,0.2-6.9-1-12.2-5.8l-5.3,1.9l-0.2,3.8
		C223.9,139.2,230,140,232.4,140z"/>
	<path id="XMLID_15_" style="fill:#D6594C;" d="M240,91.1c0-4.3-9.8-15-9.8-15s-7.8-7.6-20.5-7.8c-12.7-0.2-23.7,6.4-27.5,22.4
		c-3.8,15.9-5.6,15-8.4,20.8c-2.6,5.4-6.1,21.1,11.2,31c18.5,10.6,36.5,6.4,40.8,4.5c4.4-1.8,5.4-4.8,2.4-9.7c-2.4-4-3.3-9.1-3.5-12
		c-0.2-2.9,0.3-4.3-1.2-3.8c-1.1,0.4-3.8,0.4-6.1-3.3c-2.5-4.1-1.1-12.9,3-13.7c4.2-0.8,6.3,2.3,6.8,6.1c0.6,3.8-0.6,5.3,1.5,5.7
		c2.1,0.4,4-1.1,7-5.7C239,106.2,240.4,97.6,240,91.1z"/>
	<path id="XMLID_8_" style="fill:#4477BB;" d="M609.5,242.8c4.1,4.3,9.6,14.3,10.6,22s0.2,14.9-1.4,22.1c-1.1,4.9-1.2,9.3,0,15.3
		c1.2,6,3.8,17.5,3.8,17.5h-52.1l-9.6-67.9L609.5,242.8z"/>
	<path id="XMLID_150_" style="fill:#35679E;" d="M587.6,260c15.3-2.4,21.5-7.3,25.5-12.4c-1.2-1.9-2.5-3.6-3.6-4.8l-48.7,9l1.2,8.7
		C567.2,261.1,576.8,261.7,587.6,260z"/>
	<path id="XMLID_7_" style="fill:#724472;" d="M600.9,155c1.4,9.3,0.9,32.6-4,42.4c-4.9,9.8-4.6,14.1-1.6,19.3
		c4.2,7.3,16.9,26.1,16.9,26.1s-4.2,6.9-17.4,10.6c-13.2,3.7-35.5,2.6-35.5,2.6s-9.4-22.2-8.4-48.7c1-26.5,13.9-69.1,13.9-69.1
		s15.5-8.2,24.3-2.7C598,141,600.9,155,600.9,155z"/>
	<path id="XMLID_6_" style="fill:#673C68;" d="M601.2,177.6l-3.1-5.3l-25-22.2l-13.6,7.8c-0.6,2.2,0.9,3.4,0.4,5.8
		c2.6,8.8,6.5,24.8,9.8,27.9c4.6,4.3,17,11.7,24.9,10.5c0.9-1.9,1.1-2.3,2.3-4.8C599.2,192.8,600.5,185.3,601.2,177.6z"/>
	<path id="XMLID_118_" style="fill:#FFDBC2;" d="M580.4,109.8c0,0,2.2,10.6,2.6,12.9c0.4,2.3,1.5,5.2,3.8,5.7c0,0-1.8,7.2-8.5,9.8
		c-6.6,2.5-13.4,0-13.4,0s-1.5-4.8-2.9-7.4c-1.5-2.6-5.3-4.1-5.3-4.1L580.4,109.8z"/>
	<path id="XMLID_272_" style="fill:#EDC1A4;" d="M580.6,110.6c-0.1-0.5-0.2-0.8-0.2-0.8l-23.8,16.9c0,0,3.9,1.5,5.3,4.1
		c0,0,11.2-2.3,16-7.1C581.8,119.7,581,113,580.6,110.6z"/>
	<path id="XMLID_120_" style="fill:#19313A;" d="M563,60.3c0,0-11.3-5.7-20.4,1.4c-9.1,7.2-9,25.4-1.2,30c0,0,15.1-2.8,20.4-11.8
		C567,70.9,563,60.3,563,60.3z"/>
	<path id="XMLID_122_" style="fill:#FFDBC2;" d="M551.8,69.6c-4.7,2-8.9,9.7-10.2,20.9c-1,8.1,1,23.2,3.3,30.1s11.2,6.5,18.5,5.5
		c7.3-1,12.8-4.8,14.7-9.3s2.3-7,2.3-7s3.9,4,7.4,3.5c3.5-0.5,10.6-7.8,10.3-16c-0.3-8.2-0.8-23.5-13-27.7
		C573,65.4,551.8,69.6,551.8,69.6z"/>
	<path id="XMLID_274_" style="fill:#EDC1A4;" d="M560.7,122.7l6,2.7c1.6-0.4,3.1-1,4.4-1.7c0,0-9.2-13.4-12.1-16.4
		c-2.9-2.9-17.6-8.6-17.8-8.6c0,0.8,0.1,1.5,0.1,2.3l6.9,6.3L560.7,122.7z"/>
	<path id="XMLID_121_" style="fill:#19313A;" d="M551.8,69.6c0,0,0.2,6.1,8.9,12.3c8.8,6.2,12.6,8.6,13.4,10c0.8,1.3-1,6.5,0.2,8
		c1.2,1.5,4.3-0.1,5.8-4.1c1.5-3.8,6.3-5.8,8.9-3.8c2.4,1.8,3.6,5.1,1.5,11.2c-1.7,5.1-7.1,8.6-10.1,6.8c0,0-0.1,8.4,2.6,12.9
		c0,0,2.4-3.3,7.4-7.6c5-4.3,10.4-9.4,12-23.7c1.6-14.3-9.3-28.9-15-32.2c-5.7-3.4-18.2-4.5-24.4,1.1L551.8,69.6z"/>
	<path id="XMLID_119_" style="fill:#19313A;" d="M586.7,58.8c0,0,2.6-7.6,9.2-11.9c6.6-4.3,21.7-5.3,28.5,0
		c6.7,5.3,11.6,13.3,13.1,22.8c1.5,9.5,3.2,14.2,10.7,19.8s16.5,15.9,10.4,31.4c-6.1,15.5-24.8,15.8-28.5,15.2
		c-3.6-0.5-4.7-3.1-2.2-6.6c2.6-3.5,5.9-9.9,1.6-14.5c-4.3-4.5-7.6-6-13.6-9.8c-6.1-3.8-10.3-8.2-10-15.8c0.3-7.6,2.6-17,0.3-21.8
		c-2.3-4.9-6.9-8.6-13.8-4C592.4,63.7,587.6,63.1,586.7,58.8z"/>
	<path id="XMLID_117_" style="fill:#673C68;" d="M586.7,128.4c5.9,0,13,1.9,15.4,14.8c2.3,12.9,3.5,26,3,33.7
		c-0.5,7.6-3.5,14-3.5,14l-23.6-13.8c0,0-1.6-23.2-2.1-31.7C575.4,136.8,577.4,128.8,586.7,128.4z"/>
	<path id="XMLID_124_" style="fill:#5EA4DD;" d="M566,262.1c2,5,5.3,17.9,5.3,29.5c0,8-1,28.1-1,28.1h-89.5l-3.9-43.7
		c0,0,6.5-20.8,28-26.2C526.4,244.5,557.8,244.9,566,262.1z"/>
	<path id="XMLID_307_" style="fill:#518ECC;" d="M566,262.1c-8.2-17.2-39.6-17.6-61.1-12.2c-21.5,5.4-28,26.2-28,26.2l0.6,7.1
		c17.8,10.4,34.8,2.4,34.8,2.4l-0.7-18.5l9,17.6c29.3-0.2,41-10.5,47.1-17.1C567.2,265.3,566.6,263.4,566,262.1z"/>
	<path id="XMLID_126_" style="fill:#5B343C;" d="M489.3,34c-3.8,2.1-9.5,2.8-13.3,2.3c-3.8-0.5-5.9-3.5-8.3-1.2
		c-3,2.7-8.6,19.8,3,27.4C485.4,72.2,489.3,34,489.3,34z"/>
	<path id="XMLID_128_" style="fill:#E0A375;" d="M472.1,53.6c-1.9,6.7-2,15.4,0,27.7s5.9,23.6,9.6,25.2c2.6,1.1,7.4,1.3,11.2,0.8
		c3.7-0.4,5-0.8,5.7,5.4c0.7,6.2,24.5-0.9,27.6-5.7c0,0-2.9-11.2-2.1-14.6c0.8-3.3,5-8.1,6.2-18.3c1.2-10.2-0.2-28.5-14.1-34.7
		c-13.9-6.2-30.4-1-36.8,3.7C473.1,47.7,472.1,53.6,472.1,53.6z"/>
	<path id="XMLID_127_" style="fill:#5B343C;" d="M498.6,88.9c-0.2,1.6,2.2,5.7,3.5,8.4c1.3,2.7,4,5.4,7.1,5.6
		c3.1,0.2,11.6,0,15.3-3.6c2-1.8,2-5.5,5-12c2.9-6.6,5.1-18,3.6-27c-1.5-9-2.1-18.3-10.7-18.1c0,0-2.4-9.8-11.7-11.7
		c-9.3-1.8-16.5,0.9-23.2,4.4c-6.7,3.5-14.2,8.9-14.3,15.6c0,0,1.2,3.7,5.4,4.7c3.1,0.7,1.7,2.6,1.9,4.7c0.3,3.6,0.8,5.8,3.5,7.8
		c2.5,1.8,3.6,2,3.6,6.1c0,5.5,0.2,6.7,1.8,7.1c1.6,0.4,3.5-1.1,5.5-6.4c2-5.3,5.8-5.9,8.9-2.5c3.1,3.4,2.2,12.9,0,15.5
		C501,90.6,498.9,86.5,498.6,88.9z"/>
	<path id="XMLID_132_" style="fill:#08668D;" d="M391.6,279c-1.5,6.6-3.6,34-3.9,40.7h104.3c0,0-2.6-19.5-9.5-31.1
		c0,0-21.6-17.3-45.1-20.1C414,265.8,391.6,279,391.6,279z"/>
	<path id="XMLID_204_" style="fill:#0A5C75;" d="M391.6,279c-0.7,3-1.5,10.5-2.2,18.2h0c0,0,3.6,1,8.2-3.3c4.7-4.4,4.7-6.6,5.8-6
		c1.1,0.6,2.9,5.7,9.3,12.2c4.9,5,25.8,16.3,48.6,11.9c16.7-3.2,22.8-11.4,24.9-15.6c-1.1-2.8-2.3-5.5-3.7-7.8
		c0,0-6.9-5.5-17.2-10.8l-15.7,3l-30.3-11.6C403.7,271.9,391.6,279,391.6,279z"/>
	<path id="XMLID_135_" style="fill:#4477BB;" d="M385.2,274.8c0,0,3.8,22.5,5.2,44.9H265.6c0,0,4-35.5,6.5-52.5L385.2,274.8z"/>
	<path id="XMLID_180_" style="fill:#35679E;" d="M270.1,281.9c0,0,10.8,29.7,59.6,27.6c48.8-2.1,56.8-26.3,56.8-26.3l-1.3-8.4
		l-113.1-7.6L270.1,281.9z"/>
	<path id="XMLID_152_" style="fill:#F8C6A3;" d="M321,33.2c-8.6,0-24.7,5-24.7,28.9c0,0-1.8-3.2-4.2-1.8c-2.3,1.3-1.5,9,0,13.5
		c1.5,4.5,4.8,5.4,6.8,5.3c0,0,2.4,7.2,4.4,10.4s6.9,8,6.9,8l-0.2,13.4h30.4c0,0,0-10.1,0-15.1c0-5,7.2-16.4,7.2-16.4
		s3.3,1.3,5.5-2.9c2.6-4.7,3.7-14.2,1.4-16c-3.7-2.9-5.2,3.3-5.2,3.3s-1.7-18.8-11.6-23.4C327.8,35.6,321,33.2,321,33.2z"/>
	<path id="XMLID_149_" style="fill:#3D3360;" d="M296.2,64.8c-0.5-4.8-2.5-14.4-1.6-23.2c0.9-8.8,4.6-15.3,7.3-15.9
		c2.7-0.6,2.8,2.2,5.8,2.8c0,0-1.2-3.6,1.3-7c2.5-3.4,4.7,0.8,9.6,3.3c6,3.1,8.8,1.6,13.1,4.3c5.1,3.2,5.3,6.9,5.3,6.9
		s2.8-1.2,6.4,0.9c4.5,2.5,7.9,11.3,6.5,27.4c-1.3,14.3-4.8,25.8-9.5,31.3c-4.7,5.5-23.2,5.1-30.2,1.7c0,0-5.9-1.7-10.1-14.9
		C297.5,74.2,296.6,68,296.2,64.8z"/>
	<path id="XMLID_147_" style="fill:#DEF1F8;" d="M297.8,116.4c-3.3,1.8-9.9,5.1-17.9,6.4c-7.9,1.3-12.7,1.8-15.9,5.9
		c0,0,11.6,13,13.6,36.6c1.4,17-3.4,25.5-3.4,25.5s2.3,9.4,6.5,16.4c4.3,7.1-4.8,32.2-7.1,40.6c-2.2,8.5-4.7,20.4-4.7,20.4
		c0.8,3.2,16,32.7,57.5,32.7s59.2-25.1,60-28.5c0.8-3.4-4.2-22.8-7.2-38.9c-3-16.1-5.2-29.7-2.6-41.5c2.6-11.8,7.1-27.8,8.2-41.7
		c1.1-13.9-1.5-26.9-3.5-28.5c-2-1.6-4.5-1.3-11.5-2.8c-7.1-1.4-11.3-2.9-14.7-4.4c0,0-2-1.4-12.7-0.4c-10.6,1.1-18.4,3.8-27.9,1.6
		S300.6,114.8,297.8,116.4z"/>
	<path id="XMLID_293_" style="fill:#DEF1F8;" d="M382.5,123.6c-0.7-1.3-1.1-1.9-1.1-1.9C381.7,122,382.1,122.7,382.5,123.6z"/>
	<path id="XMLID_285_" style="opacity:0.37;fill:#90C8EE;" d="M379.2,233.5c-0.5-2.9-1.1-5.7-1.5-8.4l0,0h-83.5l-11.6-28.5
		c6-17.1,4.3-34.8,0-42.8l-6.7,0.6c0.8,3.3,1.4,6.9,1.7,10.8c1.4,17-3.4,25.5-3.4,25.5s2.3,9.4,6.5,16.4c4.3,7.1-4.8,32.2-7.1,40.6
		c-0.8,3.1-1.5,5.8-1.9,8.2c3.1,2,12.3-1.8,12.3-1.8s59.2,21.8,65.6,20.2c5.3-1.4,25.3-23,31.8-30.1
		C380.7,240.7,379.9,237,379.2,233.5z"/>
	<path id="XMLID_133_" style="fill:#FFDBC2;" d="M390.3,223.2L360.9,255c0,0-6.9,7.8-9.2,9.6c-2.3,1.8-2.8,4.1-14.8,1
		c-12-3.1-62.4-20.4-62.4-20.4s-3.5-4.3-1.1-9.7c2.5-5.4,5.7-6,5.7-6l58.2,12.9l4.4-5L390.3,223.2z"/>
	<g id="XMLID_144_">
		<path id="XMLID_146_" style="fill:#FFDBC2;" d="M274.2,190.7c0,0,11.6,24.8,13.2,27.7c1.6,2.9,1.8,3.1,7.4,2.7
			c5.6-0.5,70.3-5.9,70.3-5.9l1.7,16.3c0,0-82.3,17.5-88.9,19c-4.5,1-6.6-0.5-9.5-5.3c-2.9-4.8-19.5-37.9-19.5-37.9L274.2,190.7z"/>
		<path id="XMLID_145_" style="fill:#3CB28E;" d="M298.8,220.7L298.8,220.7c-1.9,0.2-3.3,0.3-3.9,0.3c-5.6,0.5-5.9,0.2-7.4-2.7
			c-1.6-2.9-13.2-27.7-13.2-27.7l-25.3,16.6c0,0,16.6,33,19.5,37.9c2.9,4.8,5,6.3,9.5,5.3c1.9-0.4,9.6-2.1,19.9-4.3
			C302.3,238.3,300.1,225.5,298.8,220.7z"/>
	</g>
	<g id="XMLID_140_">
		<path id="XMLID_141_" style="fill:#F8C6A3;" d="M230.2,191.4c0,0-34.3-30.8-40.1-37.6c-5.8-6.7-8-11.7-13.1-13.7
			c-5.1-2-4.8-0.4-8,0c-3.2,0.4-5.2-0.1-7.9,1.9c-2.6,2-4.1,1.7-6,3.3c-1.9,1.6-4.5,6.5-4.1,8.5c0.4,2,0.7,9,10.6,10
			c9.9,1,14,3.2,14,3.2l37.2,51.4L230.2,191.4z"/>
		<path id="XMLID_14_" style="fill:#EAB18B;" d="M172.1,145c1.1,1.8,2.2,4.1,0.5,6c-1.7,1.9-7.2,7.9-7.2,7.9s-5.4,2.6-4.5-0.9
			C161.8,154.4,172.1,145,172.1,145z"/>
		<path id="XMLID_13_" style="fill:#EAB18B;" d="M190.7,155.1c1.6,5.6,1.6,13.1-0.1,16.6c-1.7,3.5-6.4,7-6.4,7l-3-4.2L190.7,155.1z"
			/>
		<path id="XMLID_143_" style="fill:#DEF1F8;" d="M264,128.7c-4.4,5-7.5,11.6-13.1,24c-5.6,12.3-20.7,38.8-20.7,38.8l-6.2-6
			c0,0-12.6,14.4-12.3,31.5c0,0,10.4,13.1,14.3,16.2c3.9,3.2,8,3.6,13.7-1.8c5.7-5.4,34.5-40.6,34.5-40.6s7.8-4.6,9.6-20.8
			C285.7,153.7,275.8,126.9,264,128.7z"/>
		<path id="XMLID_142_" style="fill:#BCE3F6;" d="M228.8,189.9c-2.6,2.3-13.6,18.1-11,34.3l1.3,1.5c0,0-1.2,1-2.9-0.8
			c-1.7-1.9-7.7-8.2-8.7-10c-1-1.9-0.4-10.2,3.7-20c4.1-9.9,9.3-14.6,11.7-12.7c2.4,2,3.3,2.8,5.2,4.8c1.3,1.3,2.6,2.8,2.2,4.4
			L228.8,189.9z"/>
	</g>
	<path id="XMLID_134_" style="fill:#93BF56;" d="M403.2,185.2c-5.5-3-15.1-4.4-22.3,0.9c-0.9,0.7-2.1,1.6-3.9,4.3
		c-9.3,13.6-35.4,46.9-35.4,46.9s1.4,11.9,19.3,17.7l29.4-31.8c0,0,2.6,10.5,3.6,20.1c1,9.6-4.8,50.2-4.8,50.2s4.4,0.1,8.4-4.8
		c4-4.8,4.6-7.6,5.7-7.6c1.1,0,2.3,7.5,13.2,15.3c8.6,6.2,33.3,14.7,48.7,9.8c17.7-5.6,17.8-13.8,18.8-17.6
		c-1.1-1.8-3.2-5.5-8.2-11.5c-5-6-6-8.8-6-9.8c0-1,2-5.7,1.2-7.5c-0.8-1.8-5-5.6-4.1-8.4c0.9-2.8,7.9-25.1,9.9-38
		c2-12.9,0-29.3,0-29.3L403.2,185.2z"/>
	<path id="XMLID_179_" style="fill:#80AD4D;" d="M384.7,184.3c5.8-1.6,19.1,3.4,22.4,6.6c3.3,3.2,4.7,17.6,21,23.5
		c16.3,5.9,42.7,2,42.7,2l-14.5-34.6l-49.7-7.4L384.7,184.3z"/>
	<path id="XMLID_203_" style="fill:#80AD4D;" d="M473.2,229.3c1.5-5.6,2.8-11.3,3.5-15.9c0.7-4.5,0.9-9.4,0.9-13.9
		c-6.7,1.3-66.3,13.2-66.7,12.7c-0.4-0.4-23.1-13.1-23.1-13.1l-15.3-2.3c-7,9.6-17.1,22.9-23.9,31.5c2.8,1.7,6.6,3.7,11.6,5.7
		c6,2.5,12.5,2.8,17.8,2.4l12.2-13.2c0,0,1.2,4.8,2.2,10.8c6.1,0,23.9-0.2,42.4-1.3C454.6,231.5,469.4,229.7,473.2,229.3z"/>
	<path id="XMLID_125_" style="fill:#EC6469;" d="M498.6,112.7c6-2.2,24-7.3,33.5-6.1s22.7,6.1,28,11.8c5.3,5.7,4.9,25,4.9,31.6
		c0,6.6-3,21.6-5.4,28.4c-2.4,6.8-3,22-2.6,34.4c0.4,12.4,8.1,42.5,9.6,46c1.5,3.5-5.7,9.2-16.8,13.6c-13.7,5.4-34.8,6.8-34.8,6.8
		l-7-19.4l-1.4,20c0,0-8.1,1.9-17.4,0.5c-9.3-1.4-12.8-4.3-13.6-5.4c-0.8-1.1-3.2-33.6-1.2-51.6c0,0,15.5-10.1,17.9-22.2
		C494.9,188.8,498.6,112.7,498.6,112.7z"/>
	<path id="XMLID_302_" style="fill:#D3545E;" d="M515.6,119c4.2,3.5,10.5,8.8,10.5,20.3c0,9.1-4.8,27.5-4.8,27.5l-8.9-2.5L515.6,119
		z"/>
	<path id="XMLID_275_" style="fill:#D3545E;" d="M559.6,178.3c2.4-6.8,5.4-21.8,5.4-28.4c0-5.7,0.3-20.8-3.1-28.5l-4.3-5.2
		c-6.2-4.8-17.3-8.7-25.6-9.7c-2.9-0.4-6.7-0.1-10.7,0.5c1.6,0.6,6.1,4.3,7.4,7c1.3,2.8,5.5,5,10.8,3.8c5.3-1.2,4.7,0.6,7.6,8.8
		c2.9,8.2,6.8,21.9,6.8,21.9l-13.6,5.3c0,0-30.1,15.3-45.7,23.1c-0.4,5.9-0.8,11.2-1.3,15.4c10.1-2.3,24.2-5.4,28.2-5.6
		c6.5-0.4,17.2,1.1,22.6,2c3,0.5,9.1-2.1,13.8-4.5C558.6,181.9,559.1,179.9,559.6,178.3z"/>
	<path id="XMLID_305_" style="fill:#D3545E;" d="M516.8,187.4V169l-21.6,2.8c-0.9,13.4-1.9,25-2.7,29.1
		c-2.4,12.2-17.9,22.2-17.9,22.2c-0.2,1.8-0.4,3.8-0.5,5.9c4.8,0,13.4,0,17.9-0.7c6.4-0.9,10.1-2.8,13.9-14.3
		C509.6,202.6,513.5,188.1,516.8,187.4z"/>
	<path id="XMLID_130_" style="fill:#E0A375;" d="M470.8,192.9l-64.6,9.8c-4.1,0.6-10.7-2.1-15.8-4.5c-5.2-2.5-5.9-3.3-12.3-3.3
		c-6.4,0-12.3-2.6-13.5-0.6c-1.2,2,2.1,5.9,6.5,7c4.4,1.1,7.3,1.6,7.3,1.6s-5.1,0-9.8,0c-4.8,0-7,0.7-8.4,2.2
		c-1.4,1.6-1.2,4.5-2.4,5.3c-1.3,0.8-3,2.2-3,4.3c0,2.1-3.5,3.7-3.5,5.6c-0.1,1.9-0.7,2.4,0.6,4.1c1.2,1.7,10.6,6.4,18.6,7
		c8,0.5,15.4-1.3,20.1-2.5c3.5-0.9,5.5-1.6,13.4-1.9c6.1-0.3,39.5-1.8,39.5-1.8L470.8,192.9z"/>
	<path id="XMLID_131_" style="fill:#F2F2F2;" d="M508.4,113.8c-6.7-3.5-19.2-1.6-23.2,13.8c-4,15.4-14.3,65.3-14.3,65.3l-27.6,4.2
		c0,0,3.8,16.5,0,28c0,0,33.1-1.8,39.5-1.9c6.4-0.1,14.1-1,18.5-12.4c4.4-11.3,17.2-56.2,19.4-63.1
		C522.8,140.7,526,122.8,508.4,113.8z"/>
	<path id="XMLID_129_" style="fill:#65439B;" d="M425.2,87.1c-10.5,2.7-20.2,11.4-22.8,25.2c-2.6,13.8-1.6,20,3.4,31.7
		c5,11.7,10.7,19.5,8.6,31.8s1.8,19.3,10.9,28.1c12.9,12.5,45.1,15.5,61.3,0c15-14.5,2.8-35.2,2.8-35.2s11.2-10.2,8.6-21.3
		c-2.6-11.1-6.8-13.7-16.3-18.8c-9.5-5.1-14.8-16.1-17.5-23C461.3,98.6,449.6,80.7,425.2,87.1z"/>
	<path id="XMLID_16_" style="fill:#523C7C;" d="M414.4,175.8c-1.4,8.3-0.1,14.1,3.6,19.7c6.9,2.9,20.5,7.8,23.6,8.3
		c3.1,0.6,23.2-4.3,25.1-4.2c2,0.1,4.4,1.2,9.8,0c5.4-1.1,7.3-4.2,7.3-4.2l9.3-2.7c1.9-7,0.4-13.9-1.3-18.5h-77.3
		C414.5,174.8,414.5,175.3,414.4,175.8z"/>
	<g id="XMLID_136_">
		<path id="XMLID_137_" style="fill:#F8C6A3;" d="M473.5,163.2c0,0,46.6-5.8,50.9-6.6c4.3-0.8,7.2-4.1,12.1-7.2
			c4.9-3.1,9.1-4.5,12.5-3.9c3.4,0.5,8.7,0.8,10.3,1c1.6,0.1,0.8,3.3-1.9,4.1c-2.7,0.8-8,1.6-7.6,2.2c0.4,0.5,9.5,0.5,11-0.4
			c1.5-1,2.3-1.4,3.1-3.1c0.8-1.8,2.9-1.4,3.9,0.1c1.1,1.5,2.2,4.2,0.7,6.8c-1.5,2.6-3,3.8-3.1,5c-0.1,1.2,0.4,4.3,0.5,6.2
			c0.1,1.9-2.6,4.3-3.1,5.7c-0.5,1.4-0.7,3.5-3.9,5.8c-3.3,2.3-8.8,4.3-11.8,4.5c-3,0.3-15-1.5-20.3-1.7c-5.3-0.1-13,1.8-26.1,4.3
			c-10.2,1.9-28.5,6.7-28.5,6.7L473.5,163.2z"/>
		<path id="XMLID_139_" style="fill:#DEF1F8;" d="M381.4,121.8c0,0,3.6-0.9,8.3,2.1s60.4,39.5,61.4,40.1c1.1,0.6,22.4-0.8,22.4-0.8
			s3.3,17.1-1.4,29.5c0,0-23,3.9-26.5,5c-3.5,1.1-5.9,0.6-12.7-2c-6.8-2.6-28.7-10.9-35.4-11.9c-6.7-1.1-15.7-1.2-20.6,7
			c0,0-2.6-10.9,0.4-28.2C380.5,144.2,381.4,121.8,381.4,121.8z"/>
		<path id="XMLID_291_" style="opacity:0.37;fill:#90C8EE;" d="M473.4,188.4c-0.3,1.5-0.8,2.9-1.3,4.3c0,0-23,3.9-26.5,5
			c-3.5,1.1-5.9,0.6-12.7-2c-6.8-2.6-28.7-10.9-35.4-12c-6.6-1.1-15.7-1.2-20.6,7c2.6-11.7,6.9-27.1,8-40.5
			c0.9-11.4-0.7-22.2-2.4-26.6c1.5,2.9,4.2,9.1,5.6,18.5c2,13.5,1.5,18.9,1.3,23.5c-0.2,4.6,5.4,9.1,19.2,14.1
			c13.7,5.1,31.5,12,34.7,12.9C446.2,193.5,469.9,189,473.4,188.4z"/>
		<path id="XMLID_138_" style="fill:#BCE3F6;" d="M466.8,163.6c0-1.8,2.4-2,6.1-2.2c3.8-0.2,5.6-0.7,6.9,1.1c1.4,1.8,3,9.3,2.9,16.9
			c0,5.6-1.3,12.7-3.4,13.7c-2,0.9-4,1.1-6.4,1.5c-2.4,0.3-5.8,1-6.3-0.9l1.6-0.3c0,0,2.5-6.8,2.5-14c0-9.9-1.8-15.9-1.8-15.9
			L466.8,163.6z"/>
	</g>
	<path id="XMLID_123_" style="fill:#FFDBC2;" d="M543.5,113.8c-1.3,0.1-5.8,2-9.9,0.8c-4.1-1.3-8.7-8.1-12.2-7.5l-11.6,2.3
		c0,0,2-2.8,4.9-4.5c2.9-1.7,11.7-4.3,14.8-5.1c4.1-1.1,9.3-2.1,12.2-1c6.7,2.6,15.6,7.9,17,9.6c1.4,1.7,31.7,44.6,36.3,50.8
		s9.5,14,8,24.8c-1.4,10.7-4.7,13.5-8.2,14.3c-3.5,0.8-15.8-6.3-19.7-11.8c-3.9-5.5-26.2-63.7-27.4-66.7
		C546.5,116.7,544.9,113.6,543.5,113.8z"/>
	<path id="XMLID_5_" style="fill:#C17A61;" d="M254.9,252.6l-0.7,4.4c0,0-3.8,1-6,0.8c-2.2-0.3-3.1-0.9-2.5-1.6c0.6-0.7,4-2.5,5.8-4
		c3.8-3.3,3.8-8,1.2-7c-1.5,0.6-2.8,1.6-4.7,2c-2.1,0.4-4.1,1-7.6,1.7c-3.5,0.7-6.1,2.3-7.6,3.4c-1.3,1-2.5,1.8-4.4,1.5
		c-4.9-1.7-15-5.1-24.6-8.4c0,0,0,0,0,0l0,0c-10.2-3.5-19.7-6.7-21.4-7.3c-3.8-1.3-4.8-2.6-5.3-5.3c-1.1-5.4-4.3-16.5-4.3-16.5
		l-18.2,27.2c0,0,0.5,3.4,2.5,9.4c2,6,4.7,8.3,9.3,8.8c2.5,0.3,17.1,3,31.2,5.8v0c0,0,24.9,5.3,31.2,7c6.3,1.6,12.4,2.7,16.3,2
		c3.8-0.7,6.2-3.5,7.1-4.8c0.9-1.3,1.8-1.2,4.1-2.7c2.3-1.6,1-5.1,1.9-6.6c1-1.7,2.1-2.5,2-5.3C259.8,254.3,254.9,252.6,254.9,252.6
		z"/>
	<path id="XMLID_4_" style="fill:#FFDBC2;" d="M62.9,136.3c0,0,11.6,28,12.6,30.2c1,2.2,3.1,1.9,16.9,1.5c13.8-0.5,43-1.7,46.8-2.9
		c3.9-1.2,5.1-3.6,7.1-7.1c1.9-3.4,3.6-6.1,11.9-8.8c8.3-2.7,13-5.8,13.9-4.2c0.5,0.9,1.2,3.3-2,5.9c-3.3,2.6-7.9,6-7.3,6.8
		c0.6,0.8,19.1-3.1,21.7-5.3c2.6-2.2,1.6-3.5,1.6-3.5s2.2-0.5,3.5,1.5c1.3,2.1,1.5,9.3,1,12.5c-0.5,3.3-1.2,7.8-5.2,11.5
		c-4,3.7-10.8,7.2-17,8.7c-5,1.3-12,0.5-21,2.6c-9,2.1-41.3,9.6-58.6,13.5c-15.7,3.5-32.5,7.4-37.3,5.8c-4.7-1.6-10-11.8-16.7-30.8
		L62.9,136.3z"/>
	<path id="XMLID_3_" style="fill:#00A5C8;" d="M29.6,98.4c-6.2,2.7-15.1,11.4-8.5,38.3c6.6,26.9,11.7,38.8,11.7,38.8
		s25.3,4.4,39.6-18.5c-0.2-1.5-7.5-21.9-14.1-37.2C51.8,104.5,43.7,92.3,29.6,98.4z"/>
	<path id="XMLID_256_" style="opacity:0.37;fill:#90C8EE;" d="M297.8,116.4c0,0,8.3,1.3,12.7,3.8c4.4,2.6,9.3,3.6,16.8,3.4
		c7.5-0.2,12.3-2.3,16.9-4.5c4.5-2.3,7.8-4.8,11-4.6c0,0-1.7-2.9-27.9-2.9C300.9,111.6,297.8,116.4,297.8,116.4z"/>
	<path id="XMLID_148_" style="fill:#DEF1F8;" d="M325.5,107c-6.8,0.3-11.9-1.8-15.4-2.4c-3.5-0.6-7.5,1.4-12.3,11.7
		c0,0,4.8-0.4,10.2,1c5.4,1.4,10.7,3.2,18.5,2.8c9.5-0.5,15-3.1,19.3-4.2c5.2-1.3,9.3-1.4,9.3-1.4s-7.7-13.8-14.7-11.3
		C335.3,105.1,331.4,106.7,325.5,107z"/>
	<path id="XMLID_205_" style="fill:#EDC1A4;" d="M300.3,253.9l32.2-12.6l-5.6-1.2h-0.3l-41.3,8.8
		C289.5,250.3,294.8,252.1,300.3,253.9z"/>
	<path id="XMLID_247_" style="fill:#00A5C8;" d="M47.3,85.7c0,0,4.9,8.5,12.3,12.4c8.4,4.5,15.9,3.6,15.9,3.6l3.1,4
		c0,0-9.3,2.3-20.2-3.4c-10.2-5.3-13.8-13.3-13.8-13.3L47.3,85.7z"/>
	<g id="XMLID_250_">
		<path id="XMLID_252_" style="fill:#349977;" d="M167.1,267.9l4.5-0.8v-5.8C170.3,263.3,168.8,265.6,167.1,267.9z"/>
		<path id="XMLID_253_" style="fill:#349977;" d="M148.5,252.4c2.6-3.6,24.2-36,24.2-36s-4.4-12.7-3.3-27.2c0,0-4.5,12.2-3.3,27.5
			c0,0-17.1,28-21.6,31.4c-4.5,3.4-21.9,1.3-21.9,1.3s8.2,2.7,15.1,4.5C144.6,255.6,145.9,256,148.5,252.4z"/>
	</g>
	<polygon id="XMLID_178_" style="fill:#AA6552;" points="174.8,224.1 156.4,250.7 154.5,243.6 172.7,216.4 	"/>
	<path id="XMLID_184_" style="fill:#2B1C1F;" d="M89.7,96.9c0,0,13.3,0,22.1-14.2c0,0-4,18-22.6,16.9C89.3,98.6,89.5,97.7,89.7,96.9
		z"/>
	<path id="XMLID_2_" style="fill:#35679E;" d="M593.7,262.7c1.5,7,3.8,17.3,5.2,18.6c1.4,1.3,20.3,3.7,20.3,3.7l0.3-1.7
		c0,0-16.5-2.3-18.7-3.1C599.3,279.6,595.3,268.2,593.7,262.7z"/>
	<path id="XMLID_58_" style="fill:#518ECC;" d="M501.1,319.7c0,0-3-20.3-2.8-41.1H496c0,0-2.1,13.6,2.2,41.1H501.1z"/>
	<path id="XMLID_158_" style="fill:#35679E;" d="M88.8,294c0,0-3.2,11.8-3.2,15.6s8.3,9.1,10.3,8.9c1.9-0.2,16.5-3.2,18.4-5.3
		c1.9-2.1,4.1-23.1,4.1-23.1s-4,20.3-5.3,21.6c-1.3,1.3-14.4,5.1-16.7,4.9c-2.4-0.2-8.8-5.4-8.8-7.1C87.5,307.7,88.8,294,88.8,294z"
		/>
	<path id="XMLID_159_" style="fill:#35679E;" d="M67.3,287.7c-3.2,7-5.9,16.6-6.9,18.1c-1.1,1.5-12.5,2.4-12.5,2.4l0.5-2.2
		c0,0,7.4-0.7,9.2-1c1.9-0.4,2.3-1.9,3.4-4.4C62,298.1,67.3,287.7,67.3,287.7z"/>
	<polygon id="XMLID_160_" style="fill:#0B597F;" points="15.3,319.7 27.9,271.3 29.8,271.3 17.7,319.7 	"/>
	<path id="XMLID_162_" style="fill:#0B597F;" d="M26.1,284.3c8.7,1.2,20.9-0.5,25.4-14.8l0.3,3.1c0,0-1.6,7.8-8.4,11.2
		c-6.8,3.5-13.4,3.1-17.8,2L26.1,284.3z"/>
	<path id="XMLID_1_" style="fill:#518ECC;" d="M510.3,284.3c1.1,8.8,2.3,18.1,4.5,20c2.2,1.9,18.1,3,20.2,2.2
		c2.1-0.8,8.3-7.2,8.5-9.5c0.1-2.3-2.8-21.4-2.8-21.4s0.7,18.9,0.5,20.8c-0.2,1.9-5.1,7.6-7.4,7.9c-2.3,0.4-15.2,0.5-17-1.6
		C515,300.6,510.3,284.3,510.3,284.3z"/>
	<path id="XMLID_161_" style="fill:#35679E;" d="M585.2,257.1c0,0,4,15.4,6.4,29.4c2.5,14,3.7,33.1,3.7,33.1h-2.4
		c0,0-0.4-16.3-3.5-33.1c-3-16.9-6.5-29.4-6.5-29.4H585.2z"/>
	<path id="XMLID_164_" style="fill:#518ECC;" d="M550.9,276c2.1,12.3,3.5,22.5,1.7,31.7c-1.8,9.1-2.3,12.1-2.3,12.1h1.5
		c0,0,1.7-9.2,2.6-13.9c0.9-4.7,0.6-12.3-2.1-30.3L550.9,276z"/>
	<path id="XMLID_186_" style="fill:#518ECC;" d="M561.4,271.4c1.2,7.7,2.2,16.6,3.1,18.6c0.9,2.1,6.9,3.9,6.9,3.9l0,1.7
		c0,0-6.6-1.3-8.5-4.5C560.8,288,561.4,271.4,561.4,271.4z"/>
</g>
<path style="fill:#BFC6CC;" d="M656.8,319.7H3.7c-2,0-3.7-1.7-3.7-3.7v-4c0-2,1.7-3.7,3.7-3.7h653.1c2,0,3.7,1.7,3.7,3.7v4
	C660.5,318.1,658.8,319.7,656.8,319.7z"/>
</svg>
