<?xml version="1.0" encoding="utf-8"?>
<!-- Generator: Adobe Illustrator 25.0.0, SVG Export Plug-In . SVG Version: 6.00 Build 0)  -->
<!DOCTYPE svg PUBLIC "-//W3C//DTD SVG 1.1//EN" "http://www.w3.org/Graphics/SVG/1.1/DTD/svg11.dtd" [
	<!ENTITY ns_extend "http://ns.adobe.com/Extensibility/1.0/">
	<!ENTITY ns_ai "http://ns.adobe.com/AdobeIllustrator/10.0/">
	<!ENTITY ns_graphs "http://ns.adobe.com/Graphs/1.0/">
	<!ENTITY ns_vars "http://ns.adobe.com/Variables/1.0/">
	<!ENTITY ns_imrep "http://ns.adobe.com/ImageReplacement/1.0/">
	<!ENTITY ns_sfw "http://ns.adobe.com/SaveForWeb/1.0/">
	<!ENTITY ns_custom "http://ns.adobe.com/GenericCustomNamespace/1.0/">
	<!ENTITY ns_adobe_xpath "http://ns.adobe.com/XPath/1.0/">
]>
<svg version="1.1" id="Camada_1" xmlns:x="&ns_extend;" xmlns:i="&ns_ai;" xmlns:graph="&ns_graphs;"
	 xmlns="http://www.w3.org/2000/svg" xmlns:xlink="http://www.w3.org/1999/xlink" x="0px" y="0px" viewBox="0 0 500 500"
	 style="enable-background:new 0 0 500 500;" xml:space="preserve">
<style type="text/css">
	.st0{fill:#ACAF1B;}
	.st1{fill:#156182;}
	.st2{fill:none;}
	.st3{fill:#27A3C9;}
	.st4{fill:#FFFFFF;}
	.st5{fill:none;stroke:#FFFFFF;stroke-width:0.7794;stroke-miterlimit:10;}
	.st6{fill:none;stroke:#FFFFFF;stroke-width:1.2336;stroke-miterlimit:10;}
	.st7{fill:#DCF0FC;}
	.st8{fill:none;stroke:#FFFFFF;stroke-width:0.4148;stroke-miterlimit:10.0004;}
	.st9{fill:none;stroke:#FFFFFF;stroke-width:0.6565;stroke-miterlimit:10.0004;}
	.st10{fill:none;stroke:#FFFFFF;stroke-width:0.6737;stroke-miterlimit:10;}
	.st11{fill:none;stroke:#FFFFFF;stroke-width:1.0661;stroke-miterlimit:9.9995;}
	.st12{fill:#E2E1E1;}
	.st13{fill:#00698B;}
	.st14{fill:url(#SVGID_1_);}
	.st15{fill:#43CFD6;}
	.st16{fill:#04242B;}
	.st17{fill:#8C5930;}
	.st18{fill:#055D7C;}
	.st19{fill:none;stroke:#FFFFFF;stroke-width:0.943;stroke-miterlimit:10;}
	.st20{fill:none;stroke:#FFFFFF;stroke-width:1.4924;stroke-miterlimit:10;}
	.st21{fill:#CC1212;}
	.st22{fill:#08546F;}
	.st23{fill:none;stroke:#074F69;stroke-width:14;stroke-linecap:round;stroke-miterlimit:10;}
</style>
<metadata>
	<sfw  xmlns="&ns_sfw;">
		<slices></slices>
		<sliceSourceBounds  bottomLeftOrigin="true" height="500.2" width="500" x="0" y="-0.1"></sliceSourceBounds>
		<optimizationSettings>
			<targetSettings  fileFormat="JPEGFormat" targetSettingsID="0">
				
					<JPEGFormat  blurAmount="0" embedICCProfile="false" matteColor="#FFFFFF" noMatteColor="false" optimized="true" progressive="true" quality="100">
					</JPEGFormat>
			</targetSettings>
		</optimizationSettings>
	</sfw>
</metadata>
<g id="BACKGROUND">
	<path class="st0" d="M250,499.9L250,499.9C111.9,499.9,0,388,0,249.9l0,0c0-138.1,111.9-250,250-250l0,0c138.1,0,250,111.9,250,250
		l0,0C500,388,388.1,499.9,250,499.9z"/>
</g>
<g id="OBJECTS">
	<g>
		<path class="st1" d="M348.2,289.5c3.3,2.1,8.8-1.4,11.9-6.3c3.9-6.3,4.7-16.6,4.8-19.5c0.1-0.4,0.3-0.8,0.4-1.1
			c0.2-0.7,0.4-1.5,0.4-2.3c0-0.4,0.1-0.7,0.1-1.1c0.4,0.3,3.3,2.7,3.9,3.2c0.1,1,0.2,1.9,0.3,2.9c0,0.3,0,0.7,0,1
			c-1.8,2.7-7.4,11.7-8.5,18c-0.8,4.7,1.3,9.5,4.7,10.1c3.4,0.6,7-3.9,7.9-9c1.1-6.6-2.5-17.1-3.4-19.4v-0.1c0-0.9-0.1-1.9-0.3-2.8
			c0.9,0.8,6.5,5.9,7.8,7.1c0.2,1,0.6,1.9,0.9,2.9v0.1c-1,3-3.8,12.1-2.9,18c0.6,4.5,4.2,8.4,7.2,8s4.8-5.5,4.1-10.3
			c-0.9-6.1-6-13.9-7.5-16.1c-0.1-0.5-0.3-0.9-0.4-1.4c0.6,0.6,3.7,3.2,6.7,5.8c1.8,3.1,6.6,11,11.1,14.3c3.6,2.6,8.3,3.2,10,0.8
			c1.7-2.3-0.6-7-4.5-9.8c-4.7-3.5-13.4-5.7-16.3-6.4c-2.4-2.1-6.1-5.5-5.9-5.4c0.6,0.2,1.6,0.4,2.1,0.5c0.1,0,0.2,0,0.2,0
			c2.9,1.3,11,4.6,16.5,4.5c4.3-0.1,8.3-2.4,8.2-5.1c0-2.8-4.6-5-9.3-4.9c-7.6,0.2-14.3,3.7-16.1,4.7c-0.9-0.1-1.7-0.3-2.6-0.5
			c-0.2-0.2-0.4-0.4-0.6-0.6c-1.3-1.3-6.4-6.1-7.1-6.8c0.9,0.2,1.9,0.3,2.8,0.3c3.7,0.9,13.3,2.8,19.6,1.2c4.9-1.3,11-5.5,10.2-8.8
			s-9-4.5-14.3-3.1c-7.1,1.8-15.1,8.7-16.7,10.1c-0.8-0.2-1.7-0.4-2.8-0.8c-0.5-0.4-3.7-3.2-4.1-3.5c0.3,0,0.7,0,1,0
			c0.7,0,1.4-0.2,2-0.3c3-0.5,11.5-2.4,21.2-9.5c4.9-3.6,6.2-8.7,3.7-11.8c-2.6-3-7.5-2.9-12.5,1.3c-6.3,5.4-11.7,16.1-13.1,19.2
			c-0.5,0.1-1,0.2-1.5,0.2c-0.5,0.1-1.1,0-1.6,0.2c-0.1,0-0.5-0.4-1.2-0.8c0.2-0.2,0.3-0.5,0.4-0.7s0.2-0.4,0.2-0.6
			c1.5-0.9,5.5-3.6,7.3-7.6c1.4-3.1,2.3-9.2,0.1-10.2c-2.3-1-5.6,1.4-7.1,4.7c-2,4.4-1.1,11.7-0.9,13.2c0,0.1-0.1,0.2-0.1,0.3
			c-0.1,0.2-0.2,0.4-0.3,0.5c-1.6-1.1-3.8-2.8-4.9-3.5c-1.9-1.3-28.6-17.7-29-18.1c-1.8-1.3-2.2,0.3-1.4,0.8
			c0.4,0.3,27.1,17.1,28.9,18.2c1,0.6,3.5,2.4,5.3,3.7c-0.1,0.2-0.3,0.3-0.4,0.5c-0.3,0.3-0.6,0.5-0.9,0.7c-2.1,0.1-7.7,0.4-11,2.2
			c-2.5,1.4-4.8,4.8-3.8,6.7c1.1,1.9,6.4,0,9.1-1.6c3.4-1.9,5.6-5.7,6.2-6.9c0.3-0.2,0.5-0.4,0.8-0.7c0.1-0.1,0.3-0.3,0.5-0.5
			c1,0.7,1.6,1.2,1.7,1.2c-0.1,0.5-0.1,1-0.2,1.6c-0.1,0.8-0.3,1.7-0.6,2.5c0,0.1-0.1,0.2-0.1,0.2c-2.1,1.3-11.9,7.9-16,14.4
			C345.7,282.1,344.9,287.4,348.2,289.5z"/>
		<path class="st1" d="M161.1,259.2c-3.2,1.1-7-2.9-8.5-7.6c-2-6-0.5-14.6-0.1-17c0-0.3-0.1-0.7-0.1-1c0-0.7,0-1.3,0.1-2
			c0-0.3,0.1-0.6,0.2-0.9c-0.4,0.2-3.3,1.5-3.9,1.8c-0.3,0.8-0.6,1.6-0.8,2.3c-0.1,0.3-0.2,0.6-0.2,0.8c0.9,2.6,3.8,11.1,3.3,16.6
			c-0.3,4-3,7.6-5.9,7.4s-5-4.6-4.7-9c0.4-5.7,5.5-13.6,6.7-15.3v-0.1c0.2-0.7,0.4-1.5,0.8-2.3c-0.9,0.5-6.5,3.6-7.9,4.3
			c-0.4,0.8-0.9,1.5-1.3,2.2c0,0,0,0.1-0.1,0.1c0.2,2.7,0.7,10.7-1.2,15.4c-1.4,3.6-5.1,6.1-7.5,5.1c-2.4-1-2.8-5.5-1.3-9.3
			c1.9-4.9,7.7-10.2,9.5-11.7c0.2-0.4,0.4-0.7,0.7-1.1c-0.6,0.4-3.7,1.9-6.7,3.4c-2.1,2.2-7.6,7.7-12,9.6c-3.5,1.5-7.4,1-8.4-1.3
			s1.9-5.6,5.6-7.2c4.6-1.9,12.2-2,14.8-2c2.4-1.3,6.1-3.3,6-3.3c-0.5,0-1.4,0-1.9,0c-0.1,0-0.1,0-0.2,0c-2.7,0.5-10,1.6-14.5,0.4
			c-3.6-0.9-6.4-3.6-5.8-5.9c0.6-2.3,4.8-3.2,8.6-2.1c6.3,1.7,11,5.9,12.3,7.1c0.7,0.1,1.5,0.1,2.2,0.1c0.2-0.1,0.4-0.2,0.6-0.4
			c1.4-0.8,6.5-3.8,7.2-4.1c-0.8,0-1.6-0.2-2.4-0.3c-3.2,0-11.5-0.4-16.4-3c-3.8-2-8-6.7-6.6-9.3s8.3-1.9,12.4,0.3
			c5.5,2.9,10.7,10.3,11.7,11.7c0.7,0,1.5,0,2.5-0.1c0.5-0.2,3.7-1.9,4.1-2c-0.3-0.1-0.6-0.2-0.8-0.2c-0.6-0.2-1.1-0.4-1.6-0.7
			c-2.4-1-9-4.3-15.6-12.1c-3.3-4-3.4-8.5-0.7-10.4c2.7-2,6.8-0.9,10.1,3.6c4.2,5.7,6.4,15.6,7,18.5c0.4,0.2,0.8,0.3,1.1,0.5
			c0.4,0.2,0.9,0.3,1.3,0.5c0.1,0,0.5-0.2,1.1-0.5c-0.1-0.2-0.2-0.4-0.2-0.6c0-0.2-0.1-0.4-0.1-0.5c-1.1-1.1-3.8-4.1-4.5-7.7
			c-0.5-2.8-0.1-8.1,2-8.5s4.3,2.3,4.9,5.3c0.8,4.1-1.4,9.9-1.9,11.1c0,0.1,0,0.2,0.1,0.3c0,0.2,0.1,0.3,0.2,0.5
			c1.5-0.6,3.7-1.5,4.8-1.9c1.9-0.7,27.2-8.9,27.6-9.1c1.8-0.7,1.7,0.7,1,0.9c-0.4,0.1-25.8,8.6-27.5,9.2c-1,0.3-3.3,1.3-5.1,2
			c0.1,0.2,0.2,0.3,0.3,0.5c0.2,0.3,0.4,0.5,0.6,0.8c1.7,0.5,6.3,1.8,8.6,4c1.8,1.7,3,5,1.8,6.3s-5.3-1.3-7.2-3.1
			c-2.4-2.3-3.5-5.8-3.7-7c-0.2-0.2-0.4-0.5-0.5-0.7c-0.1-0.1-0.2-0.3-0.3-0.5c-0.9,0.4-1.6,0.6-1.7,0.7c0,0.4-0.1,0.9-0.2,1.3
			c-0.1,0.7-0.1,1.4,0,2.2c0,0.1,0,0.1,0,0.2c1.4,1.5,8.2,8.9,10.3,15.1C164.7,253.6,164.3,258.1,161.1,259.2z"/>
		<g>
			<g>
				<path class="st2" d="M402.1,215c0.4,0.3,0.8,0.4,1.2,0.4h0.1c0.6,0.1,1.1,0,1.4-0.5c0.5-0.7,0.1-1.8-0.4-2.3
					c-0.9-0.8-2.2-0.5-2.9,0.4C401.1,213.8,401.5,214.6,402.1,215z"/>
				<path class="st2" d="M391.4,207c0,1.2,0.5,2.7,1.7,3.2c0.4,0.2,0.7,0,0.9-0.2c0.8-0.4,0.8-1.8,0.8-2.6c0-0.9-0.2-2.3-1.2-2.6
					C392.1,204.4,391.3,205.9,391.4,207z"/>
				<path class="st2" d="M392.8,218.7c-1,0.6-0.8,1.9-0.3,2.8c0.6,1.1,2.2,1.6,3.4,1.6h0.1c0.7,0,1.4-0.3,1.9-0.7
					c0.3-0.2,0.4-0.8,0.2-1.1c-0.3-0.4-0.6-0.8-1.1-1c-0.4-0.5-1-0.8-1.5-1.1C394.7,218.7,393.6,218.3,392.8,218.7z"/>
				<path class="st2" d="M387.1,223.3c-0.6-0.1-1.2,0.7-1,1.2c0.5,1.4,1.9,3.1,3.5,3.2c0.6,0.3,1.3-0.1,1.4-0.8
					C391,225.1,388.8,223.6,387.1,223.3z"/>
				<path class="st2" d="M383.2,208.9c0.1,1.1,0.3,2.9,1.2,3.7c0.1,0.2,0.3,0.5,0.5,0.7c0.4,0.4,1.1,0.4,1.5,0.1
					c2.6-2.3,1.2-7.4-1.2-9.3c-0.6-0.4-1.3,0-1.5,0.6C383.1,206,383,207.5,383.2,208.9z"/>
				<path class="st2" d="M380.6,215.5c-0.2-1.5-1.6-5.1-3.4-4.1c-1,0.6-0.7,2.3-0.2,3.2c0.3,0.5,0.8,1,1.2,1.4
					c0.2,0.2,0.5,0.4,0.8,0.6c0.1,0.1,0.3,0.1,0.4,0.2c0.1,0,0.5,0.1,0.2,0C380.5,217.1,381.2,216.1,380.6,215.5z"/>
				<path class="st2" d="M412.3,247.7c-2.2-1.3-4.2-3.1-6.2-4.8c-2.3-2-4.6-3.8-7.2-5.3c-1.1-0.7-2.4-1.4-3.7-1.7
					c-1.5-0.3-1.3,1-1,2.1c1.2,4,5,7.7,8.8,9.3c1.6,0.7,3.2,0.8,4.8,0.9c1,0,2.6,0.2,3.8-0.2C411.9,247.9,412.1,247.8,412.3,247.7z"
					/>
				<path class="st3" d="M428.8,242.6c0.4-0.5,2.1-3,1.5-2.9c-2.3,0.5-4.5,0.3-6.7-0.5c-2.1-0.7-4.7-1.7-6.7-2.6
					c-5.3-2.4-7.4-3.6-11.3-5.8c-1.6-0.9-3.5-2.3-4.1-4.1c-0.4-1,0.7-1,1.5-1c2.6,0.1,5.3,1.2,7.7,2.2c5.3,2.1,10.4,5,16,6
					c3.1,0.6,6.5,0.6,8.6-1.9c1.6-1.9,5-8.5,5-8.5c-0.1,0-0.9,0-1.2,0.2l0,0c-1.4,0.3-3.9,0.1-5.1,0.1c-2.6,0.1-6.9-0.8-8.5-1.1
					c-4.8-0.8-6-1.8-10.6-3.3c-2-0.7-3.2-1.8-4.9-3c-0.8-0.5-1.6-1.2-1.8-2.2c-0.3-1.1,1-1.6,1.9-1.8c1.7-0.3,3.5,0.1,5.1,0.3
					c2.4,0.4,4.8,1.2,7.1,1.9c2.3,0.8,4.6,1.5,6.9,1.9s4.6,0.4,6.9,0.2c4.2-0.4,8.4-2,9.9-6.3c0-0.1,0.1-0.6,0.1-0.7
					c0-0.2,0-2.8,0-3.9c0-0.2,0-0.4,0-0.6c-0.2,0.1-0.4,0.1-0.6,0.2c-1.3,0.5-2.6,0.8-4,1.1c-2.9,0.7-5.8,1.2-8.8,1.3
					c-1.6,0.1-3.4,0.1-4.9-0.5c-1.1-0.4-2.5-1.5-1.9-2.9c0.5-1.3,2.1-1.7,3.3-2c1.5-0.4,3.1-0.5,4.7-0.7c3.7-0.3,8.9,0.9,10.9-2.2
					c1.2-1.8,0.4-3.2,0.9-6c0.6-3.1,1.5-5.8,1.6-5.9c0,0-2.7-1-4.9-2.4c-1.8-1.2-2.9-3-4.7-2.4c-0.5,0.2-1.5,0.7-2,1
					c-1.2,0.9-2.3,1.9-3.2,3.1c-1.5,2.1-2.6,3.6-4.8,5.2c-0.4,0.3-1.7,0.5-1.9,0.2c-1.4-2.5,1.4-5.6,3-7.2c1.8-1.9,3.7-3.5,5.8-4.9
					c0.2-0.1,0.4-0.2,0.5-0.3c-1.2-0.7-2.4-1.4-3.8-1.6c-3.3-0.5-6.5,2.3-8.5,4.6c-3.1,3.5-4.4,8.1-7.2,11.8
					c-0.7,0.9-1.4,1.8-2.3,2.5c-0.4,0.3-0.9,0.6-1.5,0.5s-0.9-0.9-0.9-1.5c-0.1-2.1,1.6-4.3,2.5-6.1c2.3-4.6,3.8-9.6,6.5-13.9
					c0.4-0.6,0.8-1.2,1.2-1.8c0.3-0.4,0.5-0.8,0.9-1c1-0.8-0.4-0.6-1-0.7c-0.5-0.1-0.9-0.3-1.3-0.4c-1.1-0.3-2.2-0.7-3.4-0.9
					c-1.8-0.3-3.5-0.3-5.3,0.5c-3.9,1.8-5.6,6.5-6.7,10.3c-0.8,2.8-1.3,5.6-1.9,8.5c-0.6,3-1.2,6.2-2.7,8.9c-0.4,0.7-1.1,1.7-2,1.5
					c-1.2-0.2-1.7-1.4-1.9-2.4c-0.6-2.9,0.4-6.2,1.3-9s2-5.6,3.1-8.4c1.7-4.2,3.6-8.6,7.3-11.4c0.1,0,0.1,0,0.2-0.1s0.1-0.1,0.2-0.2
					c0.5-0.5,1.1-0.9,1.7-1.3c0.2-0.1-8.9-3.4-13.4-2.8c-4.2,0.6-7.4,3.3-8.8,7.3c-1.4,3.8-1.3,8-1.4,12c0,1.9-0.2,3.9-0.4,5.8
					c-0.2,2.2-0.2,4.4-1.2,6.4c-0.3,0.6-0.5,1.3-1.3,1.7c0,0,0,0,0,0.1c-0.3,0-0.5-0.2-0.7-0.4c-0.1-0.2-0.2-0.4-0.2-0.7
					c-0.2-0.8-0.2-1.8-0.2-2.6c0-2.3,0-4.6-0.2-7c-0.2-2.8-0.5-5.6-0.2-8.5c0.2-2.6,0.8-5.7,3.1-7.3c0.1-0.1-8.6-2.2-12.2-0.1
					c-3.5,2.1-5,6-4.9,10c0.1,3.7,1.5,6.9,3.1,10.1c0.9,1.8,1.7,3.5,2.4,5.4c0.5,1.5,0.9,3.3,0.2,4.8c-1.6,3.4-6.9-4-7.8-5.2
					c-1.5-2-2.8-4.2-3.7-6.6c-1.3-3.5-1-7-0.2-10.5c0-0.2-6.3,4.6-7.8,8.2c-1.2,2.9-1.8,6.2-0.7,9.3c1.1,3,3.6,4.9,6.1,6.6
					c2.1,1.5,5.4,3.4,6.2,6.2c0,0.1,0.1,0.2,0.1,0.3c0,2-1.9,2-3.3,1.3c-1.2-0.7-2.3-1.7-3.2-2.7c-0.9-1-1.9-2.1-2.5-3.3
					c-0.9-1.6-1.3-3.5-2.2-5.1c-0.1-0.3-2.8,7.1-1.3,10.8s3.3,7.4,6.2,10.2c1.8,1.8,3.2,2.9,5.7,3.2c1.3,0.2,3.4,0.3,4.7,0
					c3.5-0.8,3.8,2.6,0.1,6.1c-2.5,2.3-1.9,6.5-0.9,9.8c1.1,3.4,4.2,7.9,7.3,9.8c2.9,1.8,11.5,4,14.3,3.2c-2.4-2.1-7.7-6.6-8.7-11.3
					c-0.6-2.8-0.1-5.6,1.3-8.1c0.7,4.5,3.1,8.6,5.2,12.6c1.6,3,3.5,6.2,6.7,7.7c3.2,1.6,6.8,0.8,9.9-0.6c1.8-0.8,3.6-1.9,5.2-3.2
					c1.2-0.9,2.4-2.1,3.1-3.5c1.6,0.9,3.3,1.5,5.2,1.7C423,250.1,425.9,246,428.8,242.6z M379.5,216.9c-0.1-0.1-0.3-0.1-0.4-0.2
					c-0.3-0.2-0.5-0.4-0.8-0.6c-0.5-0.4-0.9-0.9-1.2-1.4c-0.5-0.8-0.8-2.6,0.2-3.2c1.8-1,3.2,2.6,3.4,4.1c0.2,0.5-0.1,1.6-0.9,1.4
					C380,217,379.6,216.9,379.5,216.9z M384.9,213.3c-0.2-0.2-0.4-0.5-0.5-0.7c-0.7-1.3-1.1-2.6-1.2-3.7c-0.1-1.4-0.1-2.9,0.4-4.2
					c0.2-0.6,1-1,1.5-0.6c2.4,1.9,3.8,7,1.2,9.3C385.9,213.7,385.3,213.7,384.9,213.3z M393,210.2c-1.1-0.5-1.7-2.1-1.7-3.2
					c0-1.1,0.8-2.6,2.1-2.2c1,0.3,1.2,1.7,1.2,2.6c0,0.8-0.1,2-0.8,2.6C393.7,210.2,393.4,210.4,393,210.2z M404.5,212.7
					c0.6,0.5,0.9,1.6,0.4,2.3c-0.3,0.5-0.9,0.6-1.4,0.5h-0.1c-0.4-0.1-0.9-0.1-1.2-0.4c-0.6-0.4-1-1.3-0.5-2
					C402.3,212.1,403.6,211.9,404.5,212.7z M392.8,218.7c0.9-0.5,1.9-0.1,2.7,0.4c0.6,0.3,1,0.8,1.5,1.1c0.4,0.3,0.8,0.5,1.1,1
					c0.2,0.3,0.1,0.9-0.2,1.1c-0.6,0.4-1.2,0.7-1.9,0.7h-0.1c-1.2,0.1-2.7-0.5-3.4-1.6C391.9,220.7,391.7,219.3,392.8,218.7z
					 M389.6,227.8c-1.6-0.2-3-1.8-3.5-3.2c-0.2-0.6,0.4-1.3,1-1.2c1.7,0.2,3.9,1.8,3.8,3.7C390.9,227.8,390.1,228.1,389.6,227.8z
					 M411.7,248c-1.2,0.4-2.8,0.3-3.8,0.2c-1.7-0.1-3.3-0.3-4.8-0.9c-3.8-1.6-7.6-5.3-8.8-9.3c-0.3-1.1-0.5-2.4,1-2.1
					c1.3,0.2,2.6,1,3.7,1.7c2.6,1.5,4.9,3.4,7.2,5.3c1.9,1.7,4,3.5,6.2,4.8C412.1,247.8,411.9,247.9,411.7,248z"/>
			</g>
			<path class="st1" d="M373.8,226.2c0.8-0.5,1.6-1,2.3-1.4c1,3.2-0.3,10.9-0.2,11.6c0,0.4,0,0.7,0.1,1.1c0.5-1.4,2.7-8.3,1.6-13.6
				c0.6-0.4,0.9-0.6,1.5-1c1.2,0.7,2.2,1.3,3.2,2.5c1.4,1.6,2.4,3.5,3.3,5.3c1.6,3.1,4.9,9.7,5.4,9.4c-0.5-1.7-1-3.4-1.5-5
				c-1-3-2.6-6-4.4-8.6c-1-1.5-2.6-3.4-4.5-4.4c1.4-0.8,2.7-1.5,4.1-2.3c6.1,3,15.8,12.1,16.2,11.7c-0.3-0.3-0.6-0.6-0.9-0.9
				c-4-3.8-8.3-9.5-13.8-11.6c2.3-1.2,4.6-2.5,6.9-3.7h0.1c5.9,1.3,17.3,6.2,18.3,6.3c-0.2-0.1-0.3-0.2-0.5-0.2
				c-3.3-1.7-6.6-3.6-9.8-5.4c-1.7-0.9-3.4-1.8-5.3-2.2c4-2.1,9.3-4.4,13.3-6.4c3.9,0.3,12,1.6,12.7,1.4c-3-1.2-6.6-2.6-10-3
				c1.7-0.8,3.4-1.6,5.1-2.4c3.8-1.7,7.4-3.5,11.1-5.4c3.1-1.6,6.4-2.5,9-4.9c0.2-0.2-0.1-0.5-0.3-0.3c-2.9,2.4-6.3,3.3-9.8,4.3
				c-2.7,0.8-5.2,1.9-7.8,3c0.2-0.6,0.4-1.3,0.6-2c0.6-1.8,1.2-3.5,1.8-5.3c0.1-0.2,0.1-0.3,0.2-0.5c-0.6,0-4.8,6.9-5.5,9
				c-0.1,0-0.2,0.1-0.2,0.1c-3.9,1.7-7.7,3.5-11.6,5.4c0.8-1.8,1.1-4,1.5-5.7c0.6-2.6,1-5.3,1.5-8c0.3-1.4,0.6-2.7,0.9-4
				c-0.3,0.5-0.7,1.1-1,1.6c-0.5,0.9-2.5,6.2-2.9,8.3c-0.6,3.1-2.5,5.9-2.8,9c-2.6,1.3-5.1,2.6-7.6,4.1c-1.1,0.7-2.3,1.3-3.5,1.9
				c0.4-2.9-0.4-6.1-0.2-8.9c0.3-4,0.8-7.9,1.4-11.8c0.3-2,0.5-4.1,0.8-6.1c-0.3,0.9-0.7,1.8-1,2.7s-3.8,17.4-3.1,25.3
				c-1.4,0.7-2.8,1.5-4.3,2.2c-0.1-2.9-1.6-5.8-2.7-8.4c-1.7-4-3.4-8.1-4.8-12.2c-0.7-2.2-1.4-4.5-1.9-6.9c0.1,2.9-0.1,3.3,0.2,6
				c0,0.4,1,4,0.9,4.2c0.7,2.1,1.3,3.5,2.1,5.6c0.9,2.2,1.8,4.3,2.7,6.5c0.8,1.9,1.2,4,1.9,5.9c-1.3,0.7-2.5,1.4-3.8,2.1
				c-0.8-2.3-2.8-4.4-4.3-6.2c-2-2.3-4.3-4.4-6.7-6.5c-0.6-0.5-1.1-1-1.7-1.5c0.1,0.2,0.2,0.3,0.2,0.5c0.4,0.8,3.4,5.4,5,7.1
				c1.2,1.2,2.4,2.6,3.5,3.9c0.9,1.1,1.6,2.3,2.5,3.3c-0.7,0.4-1.4,0.9-2.2,1.3c-3.1-2-7.1-2.8-10.6-4.1c-0.8-0.3-1.7-0.6-2.5-1
				c0.4,0.9,4,3.1,5.6,3.6c1.9,0.6,4.1,1.8,6,2.5c-6.4,4.1-17.1,9.1-24.5,11c-1.3,0.3-1,2.4,0.4,2.1
				C357.2,235.3,367.8,230,373.8,226.2z"/>
		</g>
		<g>
			<g>
				<path class="st2" d="M115.5,200.3c-0.3,0.2-0.7,0.3-1,0.3h-0.1c-0.5,0.1-0.9,0-1.2-0.4c-0.4-0.6-0.1-1.4,0.4-1.9
					c0.7-0.7,1.8-0.4,2.3,0.4C116.3,199.3,116,200,115.5,200.3z"/>
				<path class="st2" d="M124.4,193.9c0,1-0.5,2.2-1.4,2.6c-0.3,0.1-0.6,0-0.7-0.2c-0.7-0.3-0.7-1.5-0.6-2.1
					c0.1-0.7,0.2-1.9,1.1-2.1C123.8,191.7,124.4,193,124.4,193.9z"/>
				<path class="st2" d="M123.1,203.5c0.8,0.5,0.6,1.6,0.2,2.3c-0.5,0.9-1.8,1.3-2.8,1.2h-0.1c-0.6,0-1.1-0.3-1.6-0.6
					c-0.3-0.2-0.3-0.7-0.2-0.9c0.2-0.4,0.5-0.6,0.9-0.8c0.4-0.4,0.8-0.7,1.3-0.9C121.5,203.4,122.4,203.1,123.1,203.5z"/>
				<path class="st2" d="M127.7,207.3c0.5-0.1,1,0.6,0.8,1c-0.4,1.2-1.6,2.5-2.9,2.6c-0.5,0.2-1.1-0.1-1.1-0.7
					C124.4,208.7,126.3,207.5,127.7,207.3z"/>
				<path class="st2" d="M131.1,195.5c-0.1,0.9-0.3,2.4-1,3c-0.1,0.2-0.3,0.4-0.4,0.6c-0.3,0.4-0.9,0.4-1.2,0
					c-2.1-1.9-0.9-6.1,1.1-7.6c0.5-0.4,1.1,0,1.3,0.5C131.2,193.1,131.2,194.4,131.1,195.5z"/>
				<path class="st2" d="M133.1,201c0.2-1.2,1.4-4.2,2.8-3.3c0.8,0.5,0.6,1.9,0.1,2.6c-0.3,0.4-0.7,0.8-1,1.2
					c-0.2,0.2-0.4,0.3-0.6,0.5c-0.1,0.1-0.2,0.1-0.4,0.2c-0.1,0-0.4,0.1-0.2,0C133.1,202.3,132.6,201.4,133.1,201z"/>
				<path class="st2" d="M106.7,227c1.8-1,3.5-2.5,5.1-3.8c1.9-1.6,3.9-3.1,6-4.3c0.9-0.5,2-1.1,3-1.3c1.2-0.2,1.1,0.9,0.8,1.7
					c-1,3.3-4.2,6.2-7.4,7.5c-1.3,0.5-2.6,0.7-4,0.7c-0.8,0-2.1,0.1-3.1-0.2C107,227.1,106.8,227.1,106.7,227z"/>
				<path class="st3" d="M102,228.5c1.5-0.1,2.9-0.6,4.3-1.3c0.5,1.1,1.5,2.1,2.5,2.9c1.3,1.1,2.7,2,4.2,2.7
					c2.5,1.2,5.5,1.9,8.1,0.7s4.2-3.8,5.6-6.3c1.8-3.2,3.8-6.5,4.4-10.2c1.1,2,1.5,4.3,1,6.6c-0.9,3.8-5.3,7.5-7.3,9.1
					c2.2,0.7,9.4-1,11.7-2.4c2.5-1.5,5.2-5.1,6.1-7.9c0.9-2.6,1.4-6.1-0.6-8c-3-2.9-2.7-5.6,0.1-5c1.1,0.3,2.8,0.2,3.9,0
					c2-0.3,3.2-1.1,4.7-2.6c2.4-2.3,3.9-5.3,5.2-8.3s-0.8-9.1-0.9-8.9c-0.7,1.4-1.1,2.9-1.9,4.2c-0.6,1-1.3,1.8-2.1,2.6
					s-1.7,1.7-2.7,2.2c-1.1,0.6-2.8,0.6-2.7-1.1c0-0.1,0-0.2,0.1-0.3c0.7-2.2,3.4-3.8,5.2-5c2.1-1.4,4.2-2.9,5.1-5.3
					c0.9-2.5,0.5-5.2-0.4-7.6c-1.2-3-6.3-7-6.3-6.8c0.6,2.9,0.8,5.8-0.3,8.6c-0.7,1.9-1.9,3.7-3.1,5.4c-0.8,1-5.2,7-6.5,4.2
					c-0.6-1.2-0.2-2.7,0.2-3.9c0.5-1.5,1.3-3,2-4.4c1.4-2.6,2.5-5.2,2.7-8.3c0.1-3.3-1-6.5-3.9-8.3s-10.1-0.2-10-0.1
					c1.9,1.3,2.3,3.9,2.4,6c0.1,2.3-0.1,4.6-0.3,7c-0.2,1.9-0.2,3.8-0.2,5.7c0,0.7,0,1.4-0.2,2.1c-0.1,0.2-0.1,0.4-0.2,0.6
					c-0.1,0.2-0.3,0.4-0.6,0.4l0,0c-0.6-0.3-0.8-0.9-1-1.4c-0.8-1.6-0.8-3.5-0.9-5.2c-0.1-1.6-0.2-3.2-0.2-4.8c0-3.3,0.1-6.8-1-9.9
					c-1.1-3.3-3.7-5.6-7.1-6.1c-3.7-0.5-11.2,2-11,2.1c0.5,0.3,1,0.7,1.4,1.1c0.1,0.1,0.1,0.1,0.2,0.2l0.1,0.1c3,2.4,4.5,6,5.8,9.5
					c0.9,2.3,1.8,4.6,2.5,6.9c0.7,2.3,1.5,5,0.9,7.4c-0.2,0.9-0.6,1.8-1.6,2c-0.8,0.1-1.3-0.7-1.6-1.3c-1.2-2.2-1.6-4.9-2.1-7.4
					c-0.4-2.4-0.8-4.7-1.4-7c-0.9-3.2-2.2-7-5.3-8.5c-1.5-0.7-2.9-0.7-4.4-0.5c-0.9,0.2-1.9,0.4-2.8,0.7c-0.4,0.1-0.7,0.2-1.1,0.3
					c-0.5,0.1-1.7-0.1-0.9,0.6c0.3,0.2,0.5,0.6,0.7,0.9c0.3,0.5,0.7,1,1,1.5c2.2,3.6,3.3,7.7,5.2,11.5c0.7,1.5,2.1,3.3,2,5
					c0,0.4-0.3,1.1-0.8,1.2c-0.4,0.1-0.9-0.2-1.2-0.4c-0.7-0.6-1.3-1.3-1.8-2c-2.2-3.1-3.2-6.9-5.7-9.8c-1.6-1.9-4.2-4.3-6.9-3.9
					c-1.1,0.2-2.2,0.7-3.2,1.3c0.1,0.1,0.3,0.2,0.4,0.3c1.7,1.2,3.3,2.5,4.7,4.1c1.2,1.4,3.5,4,2.3,6c-0.2,0.3-1.2,0.1-1.6-0.2
					c-1.7-1.3-2.6-2.6-3.8-4.3c-0.7-1-1.6-1.8-2.6-2.6c-0.4-0.3-1.2-0.7-1.6-0.9c-1.5-0.5-2.4,0.9-3.9,1.9c-1.8,1.2-4,1.9-4,1.9
					c0.1,0,0.7,2.3,1.2,4.8c0.4,2.3-0.2,3.4,0.7,4.9c1.6,2.6,5.9,1.7,8.9,2c1.3,0.1,2.6,0.3,3.8,0.6c1,0.2,2.3,0.6,2.7,1.7
					c0.4,1.1-0.7,2-1.6,2.4c-1.3,0.5-2.8,0.4-4.1,0.3c-2.4-0.1-4.8-0.6-7.2-1.2c-1.1-0.3-2.2-0.6-3.2-1c-0.2-0.1-0.3-0.1-0.5-0.2
					c0,0.2,0,0.3,0,0.5c-0.1,0.9-0.1,3-0.1,3.2c0,0.1,0,0.5,0,0.6c1.2,3.5,4.7,4.9,8.1,5.3c1.9,0.2,3.8,0.2,5.7-0.1
					c2-0.3,3.8-0.9,5.7-1.5c1.9-0.6,3.9-1.2,5.9-1.5c1.4-0.2,2.8-0.5,4.2-0.2c0.7,0.1,1.8,0.5,1.5,1.5c-0.2,0.8-0.9,1.3-1.5,1.8
					c-1.4,1-2.4,1.9-4.1,2.4c-3.8,1.2-4.8,2-8.8,2.6c-1.3,0.2-4.9,0.9-7,0.8c-1-0.1-3.1,0.1-4.2-0.2l0,0c-0.3-0.1-0.9-0.2-1-0.2
					c0,0,2.7,5.5,4,7c1.7,2.1,4.5,2.1,7,1.7c4.6-0.8,8.8-3.1,13.2-4.7c2-0.7,4.2-1.6,6.3-1.7c0.6,0,1.5,0,1.2,0.8
					c-0.6,1.5-2.1,2.6-3.4,3.3c-3.2,1.8-5,2.7-9.3,4.6c-1.6,0.7-3.8,1.4-5.6,2c-1.8,0.6-3.6,0.7-5.5,0.3c-0.5-0.1,0.9,2,1.2,2.4
					C95.5,225.4,97.9,228.8,102,228.5z M133.8,202.2c-0.7,0.2-0.9-0.8-0.7-1.2c0.2-1.2,1.4-4.2,2.8-3.3c0.8,0.5,0.6,1.9,0.1,2.6
					c-0.3,0.4-0.7,0.8-1,1.2c-0.2,0.2-0.4,0.3-0.6,0.5c-0.1,0.1-0.2,0.1-0.4,0.2C134,202.1,133.6,202.2,133.8,202.2z M128.4,199.1
					c-2.1-1.9-0.9-6.1,1.1-7.6c0.5-0.4,1.1,0,1.3,0.5c0.4,1.1,0.4,2.3,0.3,3.5c-0.1,0.9-0.5,2-1,3c-0.1,0.2-0.3,0.4-0.4,0.6
					C129.3,199.5,128.8,199.5,128.4,199.1z M122.3,196.3c-0.6-0.5-0.7-1.5-0.6-2.1c0.1-0.7,0.2-1.9,1.1-2.1c1.1-0.3,1.7,0.9,1.7,1.8
					c0,1-0.5,2.2-1.4,2.6C122.7,196.6,122.5,196.5,122.3,196.3z M115.9,198.7c0.4,0.6,0.1,1.2-0.4,1.6c-0.3,0.2-0.7,0.3-1,0.3h-0.1
					c-0.5,0.1-0.9,0-1.2-0.4c-0.4-0.6-0.1-1.4,0.4-1.9C114.3,197.7,115.4,197.9,115.9,198.7z M123.3,205.8c-0.5,0.9-1.8,1.3-2.8,1.2
					h-0.1c-0.6,0-1.1-0.3-1.6-0.6c-0.3-0.2-0.3-0.7-0.2-0.9c0.2-0.4,0.6-0.6,0.9-0.8c0.4-0.3,0.8-0.7,1.3-0.9
					c0.7-0.3,1.5-0.7,2.2-0.3C123.9,204,123.8,205.1,123.3,205.8z M124.5,210.3c-0.1-1.6,1.8-2.8,3.2-3c0.5-0.1,1,0.6,0.8,1
					c-0.4,1.2-1.6,2.5-2.9,2.6C125.1,211.2,124.5,210.9,124.5,210.3z M106.7,227c1.8-1,3.5-2.5,5.1-3.8c1.9-1.6,3.9-3.1,6-4.3
					c0.9-0.5,2-1.1,3-1.3c1.2-0.2,1.1,0.9,0.8,1.7c-1,3.3-4.2,6.2-7.4,7.5c-1.3,0.5-2.6,0.7-4,0.7c-0.8,0-2.1,0.1-3.1-0.2
					C107,227.1,106.8,227.1,106.7,227z"/>
			</g>
			<path class="st1" d="M138.5,209.9c-0.6-0.4-1.3-0.8-1.9-1.2c-0.9,2.6,0.1,8.9,0,9.6c0,0.3,0,0.6-0.1,0.9
				c-0.4-1.1-2.1-6.9-1.1-11.1c-0.5-0.3-0.7-0.5-1.2-0.8c-1,0.5-1.8,1.1-2.7,2c-1.1,1.3-2,2.8-2.8,4.3c-1.3,2.5-4.1,7.9-4.6,7.6
				c0.4-1.4,0.8-2.8,1.3-4.1c0.9-2.5,2.2-4.9,3.7-7c0.9-1.2,2.2-2.8,3.7-3.5c-1.1-0.6-2.2-1.3-3.3-1.9c-5,2.4-13.1,9.7-13.4,9.4
				c0.3-0.2,0.5-0.5,0.8-0.7c3.3-3.1,7-7.6,11.5-9.4c-1.9-1.1-3.8-2.1-5.6-3.2c0,0,0,0-0.1,0c-4.8,1-14.3,4.9-15.1,4.9
				c0.1-0.1,0.3-0.1,0.4-0.2c2.8-1.3,5.4-2.9,8.1-4.3c1.4-0.7,2.8-1.4,4.4-1.7c-3.2-1.8-7.6-3.8-10.9-5.4c-3.2,0.2-9.9,1.1-10.5,0.9
				c2.5-0.9,5.4-2.1,8.3-2.3c-1.4-0.7-2.8-1.4-4.1-2c-3.1-1.5-6.1-3-9-4.6c-2.5-1.4-5.3-2.1-7.3-4.1c-0.2-0.2,0.1-0.4,0.2-0.3
				c2.3,2,5.1,2.8,8,3.7c2.2,0.7,4.3,1.6,6.3,2.6c-0.2-0.5-0.3-1.1-0.5-1.6c-0.5-1.4-0.9-2.9-1.4-4.3c0-0.1-0.1-0.3-0.1-0.4
				c0.5,0,3.8,5.7,4.4,7.5c0.1,0,0.1,0.1,0.2,0.1c3.1,1.5,6.3,3,9.4,4.6c-0.6-1.5-0.9-3.3-1.2-4.7c-0.5-2.2-0.8-4.4-1.2-6.5
				c-0.2-1.1-0.4-2.2-0.7-3.3c0.3,0.4,0.5,0.9,0.8,1.4c0.4,0.7,1.9,5.1,2.3,6.9c0.5,2.6,2,4.9,2.2,7.5c2.1,1.1,4.2,2.2,6.2,3.4
				c0.9,0.5,1.9,1.1,2.8,1.6c-0.3-2.4,0.4-5,0.3-7.3c-0.2-3.3-0.6-6.5-1-9.7c-0.2-1.7-0.4-3.4-0.6-5c0.3,0.8,0.5,1.5,0.8,2.2
				s2.9,14.3,2.2,20.8c1.2,0.6,2.3,1.3,3.5,1.9c0.2-2.3,1.4-4.8,2.3-6.8c1.5-3.3,2.9-6.6,4.1-10c0.6-1.8,1.2-3.7,1.6-5.6
				c-0.1,2.4,0.1,2.7-0.2,4.9c0,0.3-0.9,3.2-0.8,3.5c-0.6,1.7-1.1,2.9-1.8,4.6c-0.8,1.8-1.6,3.5-2.3,5.3c-0.7,1.6-1.1,3.3-1.7,4.8
				c1,0.6,2.1,1.1,3.1,1.7c0.7-1.9,2.3-3.6,3.6-5c1.7-1.9,3.6-3.6,5.6-5.2c0.5-0.4,0.9-0.8,1.4-1.2c-0.1,0.1-0.1,0.3-0.2,0.4
				c-0.3,0.7-2.8,4.4-4.2,5.7c-1,1-2,2.1-2.9,3.2c-0.7,0.9-1.3,1.9-2.1,2.7c0.6,0.4,1.2,0.7,1.8,1.1c2.6-1.6,5.9-2.2,8.7-3.2
				c0.7-0.2,1.4-0.5,2.1-0.8c-0.4,0.7-3.3,2.5-4.6,2.8c-1.6,0.4-3.4,1.5-5,2c5.2,3.5,13.9,7.7,19.9,9.4c1.1,0.3,0.8,1.9-0.4,1.7
				C152,217.5,143.4,213.1,138.5,209.9z"/>
		</g>
		<g>
			<path class="st4" d="M243.9,172.1V158l-12.4-1.4c-0.8-3.3-2.1-6.4-3.8-9.3l7.8-9.7l-10-10l-9.7,7.8c-2.8-1.7-6-3-9.2-3.8
				l-1.4-12.4H191l-1.4,12.4c-3.3,0.8-6.4,2.1-9.2,3.8l-9.7-7.8l-10,10l7.8,9.7c-1.7,2.8-3,6-3.8,9.3l-12.4,1.4v14.1l12.3,1.4
				c0.8,3.3,2.1,6.4,3.8,9.3l-7.8,9.7l10,10l9.7-7.7c2.9,1.7,6,3,9.3,3.9L191,211h14.1l1.4-12.3c3.3-0.8,6.4-2.1,9.3-3.9l9.7,7.7
				l10-10l-7.8-9.7c1.7-2.9,3-6,3.8-9.3L243.9,172.1z M198.1,182.9c-9.8,0-17.8-8-17.8-17.8s8-17.8,17.8-17.8s17.8,8,17.8,17.8
				C215.9,174.9,207.9,182.9,198.1,182.9z"/>
			<circle class="st5" cx="198.1" cy="165.1" r="15.2"/>
			<circle class="st6" cx="198.1" cy="165.1" r="24.1"/>
			<path class="st7" d="M198.1,141c-13.3,0-24.1,10.8-24.1,24.1s10.8,24.1,24.1,24.1s24.1-10.8,24.1-24.1
				C222.1,151.8,211.4,141,198.1,141z M198.1,182.9c-9.8,0-17.8-8-17.8-17.8s8-17.8,17.8-17.8s17.8,8,17.8,17.8
				C215.9,174.9,207.9,182.9,198.1,182.9z"/>
		</g>
		<g>
			<path class="st4" d="M226.1,96.2v-7.5l-6.6-0.7c-0.4-1.8-1.1-3.4-2-4.9l4.1-5.2l-5.3-5.3l-5.2,4.1c-1.5-0.9-3.2-1.6-4.9-2
				l-0.7-6.6H198l-0.7,6.6c-1.8,0.4-3.4,1.1-4.9,2l-5.2-4.1l-5.3,5.3l4.1,5.2c-0.9,1.5-1.6,3.2-2,4.9l-6.6,0.7v7.5l6.6,0.7
				c0.4,1.8,1.1,3.4,2,4.9l-4.1,5.2l5.3,5.3l5.1-4.1c1.5,0.9,3.2,1.6,5,2.1l0.7,6.5h7.5l0.7-6.5c1.8-0.4,3.4-1.1,5-2.1l5.1,4.1
				l5.3-5.3l-4.1-5.2c0.9-1.5,1.6-3.2,2-4.9L226.1,96.2z M201.7,101.9c-5.2,0-9.5-4.2-9.5-9.5s4.2-9.5,9.5-9.5s9.5,4.2,9.5,9.5
				S206.9,101.9,201.7,101.9z"/>
			
				<ellipse transform="matrix(1.646351e-02 -0.9999 0.9999 1.646351e-02 105.9773 292.6729)" class="st8" cx="201.8" cy="92.5" rx="8.1" ry="8.1"/>
			<ellipse class="st9" cx="201.8" cy="92.5" rx="12.8" ry="12.8"/>
			<path class="st7" d="M201.7,79.7c-7.1,0-12.8,5.7-12.8,12.8c0,7.1,5.7,12.8,12.8,12.8s12.8-5.7,12.8-12.8
				C214.5,85.4,208.8,79.7,201.7,79.7z M201.7,101.9c-5.2,0-9.5-4.2-9.5-9.5c0-5.2,4.2-9.5,9.5-9.5s9.5,4.2,9.5,9.5
				C211.2,97.7,206.9,101.9,201.7,101.9z"/>
		</g>
		<g>
			<path class="st4" d="M371.4,193.2V181l-10.7-1.2c-0.7-2.9-1.9-5.5-3.3-8l6.7-8.4l-8.6-8.6l-8.4,6.7c-2.5-1.5-5.1-2.6-8-3.3
				l-1.2-10.7h-12.2l-1.2,10.7c-2.8,0.7-5.5,1.8-8,3.3l-8.4-6.7l-8.6,8.6l6.7,8.4c-1.5,2.5-2.6,5.2-3.3,8l-10.7,1.2v12.2l10.7,1.2
				c0.7,2.9,1.8,5.6,3.3,8l-6.7,8.4l8.6,8.6l8.4-6.7c2.5,1.5,5.2,2.6,8,3.3l1.2,10.6h12.2l1.2-10.6c2.9-0.7,5.6-1.9,8-3.3l8.4,6.7
				l8.6-8.6l-6.7-8.4c1.5-2.5,2.6-5.2,3.3-8L371.4,193.2z M331.8,202.5c-8.5,0-15.4-6.9-15.4-15.4s6.9-15.4,15.4-15.4
				s15.4,6.9,15.4,15.4C347.2,195.7,340.3,202.5,331.8,202.5z"/>
			<ellipse class="st10" cx="331.8" cy="187.2" rx="13.1" ry="13.1"/>
			
				<ellipse transform="matrix(0.1414 -0.99 0.99 0.1414 99.6116 489.1775)" class="st11" cx="331.8" cy="187.2" rx="20.8" ry="20.8"/>
			<path class="st7" d="M331.8,166.4c-11.5,0-20.8,9.3-20.8,20.8s9.3,20.8,20.8,20.8s20.8-9.3,20.8-20.8
				C352.6,175.7,343.3,166.4,331.8,166.4z M331.8,202.5c-8.5,0-15.4-6.9-15.4-15.4s6.9-15.4,15.4-15.4s15.4,6.9,15.4,15.4
				C347.2,195.7,340.3,202.5,331.8,202.5z"/>
		</g>
		<polygon class="st4" points="318.8,414.9 308,252.4 217.3,255.5 227.8,431.8 		"/>
		<path class="st12" d="M314.2,346.2l-6.2-93.7l-90.7,3.1l9.4,157.2C254.7,401.3,294.4,373.1,314.2,346.2z"/>
		<path class="st4" d="M308.6,345.4c-41.1,29.5-104.5,63.1-127.7,41.8c-4.2-3.9-14.4-16.9-25.3-47c-5.7-15.9-10.4-37.2-12.5-60.7
			c12.2-32,3.1-47.8,3.1-75c0-6.1,0-32.3,0-32.3h201.1C347.3,172.1,349.7,315.8,308.6,345.4z"/>
		<path class="st12" d="M197.3,213.3c-15-4.4-30.7-14.2-30.7-14.2s18.3,9.9,46,7.2c1.3,20.2,15.7,45.7,36.7,47.3
			c2.1-7.9,5.1-33.2,5.1-33.2l6.2-48.3H146.2c0,0,0,11.1,0,20.5C157.3,205.4,174.7,212.9,197.3,213.3z"/>
		<g>
			<path class="st13" d="M227.1,324.6c0.2,3-0.4,6.2-1.5,9c-1.1,2.9-2.7,5.6-4.8,8c-0.5,0.6-1.1,1.1-1.6,1.7c-0.6,0.5-1.2,1-1.8,1.5
				c-1.3,0.9-2.6,1.8-4,2.5c-2.8,1.4-5.9,2.1-8.9,2.1c2.9-1.1,5.5-2.3,7.9-3.9c1.2-0.8,2.3-1.7,3.4-2.6c0.5-0.5,1.1-0.9,1.6-1.5
				c0.5-0.5,1-1,1.5-1.6c1.9-2.1,3.5-4.6,4.9-7.1C225.1,330.2,226.2,327.5,227.1,324.6z"/>
		</g>
		<g>
			
				<linearGradient id="SVGID_1_" gradientUnits="userSpaceOnUse" x1="179.1356" y1="267.4722" x2="179.1356" y2="232.2819" gradientTransform="matrix(1 0 0 -1 0 500.0787)">
				<stop  offset="0" style="stop-color:#EDEDED"/>
				<stop  offset="1" style="stop-color:#EDEDED;stop-opacity:0"/>
			</linearGradient>
			<path class="st14" d="M156.5,234.8c-1.1,16.4-1.5,43,24.7,41.5c26.2-1.4,20.4-40.1,20.4-40.1S169.8,233.5,156.5,234.8z"/>
			<path class="st15" d="M173.8,272.1c1,2,3.3,2.8,5.3,1.8s2.8-3.3,1.8-5.3s-3.3-2.8-5.3-1.8C173.7,267.8,172.9,270.1,173.8,272.1z"
				/>
			<path d="M162.3,231.8c33.1-4.3,53.5,5.1,32.8,9.1C174.3,244.8,140.5,234.6,162.3,231.8z"/>
		</g>
		<path class="st12" d="M218.6,278.7c0,2.7-6.2,4.9-13.9,4.9s-13.9-2.2-13.9-4.9c0-2.7,6.2-4.9,13.9-4.9
			C212.3,273.8,218.6,276,218.6,278.7z"/>
		<path class="st16" d="M373.1,172.1H143.2c0,6.4-0.3,8.5,4.6,12.5c16,13,55.1,20.3,74.4,14.7c4.5,42.7,12.1,58.6,32.9,54
			c12,69.9,59.8,86.9,59.8,86.9S376.1,294.7,373.1,172.1z"/>
		<path d="M336.4,285.1l1.5-9.7c0,0-16.1,18.2-24.9,22c4.7-14.1,1.3-49.1-5-53.9c-0.8,4.1-2.6,12.3-7.9,20.5
			c-0.3-25.8-34-54.8-37.5-66.3c-5.9,6.7-7.9,22.7-7.9,22.7s-6.1-17.6-26.9-27.4c-19.2-9-37.6-7.8-37.6-7.8s6.2,5.4,10,6.6
			c-23.9-1.9-42.2-12.6-51.9-19.7h-4.9c0,6.4-0.3,8.5,4.6,12.5c16,13,55.1,20.3,74.4,14.7c4.5,42.7,12.1,58.6,32.9,54
			c12,69.9,59.8,86.9,59.8,86.9s30.7-22.8,47.6-79.7C350.2,282.7,336.4,285.1,336.4,285.1z"/>
		<path class="st4" d="M149.3,240c-1.6,30.3-18.2,50.6-31.4,60.8c32.5,25.9,54-3,43.7-37.3C157.7,249.6,149.3,240,149.3,240z"/>
		<path class="st17" d="M231.4,104.6v0.7C231.2,104.9,231.2,104.7,231.4,104.6z"/>
		<path class="st4" d="M289.4,266.7c-2.2,16.7-16.5,36.4-27.4,35c-11-1.5-18.1-16.2-15.8-32.9c2.2-16.7,10.6-38.7,25-35.9
			C282,234.9,291.6,250,289.4,266.7z"/>
		<path class="st18" d="M219.3,193.2c-6.1,19.9-2,40.7,9.8,57.3c-5.7-11.9-15.2-32.9-5.7-57.1C222.6,190.6,219.3,193.2,219.3,193.2z
			"/>
		<path class="st18" d="M143.6,178.5c0.8,8.2,27,31.6,53.7,34.7c-14.2-4.1-29.7-13.9-39.7-26.4C163.6,191.4,143.6,178.5,143.6,178.5
			z"/>
		<g>
			<path class="st4" d="M335.1,118.2V101l-14.9-1.7c-1-4-2.6-7.8-4.7-11.2l9.4-11.8l-12.1-12.1L301,73.7c-3.4-2.1-7.2-3.6-11.2-4.6
				l-1.7-15H271l-1.7,15c-4,1-7.7,2.6-11.2,4.6l-11.8-9.4l-12.1,12.1l9.4,11.8c-2.1,3.4-3.6,7.2-4.7,11.2l-14.9,1.7v17.1l14.9,1.7
				c1,4,2.6,7.8,4.7,11.2l-9.4,11.7l12.1,12.1l11.7-9.4c3.5,2.1,7.2,3.7,11.3,4.7l1.6,14.9H288l1.6-14.9c4-1,7.8-2.6,11.3-4.7
				l11.7,9.4l12.1-12.1l-9.4-11.7c2.1-3.5,3.6-7.2,4.6-11.2L335.1,118.2z M279.6,131.2c-11.9,0-21.5-9.6-21.5-21.5
				s9.6-21.5,21.5-21.5s21.5,9.6,21.5,21.5C301.1,121.5,291.5,131.2,279.6,131.2z"/>
			<path class="st7" d="M335.1,101l-14.9-1.7c-1-4-2.6-7.8-4.7-11.2l9.4-11.8l-12.1-12.1L301,73.7c-3.4-2.1-7.2-3.6-11.2-4.6
				l-1.7-15H271l-1.7,15c-4,1-7.7,2.6-11.2,4.6l-11.8-9.4l-12.1,12.1l9.4,11.8c-2.1,3.4-3.6,7.2-4.7,11.2l-14.9,1.7v17.1l14.9,1.7
				c1,4,2.6,7.8,4.7,11.2l-9.4,11.7l12.1,12.1l11.7-9.4c3.5,2.1,7.2,3.7,11.3,4.7l1.6,14.9H288l1.6-14.9c4-1,7.8-2.6,11.3-4.7
				l11.7,9.4l12.1-12.1l-9.4-11.7c2.1-3.5,3.6-7.2,4.6-11.2l14.9-1.7V101H335.1z M331.6,115l-14.2,1.6l-0.6,2.4
				c-0.9,3.6-2.3,7.1-4.3,10.3l-1.2,2.1l8.9,11.2l-7.7,7.7l-11.2-8.9l-2.1,1.3c-3.2,1.9-6.7,3.4-10.3,4.3l-2.4,0.6l-1.6,14.2h-10.8
				l-1.6-14.2l-2.4-0.6c-3.6-0.9-7.1-2.4-10.3-4.3l-2.1-1.3l-11.2,8.9l-7.7-7.7l8.9-11.2l-1.2-2.1c-1.9-3.2-3.4-6.7-4.3-10.3
				l-0.6-2.4l-14.2-1.6v-10.8l14.2-1.6l0.6-2.4c0.9-3.6,2.3-7.1,4.3-10.3l1.3-2.1l-9-11.2l7.7-7.7l11.2,9l2.1-1.2
				c3.2-1.9,6.6-3.3,10.2-4.2l2.4-0.6l1.6-14.3h11l1.6,14.3l2.4,0.6c3.6,0.9,7.1,2.3,10.2,4.2l2.1,1.2l11.2-9l7.7,7.7l-9,11.2
				l1.3,2.1c1.9,3.2,3.4,6.7,4.3,10.3l0.6,2.4l14.2,1.6L331.6,115L331.6,115z"/>
			<circle class="st19" cx="279.6" cy="109.6" r="18.4"/>
			<circle class="st20" cx="279.6" cy="109.6" r="29.1"/>
			<path class="st7" d="M279.6,80.5c-16.1,0-29.1,13-29.1,29.1s13,29.1,29.1,29.1s29.1-13,29.1-29.1
				C308.7,93.6,295.7,80.5,279.6,80.5z M279.6,131.2c-11.9,0-21.5-9.6-21.5-21.5s9.6-21.5,21.5-21.5s21.5,9.6,21.5,21.5
				S291.5,131.2,279.6,131.2z"/>
		</g>
		<g>
			<path class="st4" d="M340.5,137c0,0.5-0.4,0.9-0.9,0.9s-0.9-0.4-0.9-0.9s0.4-0.9,0.9-0.9C340.1,136,340.5,136.5,340.5,137z"/>
			<circle class="st4" cx="351.2" cy="124.9" r="0.9"/>
			<path class="st4" d="M363.2,145.4c0,0.7-0.5,1.2-1.2,1.2s-1.2-0.5-1.2-1.2s0.5-1.2,1.2-1.2C362.6,144.2,363.2,144.7,363.2,145.4z
				"/>
			<path class="st4" d="M224.9,64.4c0,0.7-0.6,1.3-1.3,1.3s-1.3-0.6-1.3-1.3s0.6-1.3,1.3-1.3S224.9,63.7,224.9,64.4z"/>
			<path class="st4" d="M247.5,52.5c0,0.3-0.2,0.5-0.5,0.5s-0.5-0.2-0.5-0.5s0.2-0.5,0.5-0.5S247.5,52.3,247.5,52.5z"/>
			<path class="st4" d="M341,75.5c0,1.2-0.9,2.1-2.1,2.1s-2.1-0.9-2.1-2.1s0.9-2.1,2.1-2.1S341,74.3,341,75.5z"/>
			<path class="st4" d="M358.2,87.8c0,0.4-0.4,0.8-0.8,0.8s-0.8-0.4-0.8-0.8s0.4-0.8,0.8-0.8S358.2,87.4,358.2,87.8z"/>
			<path class="st4" d="M169.3,113.9c0,1.3-1.1,2.4-2.4,2.4c-1.3,0-2.4-1.1-2.4-2.4s1.1-2.4,2.4-2.4
				C168.2,111.6,169.3,112.6,169.3,113.9z"/>
			<path class="st4" d="M158,121c0,0.6-0.5,1.1-1.1,1.1s-1.1-0.5-1.1-1.1s0.5-1.1,1.1-1.1C157.5,120,158,120.5,158,121z"/>
			<path class="st4" d="M156.9,105.2c0,0.4-0.4,0.8-0.8,0.8c-0.4,0-0.8-0.4-0.8-0.8s0.4-0.8,0.8-0.8
				C156.6,104.4,156.9,104.8,156.9,105.2z"/>
			<circle class="st4" cx="273.1" cy="107.3" r="0.5"/>
			<path class="st4" d="M257.5,156.9c0,0.3-0.2,0.5-0.5,0.5s-0.5-0.2-0.5-0.5s0.2-0.5,0.5-0.5C257.3,156.3,257.5,156.6,257.5,156.9z
				"/>
			<path class="st4" d="M369.5,115.9c0,0.9-0.8,1.7-1.7,1.7c-0.9,0-1.7-0.8-1.7-1.7c0-0.9,0.8-1.7,1.7-1.7
				C368.7,114.2,369.5,115,369.5,115.9z"/>
			<path class="st4" d="M346.6,109.2c0,0.4-0.4,0.8-0.8,0.8s-0.8-0.4-0.8-0.8s0.4-0.8,0.8-0.8C346.2,108.4,346.6,108.7,346.6,109.2z
				"/>
			<path class="st4" d="M378.2,83.8c0,0.7-0.5,1.2-1.2,1.2s-1.2-0.5-1.2-1.2s0.5-1.2,1.2-1.2C377.6,82.6,378.2,83.1,378.2,83.8z"/>
		</g>
		<g>
			
				<rect x="152.5" y="84.2" transform="matrix(0.3577 -0.9338 0.9338 0.3577 21.3269 202.407)" class="st21" width="10.6" height="3"/>
			
				<rect x="156.3" y="80.4" transform="matrix(0.3577 -0.9338 0.9338 0.3577 21.3103 202.4619)" class="st21" width="3" height="10.6"/>
		</g>
		<g>
			
				<rect x="302.2" y="46.5" transform="matrix(0.3577 -0.9338 0.9338 0.3577 153.6452 320.9924)" class="st21" width="16" height="4.6"/>
			
				<rect x="307.8" y="40.7" transform="matrix(0.3577 -0.9338 0.9338 0.3577 153.6757 320.9178)" class="st21" width="4.6" height="16"/>
		</g>
		<g>
			
				<rect x="357.2" y="99.9" transform="matrix(0.4336 -0.9011 0.9011 0.4336 110.0077 380.9684)" class="st21" width="1.8" height="6.2"/>
			
				<rect x="354.9" y="102.1" transform="matrix(0.4336 -0.9011 0.9011 0.4336 109.9488 380.9091)" class="st21" width="6.2" height="1.8"/>
		</g>
		<path class="st4" d="M288.1,99.2c0,0-7.9,9.9-11.5,17.2c-1.9-1.8-7-5.3-7-5.3h-1.5c0,0,4.6,5.7,6.7,9.3c2.1,0,4.3,0,4.3,0
			s3.9-11.9,10.4-21.2C288.9,99.2,288.1,99.2,288.1,99.2z"/>
		<path class="st21" d="M342.2,87.6c-0.5,0.3-0.7,0.9-0.6,1.5c-0.5-0.3-1.1-0.4-1.6-0.1c-0.7,0.4-0.9,1.3-0.4,1.9c1,1.5,4,1.2,4,1.2
			s1.6-2.6,0.6-4.2C343.7,87.4,342.8,87.2,342.2,87.6z"/>
		<path class="st21" d="M214.7,46.9c-1.1,0.1-2,1-2.3,2c-0.5-1-1.6-1.6-2.7-1.4c-1.5,0.2-2.6,1.5-2.4,3c0.4,3.5,5.9,5.5,5.9,5.5
			s4.9-3.2,4.5-6.7C217.6,47.8,216.2,46.7,214.7,46.9z"/>
		<path class="st21" d="M146.2,136.1c-1.1-0.5-2.2-0.2-3,0.5c0.1-1.1-0.5-2.2-1.6-2.6c-1.4-0.6-3,0-3.6,1.3
			c-1.5,3.2,2.2,7.8,2.2,7.8s5.9-0.2,7.3-3.4C148.1,138.4,147.5,136.7,146.2,136.1z"/>
		<g>
			<path class="st1" d="M432.8,276.3c-3.7-3-10.2-15.4-10.2-15.4s13.8,4.1,17.2,6.8c3.4,2.7,4.6,6.8,2.6,9.3
				C440.4,279.5,436.5,279.4,432.8,276.3z"/>
			<path class="st1" d="M84.2,236c4.3-0.3,16,3.8,16,3.8s-11.4,5.8-15.3,6c-3.9,0.3-7.2-1.6-7.4-4.4C77.4,238.6,80,236.3,84.2,236z"
				/>
			<path class="st1" d="M95.1,257.2c1.4-1.3,6.7-3.1,6.7-3.1s-2.4,5.2-3.7,6.4c-1.3,1.2-3,1.4-3.8,0.5
				C93.4,260,93.7,258.5,95.1,257.2z"/>
			<path class="st1" d="M80.3,253.6c1.7-0.9,7.3-1.3,7.3-1.3s-3.7,4.4-5.2,5.2s-3.2,0.6-3.8-0.5S78.6,254.5,80.3,253.6z"/>
			<path class="st1" d="M445.1,254.9c-2.3,0.1-8.7-2.3-8.7-2.3s6.3-3,8.4-3.1s3.9,1,4,2.5C448.9,253.5,447.4,254.8,445.1,254.9z"/>
			<path class="st1" d="M459.2,267.9c-1.6-0.4-5.3-3.5-5.3-3.5s4.9-0.6,6.4-0.2c1.4,0.4,2.4,1.5,2.1,2.6
				C462,267.8,460.8,268.3,459.2,267.9z"/>
			<path class="st1" d="M428.1,291.5c-0.8-1.4-1.3-6.2-1.3-6.2s3.9,3.1,4.6,4.4s0.6,2.8-0.3,3.3C430.1,293.5,428.9,293,428.1,291.5z
				"/>
		</g>
		<g>
			<path class="st12" d="M276.5,251.6c-0.8-0.9-1.9-1.5-3-1.8c-0.5-0.2-1.1-0.3-1.7-0.3s-1.1,0-1.7,0.1c-0.6,0-1.1,0.3-1.6,0.5
				c-0.2,0.1-0.5,0.3-0.7,0.4c-0.2,0.1-0.5,0.3-0.7,0.5c-0.4,0.4-0.9,0.7-1.2,1.1c-0.4,0.4-0.8,0.8-1,1.3c-0.7,0.9-1.1,2-1.6,3
				c-0.4,1.1-0.9,2.1-1.1,3.3l-0.5,1.7c-0.1,0.6-0.2,1.1-0.3,1.7l-0.3,1.7c-0.1,0.6-0.2,1.2-0.2,1.7c-0.3,2.3-0.3,4.6-0.2,7
				c0.2,2.3,0.6,4.6,1.5,6.7c0.4,1,1,2,1.8,2.8s1.7,1.3,2.8,1.2c1.1,0,2.1-0.6,3-1.3c0.9-0.7,1.7-1.6,2.5-2.5c-0.6,1-1.2,2.1-2.1,3
				s-1.9,1.7-3.3,1.9c-0.7,0.1-1.4,0-2-0.2c-0.7-0.2-1.2-0.6-1.7-1c-1-0.9-1.7-2-2.3-3.1c-1.2-2.3-1.7-4.7-2-7.2s-0.2-4.9,0.1-7.4
				c0.1-0.6,0.2-1.2,0.3-1.8l0.4-1.8c0.1-0.6,0.2-1.2,0.4-1.8l0.5-1.8c0.3-1.2,0.9-2.3,1.3-3.5l0.9-1.6c0.3-0.6,0.7-1,1.1-1.6
				c0.3-0.5,0.8-1,1.3-1.4c0.4-0.5,1-0.8,1.5-1.2c0.2-0.2,0.6-0.3,0.8-0.5c0.3-0.1,0.6-0.3,0.9-0.4c0.6-0.2,1.2-0.4,1.9-0.4
				c1.3-0.1,2.6,0.1,3.7,0.7C274.8,249.9,275.8,250.6,276.5,251.6z"/>
		</g>
		<g>
			<path class="st12" d="M258.9,269.3c1.3-1.5,2.9-2.9,4.7-3.8c1.8-0.9,3.9-1.4,6-0.8c1,0.3,1.9,1.1,2.4,2s0.7,1.9,0.7,2.9
				c0,2-0.7,3.8-1.5,5.5c0.6-1.8,1.1-3.7,1-5.5c-0.1-0.9-0.3-1.8-0.8-2.5s-1.2-1.2-2-1.4c-1.7-0.4-3.5,0.2-5,1.1s-2.8,2.2-3.8,3.7
				L258.9,269.3z"/>
		</g>
		<path d="M270.9,299.2c0,0,8.5,26.5,17.8,33.9c-2.2-6.1-3.5-11.5-3.5-11.5s13.5,18.7,29.6,18.6C304,318.8,270.9,299.2,270.9,299.2z
			"/>
		<path class="st18" d="M324.7,410.1c10.2,8.4,37.3,45,46.2,82.9c0.8,3.6-1.9,7.1-5.6,7.1H204.7c-3.9,0-6.7-3.8-5.5-7.5
			c3.7-11.6,11.8-34.7,23.2-53.8C265.8,434.5,324.7,410.1,324.7,410.1z"/>
		<path class="st22" d="M327.9,413.1c-1.2-1.2-2.3-2.3-3.2-3c0,0-58.8,24.4-102.3,28.7c-4.8,8.1-9.1,17-12.7,25.4
			C250.5,459,303.1,441.5,327.9,413.1z"/>
		<path class="st23" d="M222.3,434.8c33.5,0,85.1-14.6,100-25.5"/>
	</g>
</g>
</svg>
