<?xml version="1.0" encoding="utf-8"?>
<!-- Generator: Adobe Illustrator 25.0.0, SVG Export Plug-In . SVG Version: 6.00 Build 0)  -->
<!DOCTYPE svg PUBLIC "-//W3C//DTD SVG 1.1//EN" "http://www.w3.org/Graphics/SVG/1.1/DTD/svg11.dtd" [
	<!ENTITY ns_extend "http://ns.adobe.com/Extensibility/1.0/">
	<!ENTITY ns_ai "http://ns.adobe.com/AdobeIllustrator/10.0/">
	<!ENTITY ns_graphs "http://ns.adobe.com/Graphs/1.0/">
	<!ENTITY ns_vars "http://ns.adobe.com/Variables/1.0/">
	<!ENTITY ns_imrep "http://ns.adobe.com/ImageReplacement/1.0/">
	<!ENTITY ns_sfw "http://ns.adobe.com/SaveForWeb/1.0/">
	<!ENTITY ns_custom "http://ns.adobe.com/GenericCustomNamespace/1.0/">
	<!ENTITY ns_adobe_xpath "http://ns.adobe.com/XPath/1.0/">
]>
<svg version="1.1" id="Camada_1" xmlns:x="&ns_extend;" xmlns:i="&ns_ai;" xmlns:graph="&ns_graphs;"
	 xmlns="http://www.w3.org/2000/svg" xmlns:xlink="http://www.w3.org/1999/xlink" x="0px" y="0px" viewBox="0 0 925.7 720.7"
	 style="enable-background:new 0 0 925.7 720.7;" xml:space="preserve">
<style type="text/css">
	.st0{opacity:0.4;}
	.st1{fill:#848484;}
	.st2{fill:#E5D1BD;}
	.st3{fill:#EBB044;}
	.st4{fill:#C9B19B;}
	.st5{fill:#3B455A;}
	.st6{fill:#1A3151;}
	.st7{fill:#8C6B44;}
	.st8{fill:#EACDB0;}
	.st9{fill:#8EC3CB;}
	.st10{fill:#6EBA79;}
	.st11{fill:#AFE6F2;}
	.st12{fill:#474EBB;}
	.st13{opacity:0.2;}
	.st14{fill:#CCD2D9;}
	.st15{opacity:6.000000e-02;}
	.st16{opacity:0.49;fill:#808080;enable-background:new    ;}
	.st17{fill:#7E4923;}
	.st18{fill:#C8B198;}
	.st19{fill:#FFFFFF;}
	.st20{fill:#D34E4E;}
	.st21{fill:#D8D8D6;}
	.st22{fill:#F7F7F7;}
	.st23{fill:#7FC5A3;}
	.st24{opacity:0.25;fill:#3B455A;enable-background:new    ;}
	.st25{fill:#AAB4B5;}
	.st26{fill:#EC84EF;}
	.st27{fill:#E4E7EA;}
	.st28{opacity:0.2;fill:#D34E4E;enable-background:new    ;}
	.st29{fill:#F6F7F7;}
	.st30{fill:#EDECED;}
	.st31{fill:#BBBFC4;}
	.st32{opacity:0.2;fill:#2A3693;enable-background:new    ;}
	.st33{opacity:0.5;fill:#3B455A;enable-background:new    ;}
	.st34{fill:#DA6CE0;}
</style>
<metadata>
	<sfw  xmlns="&ns_sfw;">
		<slices></slices>
		<sliceSourceBounds  bottomLeftOrigin="true" height="720.7" width="925.7" x="0" y="0"></sliceSourceBounds>
	</sfw>
</metadata>
<g id="object">
	<g class="st0">
		<path class="st1" d="M424.7,614.9c-27.1,0.1-54.2,0.8-81.3,3.9c-10.2,1.2-20.2,3.8-30.4,4.8c-20.4,2.1-40.5,6-61,7.8
			c-16.5,1.5-33.1,2.3-49.5,4.2c-15.9,1.8-32,1.3-47.8-1.5c-11.3-2.1-22.7-3.3-33.9-6.7c-12.5-3.8-26-6.5-39-6.4
			c-18.5,0.1-36.6,0.2-54.3,6.8c-6.2,2.4-13.8,6.2-18.6,11.2c-10.8,11.2-12.3,39.4-1.5,51.1c18.2,19.7,57,27.4,82.5,27.8
			c28,0.4,55.1-1.8,83.1-3c26-1.2,52-2.9,78-2.8c53.2,0.1,106.4,0,159.5-3.7c49.9-3.5,99.9-2.3,149.9-2.3
			c51.3,0,102.2,0.4,153.1,7.5c22.2,3.1,44.8,4.2,67.1,6.3c20,1.9,39.2,0,59-1.8c16.8-1.5,33.3-6,48.5-13.5
			c12-6,33.4-24.5,37.1-38.8c10.3-39.9-145.5-39-169.4-38.9c-26.8,0.1-53.7,1-80.5,0c-11.2-0.5-22.3-2.7-33.3-5.2s-22-1.9-33-2.9
			c-46.2-4.4-92.6-3.7-139-3.7C454.9,615,439.8,614.9,424.7,614.9z"/>
	</g>
	<path class="st2" d="M251.7,359.7c-0.2-0.2-0.5-0.4-0.7-0.5c-2.5-1-4.4-0.1-7-0.5c-1.2-0.1-2.5-2.9-4.1-1c-0.6,0.7-1.8,2.6-3,4.1
		c-1.8,2.2-5.4,3.9-8.6,4.7c-4.2,1.2-8.6,2-12.9,2.6c-9.3,0.9-18.7,1-28.1,0.2c0.5-15.3-7.5-29.5-20.8-37.1
		c-1.3-0.8-2.8-1.3-4.4-1.5c-1.3,0-2.6,0.4-3.8,1.1c-12.4,6.4-5.9,17.9-1,27.4c3.1,6,6.5,11.7,10.4,17.1c5.5,7.6,13.4,9.1,22.4,8.8
		c9.6-0.3,19.4-0.8,28.8-3.1c4.6-1.1,8.6-3,12.9-4.8s4.8,0.3,8.9-0.2c2.3-0.3,4.7-0.1,6.9-0.9c4-1.3,5.4-5.4,6.9-8.8
		c0.4-0.7,0.6-1.5,0.6-2.3c-0.2-1.4-0.9-2.6-1.9-3.6C252.9,360.8,252.4,360.2,251.7,359.7z"/>
	<path class="st3" d="M154,367.1c2.8,4.3,5.8,8.4,8.8,12.3c4.5,5.7,9.5,11.8,16.6,13.4c2.8,0.5,5.6,0.6,8.4,0.4
		c13.3-0.7,26.5-1.7,39.7-3c1-6.9,0.9-13.9-0.2-20.8c-0.3-1.9-0.8-4-2.3-5.3c-2.2-1.9-5.5-1.3-8.3-0.5l-13.7,3.7
		c-1.5,0.4-3.1,0.8-4.5,0c-0.8-0.6-1.5-1.3-2-2.2c-10.1-16-15.4-31.3-21-49.3c-2.5-7.9-5.1-16.1-10.6-22.3
		c-11.9-13.2-33.8-5.3-33.1,13C132.6,327.3,142.1,349,154,367.1z"/>
	<path class="st4" d="M560.8,557.7l0.7,41.9c-0.3,11.6,0.8,23.2,1.5,34.8c0.7,10.8-1.5,21.8,3.6,31.8c1.6,3.1,5,5.3,7.6,1.7
		c2-2.8,1.1-7.6,1.6-10.8c3.7-24.3,10.6-48,14-72.3C593.3,559.3,583.5,559.9,560.8,557.7z"/>
	<path class="st5" d="M563.8,660l-0.3,0.7c-0.8,2-0.2,4.4,1.4,5.8l9.1,8c0.9,0.8,2,1.2,3.2,1.3l7.2,0.3c1.9,0.1,3.7-0.9,4.7-2.5l0,0
		c1.3-2.2,0.9-5-1-6.7l-11.2-9.7c-1.1-1-2.7-1.5-4.2-1.2l-4.9,0.7C566.1,657,564.5,658.3,563.8,660z"/>
	<path class="st4" d="M531.1,558.1l-7.6,41.2c-2.6,18.4-8.7,36.4-11.3,54.8c-0.6,4.2-0.3,8.9-2.1,12.9s-5.1,4.1-8.1,1.4
		c-4-3.5-2.2-9.9-2.1-14.8c0.5-32.3-2-64.2-2.7-96.6c-0.1-0.4,0.1-0.9,0.3-1.2c0.3-0.2,0.7-0.3,1-0.2
		C501.7,555.8,531,559,531.1,558.1z"/>
	<path class="st5" d="M499.9,661.5l-0.4,0.6c-1.2,1.8-1.2,4.2,0.1,6l7.1,9.9c0.7,1,1.7,1.7,2.9,2l7,1.9c1.8,0.5,3.8,0,5.1-1.4l0,0
		c1.8-1.8,2-4.7,0.5-6.8l-8.7-12c-0.9-1.2-2.3-2-3.8-2.1l-4.9-0.4C502.8,659,500.9,659.9,499.9,661.5z"/>
	<polygon class="st6" points="603.9,594.3 598.2,524.5 595.5,485.6 586.2,453.8 536.2,446 474.4,456.6 471.4,468.6 483.3,589.8 
		542.9,594.3 542.1,515.1 551.3,558 550.9,594.3 	"/>
	<path class="st7" d="M487.5,336.8c-0.1,2-0.1,4-0.2,6c-0.7,41.1,1.5,82.6,1.8,124.1c21.2-3.3,42.6-5.1,64.1-5.5
		c5-0.1,27.5,3.4,30.7,0.4c4.3-4-0.4-3.3-0.1-8.5c0.4-6.8-2.9-12.4-1.6-20.4c1.4-9.5,4.3-18.8,6-28.2c3.3-19,5.3-38.1,6-57.3
		c0.6-17,0-34.7-7.4-50.1c-18.1-38-76.4-37.3-92.4,2.4C489.7,311.4,488,324.1,487.5,336.8z"/>
	<path class="st5" d="M553.3,283.6l-15.8,28.9l2.5,87.4l1.1,40.3c0.1,4.7,0.2,9.3,0.4,14c0.1,2.1-0.5,5.6,0.7,7.3
		c2.6,3.7,12.1,2.5,16.2,2.9c6.4,0.5,13,1,19,3.3c4,1.5,7.9,3.7,12.1,4.3c0.9,0.2,2,0.1,2.8-0.5c0.8-0.8,1.1-1.9,1.1-3
		c1.5-20,1.5-40.6,2.6-60.9c0.9-15.9,3-31.9,2.3-47.9c-0.8-16.4-3.3-32.7-6.5-48.8c-1.9-9.5-4-19.2-9.3-27.4
		c-5.9-9.2-14.3-13-24.7-15c-3.7-0.7-17.3-5.9-15,2.4C543.9,275.1,550.5,280.2,553.3,283.6z"/>
	<path class="st5" d="M518.8,286.3l15.8,28.9c-0.3,0-2,70.7-2.2,75.5c-0.5,18.1-1,36.3-1.5,54.5c-0.2,5,0.5,11-0.5,15.9
		c-1.4,6.9-8.7,5.6-14.9,6.1c-13.6,1.2-27.9,3.5-41.5,2.9c-3.9-0.2,1.2-82.2,1.2-89.9c0-27.5-5.7-58.1,8.3-83
		c4.1-7.3,11.2-18.9,19.2-22.5c7.4-3.3,17.9-3.9,26-5.8l0.4,5.2L518.8,286.3z"/>
	<path class="st5" d="M553.2,216.4c2.4,4.4,3.8,9.4,3.9,14.4c0.1,1.3,0.2,2.9,1.2,3.7s0.1,2.7,1,1.6s3.9-5.1,4-6.5
		c0.3-3.3,0.3-6.7,0-10c-0.3-2.9-0.9-5.9-2.8-8.1c-1.2-1.3-2.6-2.3-4.1-3.1c-2.1-1.4-4.4-2.5-6.8-3.1c-4.2-0.8-6.9,0.7-3.1,3.7
		C549.2,211,551.5,213.5,553.2,216.4z"/>
	<path class="st4" d="M526.6,273.4c0,2-0.4,4.2,1.4,5.8c0.9,0.7,2,1.1,3.2,1.3c3,0.5,6,0.3,8.9-0.6c1.2-0.3,2.3-0.9,3.2-1.7
		c0.9-0.9,1.3-2.1,1.2-3.3c0.1-1.5,0.4-3.1,0.6-4.7c0.4-3.4,0.7-6.9,0.7-10.4c5.1-0.9,11.1-2.5,12.8-7.9c0.5-1.7,0.7-3.5,0.6-5.3
		c0.1-7.4,0.1-14.8,0.2-22.2c0.2-2.6-0.1-5.1-0.8-7.6c-1.5-4.2-5.4-6.6-9.3-8.2c-9.8-4-21.1-3.8-30.2,1.8c-2.5,1.5-4.6,3.6-6,6.1
		c-2.1,4.1-1.9,9.1-1.5,13.8c0.3,4.3,0.6,8.7,0.9,13c0.4,5,1.1,10.7,5,13.3c2,1.4,4.7,1.6,6.5,3.5c3.1,3.1,1.6,7.9,2.5,11.7
		C526.6,272.3,526.6,272.8,526.6,273.4z"/>
	<path class="st5" d="M542.6,254c-2.5,1.7-5.7,2-8.5,1c-1.2-0.4-0.7-2.5,0.5-2.1c2.3,0.9,4.9,0.6,7-0.8
		C542.7,251.4,543.7,253.3,542.6,254z M561.1,243.6c-0.1-1.4-0.7-5.4-2.7-2.9c-0.5,0.7-0.7,1.6-0.7,2.5c0,0.9-0.1,1.8-0.3,2.6
		c-0.6,1.9-2.7,2.8-4.6,2.7c-0.8,0-1.5-0.2-2.2-0.5c-0.6-0.4-1.2-0.9-1.6-1.5l-3.6-4.1c-2.1-2.4-6.2-1.4-9-1c-3.3,0.3-6.4,1.5-9,3.5
		l-0.8,0.7c-0.6,0.6-1.3,1.1-2,1.4c-2.5,1.2-5.5-0.1-7.3-2.3c-0.8-1-1.5-2.4-2.8-2.5c-1,0-2,0.5-2.4,1.5c-0.4,0.9-0.7,2-0.7,3
		c-0.3,3.8,0.3,7.7,1.9,11.1c3.6,7.3,10.5,8.2,17.5,8.1l8.3-0.2c5-0.1,10.4-0.3,14.6-3.2c3.7-2.6,6-7,6.9-11.6
		C561,248.4,561.2,246,561.1,243.6L561.1,243.6z"/>
	<path class="st5" d="M562.1,203.6c0.5-1.8,0.8-3.6,1.1-5.5c-1.7,0.6-3.6,0.8-5.3,0.5v-3.2c0-0.9-12-1.5-12.9-1.6
		c-9.1-0.8-17.4-1.5-25.6,3.4c-7,4.2-11.5,10.4-12.6,18.5c-1,7.7,1.5,17.9,6,24.3c0-2.1-1.2-6.9-0.7-8.9c0.3-2,1-3.9,1.9-5.6
		c1.9-3.5,4.7-6.4,8.1-8.5c5.4-3.2,11.5-5.3,17.7-6c5.7-0.8,12.6-1.5,18.2,0c2.7,0.7,3.1,1.4,4.8-1.3c0.3-0.5,2.6-6.1,2.3-6.1
		L562.1,203.6z"/>
	<path class="st4" d="M598.5,311.2c-2.6-0.2-5.2-1.1-7.3-2.7c-8.8-5.8-12.5-16.4-17.4-25.3c-2.9-5.3-5.7-13.2-10.1-17.3
		c-0.8-0.8-10.4-5.3-10.3-5.6l0.5-2.6l2.6,0.5l1.5-1l-7-3.6l4.6-7.7l10.4-0.3c3,5.8,4.6,12.5,9,17.4c1.8,2.1,4,3.9,6,5.8
		c3.5,3.3,6.4,7.1,9.6,10.7c4,4.6,10.1,8.4,12.5,14.2c1.3,3.2,3.5,10.5,2,13.8C603.7,309.9,601.2,311.3,598.5,311.2z"/>
	<path class="st5" d="M606.1,299.3c1.3-0.1,2.4,0.9,2.5,2.2c0,0.2,0,0.3,0,0.5c0.7,8.2-0.6,16.5-2,24.6
		c-1.9,11.3-4.3,23.4-12.2,31.7c-4.6,4.8-12,8-17.8,4.8c-5.1-2.7-7-9.1-7.8-14.8c-2.3-17.1,0.5-34.5,8.2-50c0.4-1.1,1.1-2,2-2.8
		c2.3-1.6,9.4,0.9,12.1,1.4L606.1,299.3z"/>
	<path class="st4" d="M475.5,264.1c3.4-2.8,4.7-7.5,3.1-11.6l-8.4-22.8c-1.6-4.3-4.6-9.3-4.6-13.8c-0.1-7.9,2.7-16.8,4.3-24.4
		c0.8-3.9,1.1-9.4,3.2-12.8c0.4-0.6,5.6-5.3,5.5-5.5l-0.8-1.6l-1.5,0.8l-1.2-0.4l3.7-3.6l-4.3-4l-6.6,1.8c-0.8,4.2-0.6,8.7-2.4,12.7
		c-0.8,1.7-1.8,3.2-2.7,4.8c-1.6,2.7-2.7,5.7-4,8.6s-3.1,5.3-4.3,8.1c-2.7,6.1-5.3,12.3-8,18.5l12.3,40.1c1.7,5.6,7.7,8.7,13.2,7
		C473.2,265.6,474.5,264.9,475.5,264.1z"/>
	<path class="st5" d="M504.7,267.9c-5-2.1-9.5-5.1-13.5-8.7c-1.8-1.6-9.8-16.9-8.3-17.3l-0.4,0.1l-1.1,0.4h-0.1
		c-2.4-0.2-6.7,2.1-9,2.9c-7.6,2.4-15.1,5.2-22.9,6.5c0.1,6.8,1.2,13.6,3.2,20.1c1.7,6,4.7,10.9,7,16.5c2.4,5.7,5.2,11.3,8.4,16.7
		c0.8,1.3,8.3,16.9,7.9,17c4.4-0.8,7.8-4.2,10.4-7.8c6.3-8.3,9.3-19.6,17.2-26.3c6.1-5.3,14.2-5.8,13.4-16.4
		C512.7,270.9,508.7,269.6,504.7,267.9z"/>
	<path class="st8" d="M374.2,240.4c-0.1,1.3-0.4,2.6-1,3.7c-1.5,3.9-2,8.2-1.4,12.3c4,0,8.1,0.6,11.9,1.9c0.8-3,1.7-6,2.5-9.1
		c0.1-0.5,0.3-0.9,0.6-1.3c0.4-0.5,1-0.8,1.6-1c3.2-1.3,6.3-3.1,8.9-5.4c0.6-0.5,1.1-1.1,1.4-1.7c0.2-0.6,0.3-1.3,0.3-2
		c0-5.5,0-10.9,0-16.4c0.1-0.6-0.1-1.2-0.4-1.8c-0.4-0.5-1-0.8-1.6-1l-2.8-1c-0.3-0.1-0.5-0.2-0.8-0.3c-1.3-0.6-2.9-0.6-4.2,0
		c-0.4,0.1-4.4,1-4.5,0.7c0.5,5.9-1.1,11.8-4.7,16.5c-0.2,0.6-0.8,0.8-1.4,0.6c-0.3-0.1-0.5-0.3-0.6-0.5c-1.3-1.4-2.3-2.9-3.1-4.7
		l-4.5,1.1c-0.4,2.5,0.4,5,2.1,6.9c0.2,0.2,0.3,0.3,0.5,0.5C373.7,238.9,374.2,239.6,374.2,240.4z"/>
	<polygon class="st9" points="389.4,248.7 370.5,245.6 351.3,298.1 306,290.4 315.9,350.9 373.6,316.3 	"/>
	<path class="st2" d="M240.2,651.9c-2.9,0.2-5.5-0.8-8.3-1.1c0.1-9.7,1.2-19.4,3.3-28.8c4.3,4.8,7.9,2,7.8,11
		C243,635.9,239.6,647.5,240.2,651.9z"/>
	<path class="st5" d="M231.3,645.9c-3.2-1.2-4,6.6-4,8.4c0.1,1.1,0,2.2-0.2,3.3c-0.4,1.1-1,2.2-1.8,3.1l-4.7,5.9
		c-0.8,0.9-1.4,1.8-1.8,2.9c-0.8,2.8,0.5,5.8,3.1,7.1c8.7,4.4,16.7-6.3,18.6-13.3c0.3-1.1,0.5-2.2,0.7-3.3c0.4-2.3,2.2-7.2,1.3-9.5
		c-1.1-2.6-4.2-0.7-6.3-1.7C234.2,648,232.6,646.4,231.3,645.9z"/>
	<path class="st10" d="M293.3,490.5c-8.1,22.2-17.5,43.9-22.9,67.1c-6.6,28.7-17.3,56.6-22.8,85.4c-3.5,0.1-7.1,0-10.6-0.5
		c-4-0.5-10.4-1.6-11.9-6c-0.8-2.2,0-5.9,0.2-8.2c0.4-7.5,0.9-15,1.4-22.5c1.6-21.2,2.6-42.6,6.5-63.4c4.1-21.9,8-44,11.6-65.9
		c1.9-11.3,4.1-22.6,7-33.7c0.7-2.9,8.3-32.5,9.8-32.2c17.5,2.7,34.3,8.7,49.5,17.8c1.5,0.9,2.9,1.9,3.5,3.5c0.4,1.5,0.2,3-0.4,4.4
		c-4.6,13.6-10.7,26.4-15.6,40C296.9,480.9,295.1,485.6,293.3,490.5z"/>
	<path class="st2" d="M294.9,650.3c2.7,1,5.5,0.8,8.2,1.4c2.8-9.3,4.6-18.9,5.4-28.5c-5.5,3.3-8.2-0.5-10.7,8.2
		C297,634.2,296.7,646.3,294.9,650.3z"/>
	<path class="st5" d="M305.9,648.9c0,5.3,4.2,11,6.5,15.8c0.9,1.4,0.7,3.2-0.5,4.3c-0.7,1.1-1.6,2-2.8,2.6c-1.2,0.4-2.5,0.4-3.7,0
		c-2.1-0.5-4.1-1-6.1-1.6c-0.5-0.1-1-0.4-1.4-0.7c-0.5-0.4-0.8-0.9-1.1-1.5c-1.4-2.9-2.6-4.9-2.6-8.1s0.5-6.7-0.1-10
		c-0.3-1.6-0.7-3.6,0.7-4.5c1-0.7,3,0.2,4.1,0.4c2,0.3,3.9,0.2,5.8,1.3c0.4,0.2,0.7,0.5,1,0.8C305.8,648.1,305.9,648.5,305.9,648.9z
		"/>
	<path class="st10" d="M292.1,480.4c1.2,23.6,3.7,47.1,1.9,70.8c-2.2,29.3-0.3,59.2-3.6,88.3c3.3,1.2,6.8,2.1,10.3,2.7
		c4,0.8,10.4,1.6,13.1-2.2c1.4-1.9,1.7-5.7,2.3-7.9c1.9-7.3,3.6-14.6,5.3-21.9c4.8-20.7,10.1-41.4,12.6-62.5
		c2.6-22.2,5.4-44.3,8.5-66.4c1.6-11.4,2.8-22.8,3.4-34.3c0.2-3,1.7-33.4,0.2-33.7c-17.5-2.6-35.3-1.8-52.5,2.2
		c-1.7,0.4-3.4,1-4.3,2.3s-0.9,2.8-0.9,4.3c0.3,14.4,2.4,28.4,3,42.8C291.6,470.2,291.9,475.2,292.1,480.4z"/>
	<path class="st11" d="M282.2,291.1c-0.3,0.1-0.6,0.2-0.9,0.3c-4.7,1.8-8.8,5-12.7,8.2c-5.9,4.8-8.9,6.9-11.1,14
		c-2,6.7-3.6,13.5-4.8,20.4c-6.7,35-8,69.8-12.8,105.1c-1.3,9.6-2.3,20.9,4.8,27.5c12.6-9.8,28.4-10.4,43.7-10.4
		c10.7,0,21.2-3.5,32-2.3c10.3,1.1,19.2-1.4,29.7-0.7c2.5,0.2,5.7,0.1,6.7-2.2c-3.6-10.8-3.5-22.5-4.4-33.8
		c-2.1-29.4-11.9-57.6-15.8-86.8c-1.3-9.9-2-26.4-9.7-33.9c-8.4-8.2-27.4-8.3-38.2-6.7C286.5,289.9,284.3,290.4,282.2,291.1z"/>
	<path class="st8" d="M290.2,290.6c0.2,0.4,0.4,0.7,0.7,1c1.3,1.2,2.9,2,4.7,2.2c2.3,0.2,4.6,0.1,6.8-0.5c3-0.6,2.9-2.4,3.4-5.1
		c0.2-1.5,0.4-3,0.5-4.5c0.1-0.8-0.3-3.8,0.3-4.4c0.4-0.4,1.8-0.3,2.5-0.6c1-0.6,1.9-1.4,2.5-2.5c0.9-1.6,1.6-3.2,2.1-5
		c0.9-3,1.9-6.1,2.8-9.1c1.1-3.1,1.8-6.2,2.2-9.4c0.5-4.9-0.3-11.7-4-15.3c-3.4-3.2-8.2-4.4-12.7-4.9c-6-0.8-12,0.4-17.2,3.5
		c-2.2,1.2-4,3-5.3,5.2c-1.9,3.5-1.7,7.9-1.5,11.9l0.6,11.3c0.2,4.3,0.8,9.3,4,11.7c1.7,1.2,4,1.5,5.5,3.1c1.8,2,1.7,5,1.8,7.5
		C289.5,287.9,289.7,289.3,290.2,290.6z"/>
	<path class="st5" d="M309,241.9c0.2,0.3,0.4,0.7,0.5,1.1c0.7,2,0.2,4.2,0.9,6.2c1.1,3.2,4.8,5.1,5.3,8.4c0.5,2.7-1.4,5.3-1.5,8
		c-0.2,3,1.7,5.8,1.5,8.8c-0.5,3-1.7,5.8-3.4,8.2c0.5-0.6,4.8-0.4,5.9-1.1c1.7-1,1.9-1.7,2.4-3.5s0.1-3.5,0.9-5.3
		c1-2.2,3-3.8,3.6-6.2c0.9-3.2-0.8-6.6-0.6-10c0.2-5.1,4.6-9.9,3-14.7c-0.9-2.8-3.7-4.6-5.2-7.2c-1.2-1.9-1.6-4.2-2.4-6.3
		s-2.2-4.2-4.4-4.9c-1.2-0.2-2.5-0.4-3.7-0.4c-2.1-0.4-3.9-1.9-6-2.6c-3-1-8.2,2-9.9,4.5s-0.9,4.6,0.9,6.8
		C299.5,235.3,306.5,237.7,309,241.9z"/>
	<path class="st5" d="M269.2,226.9c-1.8,1.3-4,2.2-5.6,3.8c-3.1,2.9-3.7,7.7-3.9,12c-0.1,3.8-1.8,7.3-1.4,11.3
		c0.2,2.7,1.5,5.3,3.6,7c2.7,2,7,2.3,8.2,5.4c1.3,3.4-2.2,7.7-0.1,10.7c1.2,1.6,3.5,1.9,5.2,3c1.9,1.2,2.9,3.4,4,5.4
		s2.9,3.9,5.1,3.9c0.1-3.4,0.2-6.1-1.3-9.3c-0.9-1.8-3.4-5.2-1.4-7.2c1.2-1.6,4.1-2.2,4.2-4.2c-0.1-1-0.5-1.9-1.2-2.6
		c-2-3.2-2.3-7.2-0.9-10.7c1.5-3.4,4.2-6.2,7.6-7.8c3.9-1.9,3.3-2.9,4.4-6.6c1-3.4,3-4.3,6.1-5.5c2.8-1.1,3.7-1.8,4.7-4.4
		c0.8-1.9,1.7-4.2,0.6-6.3c-1-1.6-2.3-3-3.9-4.1c-3.2-2.4-6.7-5-10.7-4.7c-2.2,0.2-4.3,1.2-6.5,1.3c-1.5,0.1-2.9-0.2-4.4-0.3
		c-2.6-0.1-5.1,0.7-7.2,2.2c-2,1.5-2,3.1-3.1,5.2C271,225.3,270.2,226.2,269.2,226.9z"/>
	<path class="st5" d="M278.1,212.8c0.4-2.4,0.1-5.5-2.1-6.3c-1.2-0.4-2.6,0-4-0.2c-2.8-0.6-3.7-3.9-5.1-6.3
		c-0.2-0.4-0.5-0.7-0.9-0.9c-0.6-0.2-1.2-0.2-1.8,0c-2.8,0.3-4.8-2.4-7.4-3.4c-3.4-1.1-7.1,0.7-8.2,4.1c-0.4,1.4-0.3,2.8-0.7,4.2
		c-1.5,5.5-9.6,7.9-9.8,13.6c-0.1,3.9,3.6,7.6,2.2,11.1c-0.9,2.3-3.9,3.8-3.5,6.3c0.4,1.6,1.8,2.7,3.5,2.6c1.6-0.1,3.1-0.8,4.2-1.9
		c1.9-1.7,3.3-3.8,5.1-5.5s4.2-3.2,6.7-2.9c2.5,0.3,4.6,2.2,7,1.8c1.9-0.3,3.4-2,5.2-2.5s3.6,0.2,5.4,0.4s4.1-0.8,4.1-2.7
		c-0.1-0.4-0.1-0.9,0-1.3c0.4-1.2,2.4-1.1,2.8-2.3c-1-1.5-2.3-0.9-3-2.9C277.4,216.2,277.9,214.3,278.1,212.8z"/>
	<rect x="267.9" y="322.4" class="st12" width="375.4" height="260.6"/>
	<g class="st13">
		<path class="st14" d="M366.3,330.7h-89.6v79.6C276.7,366.3,316.8,330.7,366.3,330.7z"/>
	</g>
	<g class="st15">
		<path class="st14" d="M432,583h211.3V449.6C643.3,449.6,623.8,583,432,583z"/>
	</g>
	<path class="st16" d="M604.8,140.8c0-0.1,0-0.2,0-0.3l0.2,0.1C604.9,140.7,604.8,140.8,604.8,140.8z"/>
	<path class="st5" d="M82.5,664.9l-0.4,5.2c-0.1,2,0.9,3.8,2.6,4.9l10.3,6.1c1.9,1.1,4.4,0.9,6.1-0.5l2.2-2c2.2-1.9,2.4-5.2,0.5-7.4
		c0,0,0,0,0,0l-3.9-4.4c-0.4-0.4-0.8-0.8-1.3-1.1l-8.3-4.9c-2.5-1.5-5.7-0.6-7.2,1.8C82.9,663.3,82.6,664.1,82.5,664.9L82.5,664.9z"
		/>
	<polygon class="st17" points="178.4,425 139.4,422.6 137.2,403.7 72.3,409.9 70.5,435.5 96.8,549.1 80,663.9 96.5,668.5 
		142.1,540.1 144,547.2 164.8,674.5 180.4,673.2 188.8,532.6 	"/>
	<path class="st5" d="M165.1,677.8L165.1,677.8c0.2,2,1.4,3.7,3.3,4.4l11.1,4.4c2.1,0.8,4.5,0.2,5.9-1.5l1.9-2.3
		c1.9-2.2,1.6-5.5-0.6-7.4c0,0,0,0,0,0l-3.5-3c-1.1-0.9-2.4-1.3-3.8-1.2l-9.5,0.8C167,672.4,164.9,675,165.1,677.8z"/>
	<path class="st3" d="M57.3,423.3c-1.2,9.8-2.3,23,1.4,23.9c0.7,0.1,1.4,0,2.1-0.4c6.9-2.9,12-7.4,18.8-10.2c7.1-2.9,15-4,22.7-4.6
		c11.5-0.9,23.2-0.9,34.7,0c9.1,0.8,18.1,2.5,27,4.2c7.4,1.4,14.2,4.4,21.9,4.6c7.9,0.3,15.8-1.3,22.9-4.7c0.5-0.1,0.9-0.7,0.8-1.2
		c0-0.1-0.1-0.2-0.1-0.3c-1.1-4.5-1.8-9-4.4-12.9c-2.8-4.4-4.6-9.8-6.4-14.6c-4-10.2-7.3-20.6-9.8-31.2
		c-3.7-14.4-8.2-28.6-11.7-43.1c-2.4-10-4.6-20.2-8.3-29.9c-2.9-7.6-8.4-18.7-15.9-22.7c-2.6-1.4-5.5-1.8-8.4-2.1l-26.1-3.5
		c-3.2-0.4-6.5-0.8-9.5,0.2c-4.5,1.5-7.5,5.8-10,9.9c-11.6,18.1-19.9,38-25.5,58.8c-2.9,10.9-5.8,21.8-8.2,32.8
		c-2.7,12.3-5,24.6-6.5,37.1C58.5,414.8,57.9,418.7,57.3,423.3z"/>
	<path class="st5" d="M126.4,324.2c-0.2,5-1.4,9.8-2.6,14.7c-7.4,29.4-14.7,58.8-22.1,88.2l70.3,6.7c0.3-11.3,0.6-22.5,0.9-33.8
		c0.4-7.2,0.2-14.5-0.4-21.7c-1.3-11.6-5-22.8-8.8-33.9L142.8,283c-0.3-1.1-0.8-2.2-1.6-3.1c-1.1-0.9-2.4-1.6-3.7-1.8
		c-6.6-1.9-14-3.6-20.8-3.3c-2.3,6,2.8,17.2,4.5,23.2C123.6,306.5,126.7,315.1,126.4,324.2z"/>
	<path class="st18" d="M135.1,282.1l-14.5-2.1c0.1-3.9,0.6-7.8,1.4-11.6c-0.1,0.5-7.4-4.4-8-5.4c-1.7-2.9-1.5-7.4-2-10.7
		c-1-6.9-1.9-14.8,2.3-20.4c4.3-5.8,12.6-7.1,19.9-6.6c9.1,0.7,19,4.4,22.9,12.7c3.5,7.5-2.9,17.3-5.2,24.6
		c-1.1,3.6-2.7,7.7-6.3,8.9c-1.9,0.6-4.1,0.3-5.8,1.3C136.6,274.5,136.8,279,135.1,282.1z"/>
	<path class="st5" d="M172.7,226c1.1-5,2.1-9.9,3.2-14.9c0.5-1.8,0.7-3.7,0.4-5.6c-0.7-3.1-3.5-5.2-6.4-6.3s-6.1-1.5-9.1-2.5
		c-3.2-1.1-6.2-2.8-9.5-3c-6.4-0.4-11.8,5-18.2,5.3c-8.8,0.5-16.3-4.3-22.6,5.3c-1.2,1.8-1.6,3.9-2.7,5.8c-1.3,2.4-3.6,4.1-5.3,6.2
		c-7.9,9.1-7.2,24.2,0.2,33.4c3.6,4.4,4.9,8.3,10.3,10.1c-2-5.4,3.5-25.6,10.7-27.2c1.9-0.4,7.2,2.4,9.2,2.9c4.5,1,8.8,2.5,12.8,4.5
		c6.1,3.3,12.7,5.7,19.5,7c1.3,0.6,2.8,0.1,3.4-1.2c0.2-0.4,0.3-0.8,0.2-1.2C170.1,238.4,171.4,232.2,172.7,226z"/>
	<path class="st12" d="M426.4,118.5c-3.4-22.9,12.2-44.3,35.1-48c-0.1-0.7-0.3-1.4-0.4-2.2c-4.2-28,15.2-54.1,43.1-58.2
		c14.6-2.2,29.5,2.1,40.7,11.6c14.1-22,43.5-28.4,65.5-14.3c10.7,6.9,18.2,17.8,20.8,30.3c1-0.2,2.1-0.5,3.2-0.6
		c23.1-3.5,44.6,12.4,48.1,35.5c2.7,18.1-6.5,35.9-22.9,44.1c11.8,19.2,5.8,44.5-13.4,56.3c-4.7,2.9-9.9,4.8-15.4,5.6
		c-1.7,0.3-3.4,0.4-5.1,0.4l6.5,43.3c0.2,1.9-2,3-2.9,2.1l-33.2-34.4c-16.8,15.1-42.6,13.8-57.7-3c-0.6-0.6-1.1-1.3-1.6-1.9
		c-19.2,16.4-48,14.1-64.4-5c-5.6-6.5-9.2-14.5-10.5-23c-0.2-1.1-0.3-2.2-0.4-3.2C443.4,151.1,429.2,136.8,426.4,118.5z"/>
	<path class="st19" d="M506.8,111.1c6.2-0.9,7.6,8.7,1.4,9.6S500.6,112,506.8,111.1z"/>
	<path class="st19" d="M549.9,104.6c6.2-0.9,7.6,8.7,1.4,9.6S543.8,105.5,549.9,104.6z"/>
	<path class="st19" d="M603.9,96.5c6.2-0.9,7.6,8.7,1.4,9.6S597.7,97.5,603.9,96.5z"/>
	<path class="st19" d="M612,374.8l-15.9,12.6c2.7,4.1,5.3,8.3,7.9,12.5c1.3,2.1-2.2,3.8-3.4,1.7c-2.4-4-4.9-7.9-7.4-11.8l-15.4,12.3
		c-1.9,1.5-4.4-1.4-2.5-2.9l15.8-12.6c-3.1-4.7-6.3-9.3-9.6-13.8c-1.4-2,1.4-4.5,2.9-2.5c3.3,4.6,6.5,9.2,9.7,13.9l15.4-12.3
		C611.4,370.4,613.9,373.2,612,374.8z"/>
	<path class="st19" d="M593,430.2c-1.2-7-3-13.9-5.5-20.6c-0.6-1.5-2.4-1.2-3.3-0.2c-5,5.8-9.1,12.4-12.3,19.4
		c-0.8,1.8,1.7,3.2,3,2.1c1.8-1.4,3.4-3,5-4.6c-8.8,28.1-17.2,62.6-48.9,69.1c-28.3,5.8-44.3-25.8-56.6-46
		c-10.5-17.3-21.7-36-39.4-46.8c-18.8-11.6-42-10.8-61.1-0.3c-19.3,10.5-34.7,29.9-34.3,52.6c-12-0.7-22.4,8.1-24.6,20.1
		c-1.9,10.1,3.3,26.6,15.1,26.1c-0.2,0.8,0.3,1.7,1.2,1.9c0,0,0,0,0,0c13.4,3.5,26.1-5,28.7-18.6c2.5-12.3-4-26-16.7-29
		c-1.3-30.8,30.4-56.8,59.6-57.5c48.2-1.2,63.3,53.5,88.7,84.1c7.6,9.1,17.3,16.8,29.5,17.8c11.4,1,22.3-3.7,31.1-10.9
		c21.2-17.4,25.6-45.7,34.2-70.4c1.2,4.1,2.2,8.3,2.9,12.5C589.7,433.4,593.4,432.6,593,430.2z M340.6,458.7
		c0.3,0.1,0.5,0.2,0.8,0.1c0.4,0.1,0.8,0.1,1.2,0.2c23.4,5.3,15.4,44.3-7.9,40.6c1-1.3,0.2-3.7-1.7-3.1c-13.9,4.2-16.4-16.7-13-25.4
		C323.1,462.8,331.6,457.7,340.6,458.7z"/>
	<path class="st3" d="M321,485.9c-0.2-1.2-0.3-2.4-0.3-3.6c-0.3-13.9,6.9-23.1,21.1-19.8c7.3,1.7,11.6,11,11.6,17.9
		c0,4.6-1.4,9.8-5.4,12.2c-6.4,4-21.5,4.5-25.7-3.1C321.7,488.4,321.2,487.2,321,485.9z"/>
	
		<rect x="369.1" y="156.6" transform="matrix(0.8164 -0.5775 0.5775 0.8164 -71.9192 261.4528)" class="st20" width="12.3" height="174.5"/>
	
		<rect x="388.5" y="140.9" transform="matrix(0.8171 -0.5764 0.5764 0.8171 -59.1049 269.1478)" class="st20" width="12.3" height="173.8"/>
	
		<rect x="378.5" y="147.9" transform="matrix(0.8171 -0.5764 0.5764 0.8171 -65.0264 264.6548)" class="st21" width="12.3" height="173.8"/>
	
		<rect x="315.2" y="160.8" transform="matrix(0.8171 -0.5764 0.5764 0.8171 -32.6546 222.0112)" class="st14" width="36.9" height="3.3"/>
	
		<rect x="313.2" y="158.1" transform="matrix(0.8171 -0.5764 0.5764 0.8171 -31.4519 220.4086)" class="st22" width="36.9" height="3.3"/>
	
		<rect x="311.4" y="155.4" transform="matrix(0.8171 -0.5764 0.5764 0.8171 -30.2349 218.8193)" class="st14" width="36.9" height="3.3"/>
	<path class="st20" d="M329.8,125.1l12.2,17.3l0,0l-30.1,21.3l0,0l-12.2-17.3c-4.8-6.9-3.2-16.4,3.7-21.2l5.3-3.7
		C315.4,116.6,324.9,118.2,329.8,125.1z"/>
	
		<rect x="309.4" y="152.7" transform="matrix(0.8171 -0.5764 0.5764 0.8171 -29.0197 217.2242)" class="st22" width="36.9" height="3.3"/>
	<polygon class="st21" points="449.8,295.2 419.7,316.4 460.9,342.9 	"/>
	<polygon class="st23" points="458.3,331.8 451.3,336.7 460.9,342.9 	"/>
	<path class="st24" d="M137.7,532.7c0,0,167.6,7.1,169.7,5.8s0.9-169.5-5.7-175.9C301.8,362.5,147.9,522.2,137.7,532.7z"/>
	<path class="st20" d="M301.6,532.7h-172c4.6-30.2,6.7-60.8,6.4-91.4c-0.3-27.3-0.1-50.9-4.1-77.1c57.3,0,112.3-3.6,169.7-3.6
		c2.4,24,4.1,50.2,4.3,78.4C306.2,470.2,304.7,501.5,301.6,532.7z"/>
	<path class="st19" d="M210.5,431c-1.2-11.3-5.2-24.5-16.5-29.5c-12.8-5.8-26.6,0.2-38.4,5.7c-1.6,0.8-0.2,3.1,1.4,2.4
		c1.2-0.5,2.4-1.1,3.6-1.6c2.4,25.4-2.5,50.8-0.7,76.1c-0.3,0.6-0.3,1.3,0.1,1.8c0,0.6,0.1,1.1,0.1,1.7c0.2,1.8,2.9,1.8,2.8,0
		c-0.1-0.6-0.1-1.2-0.1-1.8C185.6,477.9,213.4,457.8,210.5,431z M191,466.2c-8.2,7.4-17.8,13-28.3,16.6c-1.6-25.4,3.3-50.7,0.7-76.1
		c9.8-4.2,20.8-7.4,30.7-2.2c10.5,5.5,14,20.5,14,31.4C207.9,448.3,199.7,458.3,191,466.2z"/>
	<path class="st19" d="M231.7,447.4c-4.1-1.6-9.6,0.4-13.1,2.6c-5.1,3.4-8.5,8.7-9.7,14.7c-2.4,11.1,0.6,25.2,14,26.3
		c12.8,1,22.6-10.5,23.9-22.5C247.9,458.5,241.9,447.7,231.7,447.4z M243.7,470.6c-2,9.1-9.3,17.6-19.3,17.6
		c-12.3,0-14.9-13-12.8-22.8c0.8-4.5,3.1-8.6,6.5-11.6c2.5-2.2,5.6-3.6,8.9-4.2c0.3,0.6,0.9,1,1.6,0.8c0.8-0.2,1.6-0.3,2.4-0.3
		c0.3,0.1,0.6,0.3,0.9,0.5c0.5,0.4,1.2,0.3,1.6-0.2c0-0.1,0.1-0.1,0.1-0.2C241.8,451.9,245.4,462.5,243.7,470.6L243.7,470.6z"/>
	<path class="st19" d="M269.3,479.1c-0.1-0.1-0.1-0.1-0.2-0.2c-1.6-1.6-3.8-0.6-4.6,1.1c-0.9,1-1.4,2.4-1.3,3.7
		c0.1,1.6,1.4,2.8,3,2.8c1.7-0.1,3.1-1.4,3.4-3c0.7-0.7,1-1.7,0.8-2.7C270.3,480.1,269.9,479.5,269.3,479.1z"/>
	<path class="st19" d="M275.7,416.4c-1.3-2.3-4.9-2.3-7.2-2.4c-0.8,0-1.4,0.6-1.4,1.4c-0.5,16.3-0.6,32.7-0.4,49
		c1,1.4,2.8,2,4.4,1.2c0.3-12.1,1.4-24.2,3.1-36.2c0.4-2.7,0.9-5.3,1.3-8C275.9,419.9,276.5,417.9,275.7,416.4z M269.8,416.8h0.4
		c-0.1,0.2-0.2,0.4-0.2,0.6c0,0.5-0.1,1-0.2,1.5C269.8,418.2,269.8,417.5,269.8,416.8L269.8,416.8z M269.6,426.1
		c0.2,0.1,0.4,0.2,0.7,0.2c-0.3,1.5-0.6,2.9-0.8,4C269.5,428.9,269.6,427.5,269.6,426.1L269.6,426.1z"/>
	<path class="st18" d="M170.7,413.7c-0.1-0.3-0.2-0.6-0.4-0.9c-1.7-2.3-4-2.5-6.3-4.3c-1-0.8-0.7-4.1-3.3-3.2
		c-0.9,0.3-3.1,1.4-5.1,2.1c-2.9,1-7.2,0.6-10.6-0.4c-4.6-1.3-9.1-2.9-13.5-4.8c-9.2-4.3-18-9.5-26.3-15.5c8.9-14,9.4-31.8,1.2-46.2
		c-0.8-1.5-1.9-2.8-3.3-3.8c-1.3-0.7-2.7-1.1-4.1-1.1c-15.1-1-15.4,13.4-16.1,25c-0.5,7.3-0.4,14.6,0.2,21.8
		c0.9,10.1,7.4,15.9,16,20.7c9.2,5.1,18.5,10.1,28.6,13.1c4.9,1.5,9.7,1.9,14.7,2.8s4.3,3,8.4,4.8c2.3,1,4.5,2.5,6.9,3.1
		c4.4,1,8-2,11.4-4.4c0.8-0.4,1.4-1.1,1.8-1.8c0.7-1.4,0.4-2.9,0.2-4.4C171.2,415.4,171,414.5,170.7,413.7z"/>
	<path class="st3" d="M75.3,366.2c0.2,5.6,0.7,11.1,1.3,16.3c1,7.8,2.3,16.3,8,21.8c2.3,2,4.9,3.7,7.6,5
		c12.7,6.8,25.6,13.2,38.7,19.3c4.8-5.9,8.6-12.5,11.4-19.6c0.8-2,1.5-4.2,0.8-6.2c-1-3-4.5-4.2-7.5-5.1l-14.8-4.2
		c-1.6-0.5-3.4-1-4.2-2.5c-0.5-1-0.7-2.1-0.6-3.2c-0.5-20.6,3.2-37.8,7.9-57.7c2.1-8.8,4.2-17.9,2.5-26.7
		c-3.7-18.9-28.6-23.8-38.1-6.3C77.6,317.1,74.4,342.7,75.3,366.2z"/>
	<path class="st8" d="M614.4,377.4c0.7-0.9,1.5-1.6,2.6-2c1.4-0.6,3.1-0.9,4.8-2c1.2-0.8,0.9-3.7,3.8-2.6c1,0.4,2.9,1.7,4.9,2.5
		c2.9,1.1,7.1,1,10.6,0.2c13.8-3,27.7-5.8,41.8-7.2c0.8,0,1.6-0.2,2.3-0.6c1.2-0.9,1.4-2.2,1.7-3.6c1.3-6.3,3.2-12.5,5.7-18.5
		c2.3-5.3,5.1-10.4,9.6-14.2s10.4-5.7,16-3.9c4.2,1.3,7.6,4.2,8.4,8.5c2.1,10.7-7.7,18.7-13.6,26.2c-5.6,7.1-10.3,13.1-16.2,19.6
		c-0.7,0.8-1.5,1.5-2.4,2c-1,0.4-2.2,0.5-3.3,0.5c-14.2-0.2-27.9-0.7-41.8,2.1c-3.8,0.8-7.3,0-10.9,1.2c-2.3,0.8-3.5,3-5.6,4.1
		c-2.1,1.2-4.5,2-6.9,2.4c-4.6,0.3-7.5-3.1-10.7-5.9c-2.5-2.2-4.4-2.9-7.7-2c-0.4,0.2-0.8,0.3-1.2,0.2c-1-0.3-1.7-1.3-1.4-2.4
		c0.1-0.2,0.1-0.4,0.2-0.5c0.7-1.1,1.8-1.5,3-1.9c1.3-0.5,2.6-0.7,3.9-0.8c0.6,0.1,1.1-0.1,1.6-0.4
		C613.9,378.1,614,377.8,614.4,377.4z"/>
	<path class="st25" d="M712.6,356.4c-8-3-16.3-4.9-24.1-8.5c2.8-6.8,11-34.3,12.4-37.6c5.3-12.6,6.4-18,13.8-24.6
		c15.8-14.2,34.5-4.8,33.7,15.3c-0.8,21.8-12.5,40.6-25.2,57.5c-0.3,0.4-0.7,0.7-1.1,0.8c-0.6,0.1-1.2,0-1.8-0.2
		C717.7,358.1,715.1,357.3,712.6,356.4z"/>
	<path class="st8" d="M717.6,656.8c-2.8,0.1-5.5-0.5-8.2-0.8c-1.4-27.1,1.2-55.6,2.3-82.8l20.9,1.1c-4.9,14.6-8.3,29.6-10.3,44.8
		C721.9,621.5,718,656.7,717.6,656.8z"/>
	<path class="st5" d="M708.5,650.7c-1.7-0.3-2.7,0.5-3.9,1.5c-0.7,0.6-1.1,1.5-1.9,1.9c-0.8,0.4-1.7,0.6-2.5,0.6
		c-5,0.5-16.6,0.3-10.5,8.7c5.6,7.6,20.5,4.6,29.1,2.5c0.6-0.1,1.1-0.3,1.6-0.7c0.4-0.5,0.7-1.1,0.9-1.7c1-3.6,2.3-8.1-2.1-9.6
		c-1.9-0.6-3.6,0.6-5.6-0.1C711.9,653.4,710.2,651,708.5,650.7z"/>
	<path class="st5" d="M696,589.5l42.6-0.8c11.5-54.7,21.6-109.7,30.4-165c0.7-4.3,1.3-8.7,0.1-12.9c-2.3-7.9-10.8-12.4-18.8-13.9
		c-12.5-2.4-35.5,0.9-42,13.9c-6.8,13.8-5.7,38.4-7.3,53.6C696.5,506,694.8,547.7,696,589.5z"/>
	<path class="st8" d="M798.9,656.8c2.8,0.1,5.5-0.5,8.2-0.8c1.4-27.1-1.2-55.6-2.3-82.8l-20.9,1.1c4.9,14.6,8.3,29.6,10.3,44.8
		C794.5,621.5,798.5,656.7,798.9,656.8z"/>
	<path class="st5" d="M807.9,650.7c1.7-0.3,2.7,0.5,3.9,1.5c0.7,0.6,1.1,1.5,1.9,1.9c0.8,0.4,1.7,0.6,2.5,0.6
		c5,0.5,16.6,0.3,10.4,8.7c-5.6,7.6-20.5,4.6-29.1,2.5c-0.6-0.1-1.1-0.3-1.6-0.7c-0.4-0.5-0.7-1.1-0.9-1.7c-1-3.6-2.3-8.1,2.1-9.6
		c1.9-0.6,3.6,0.6,5.6-0.1C804.5,653.4,806.2,651,807.9,650.7z"/>
	<path class="st5" d="M820.4,589.5l-42.7-0.8c-11.5-54.7-21.6-109.7-30.4-165c-0.7-4.3-1.3-8.7-0.1-12.9
		c2.3-7.9,10.8-12.4,18.8-13.9c12.5-2.4,35.5,0.9,42,13.9c6.8,13.8,5.7,38.4,7.3,53.6C819.9,506,821.6,547.7,820.4,589.5z"/>
	<path class="st26" d="M784,289.3c11.3,11,19.9,24.4,25.1,39.2c9.1,25.6,9.3,52.9,9.4,79.6l0.1,26.7c0,8.8-0.8,10.6-10.3,9.5
		c-17.6-2.1-36-5.8-51.9-13.6c-7.6-3.7-14.7-8.4-22.7-11.4c-11.6-4.3-23.5-2.3-35-5.1c5-15.1,8.5-27.9,11.1-43.4
		c2.6-16,5-33.4,8.9-49.1c2.3-9.5,6.6-18.3,11-27c2.9-5.9,6.1-11.8,11.1-16.1C755.7,265.9,772.6,278.5,784,289.3z"/>
	<path class="st8" d="M742.8,251.8c2.2,4.7,5.7,8.6,8.5,12.9s3.8,8,4.5,12.8c0.5,3.5,1.8,6.2,6,6.9c8,1.1,5.7-5.5,7.5-10.2
		c2.1-5.5,6.5-9.8,9.6-14.7c8.9-14.1,6.4-42-12.1-48C746.6,205,736.3,237.6,742.8,251.8z"/>
	<path class="st5" d="M775.1,238.2c2.3,0.1,4.8,0.3,6.5,1.8s1.5,4.9-0.7,5.3c-2,0.3-4.7-1.8-5.9-0.2c-0.7,0.9-0.1,2.2,0.5,3.3
		c2.1,4,2.7,8.7,1.8,13.1c0.8,0.8,2.2,0,2.9-0.8c3.7-4,6.5-8.7,8.4-13.8c0.8,1.2,1.8,2.3,3.1,3c-0.8-1.9-0.3-4,0.2-5.9
		c1.7-7.1,2.9-15.5-2.1-21.3c-2.7-3.1-6.7-4.9-10.8-5.7c-4.1-0.6-8.2-0.7-12.3-0.4c-1.8,0.1-3.9,0.4-4.3,2.1
		c3.8,1.6,7.8,4.6,9.8,8.2C772.6,227.9,774.9,238.2,775.1,238.2z"/>
	<path class="st5" d="M767,221l0.4,0.3c1.8,1.3,3.4,3,5.5,3.5c3,0.9,6.3-0.6,9.3,0.4c3.4,1.2,5.6,5.2,8,7.6c4.1,3.9,9,6.8,14.3,8.4
		c2.7,0.8,5.6,1.3,8.4,1.5c1.4,0.2,2.9,0.2,4.3,0c1.7-0.4,1.6-1.2-0.2-1.8c-5.7-1.8-7.4-9.8-7-15c0.3-4.1,1.8-8.5,0.2-12.4
		c-1.2-2.9-3.8-4.5-6.3-6.1c-2.8-1.9-5.8-1.4-8.9-2.2s-6-3.5-9.3-4.2c-3.5-0.7-7.1,0.9-10.6,1.6c-2.9,0.6-6,0.5-8.9-0.1
		c-2.6-0.6-5.1-1.6-7.8-1.6c-3.9,0-7.5,2.5-9.8,5.7c-3.2,4.5-5.3,12.2-4.2,18.2c-0.2-0.9,2.9-4.3,3.6-5c1.3-1.5,3-2.9,5-3.2
		C757.7,216,763.2,218.3,767,221z"/>
	<path class="st27" d="M671.6,496l-1.1,11.8c-0.3,3.8,2.2,7.2,5.6,7.5l27.8,2.5c3.4,0.3,6.5-2.5,6.8-6.4l1.1-11.8L671.6,496z"/>
	<path class="st3" d="M773.5,345.1c3.8-41.6-23.3-78.1-60.4-81.5s-70.4,27.6-74.1,69.2c-1.3,14.1,1,28.2,6.7,41.1l0,0
		c15.5,36.8,17.2,66.6,17.2,66.6l33.9,3.1l33.9,3.1c0,0,7-29,28.9-62.5l0,0C767.4,372.7,772.2,359.2,773.5,345.1z"/>
	<path class="st27" d="M662,440.6l-4.6,50.2c-0.3,2,1,3.8,3,4.1l62.7,5.7c2,0,3.6-1.5,3.7-3.5l4.6-50.2L662,440.6z"/>
	<path class="st28" d="M773.5,330.9c-20.5,35.9-58.9,90.6-110.8,109.6c0,0.1,0,0.2,0,0.2l33.9,3.1l33.9,3.1c0,0,7-29,28.9-62.5l0,0
		c8-11.7,12.8-25.2,14-39.3C773.8,340.4,773.9,335.7,773.5,330.9z"/>
	<path class="st28" d="M649.3,340.1c3.3-36.3,32.3-63.4,64.7-60.4c19,1.7,34.9,13.3,44.2,29.9c-8.3-20.6-26.2-35.6-47.9-37.6
		c-32.4-3-61.4,24.1-64.7,60.4c-1.4,14.3,1.6,28.6,8.5,41.2C649.9,363,648.2,351.5,649.3,340.1z"/>
	<polygon class="st29" points="683.6,442.6 684.2,345.4 694.6,357 706.1,340.3 714.6,358.3 726.7,349.2 709.7,445 713.2,445.3 
		731.7,340.8 715.9,352.6 706.7,333.2 694.3,351.1 680.8,336 680.1,442.3 	"/>
	<path class="st30" d="M680.1,432.6l-0.1,9.7l3.5,0.3l0.1-12C682.5,431.3,681.3,431.9,680.1,432.6z"/>
	<path class="st30" d="M716.7,405.5l-7,39.4l3.5,0.3l7.8-43.9C719.6,402.8,718.1,404.2,716.7,405.5z"/>
	
		<rect x="690.4" y="426.1" transform="matrix(9.063253e-02 -0.9959 0.9959 9.063253e-02 173.1085 1111.3408)" class="st31" width="9.3" height="69.6"/>
	
		<rect x="688.6" y="445.9" transform="matrix(9.063253e-02 -0.9959 0.9959 9.063253e-02 151.7301 1127.5646)" class="st31" width="9.3" height="69.6"/>
	<path class="st32" d="M697,476.4l31.3,2.9l1-10.5l-19.3-1.8C705.9,470.3,701.5,473.5,697,476.4z"/>
	<path class="st32" d="M730.1,459.4l1.1-12.5l-1.1-0.1c-1.6,2.3-5.4,6.5-10.8,11.6L730.1,459.4z"/>
	<path class="st32" d="M660.4,495l62.7,5.7c2,0,3.6-1.5,3.7-3.5l0.8-8.7l-45.2-4.1c-7.9,3.6-16.2,6.1-24.8,7.4
		C657.6,493.5,658.8,494.8,660.4,495z"/>
	<path class="st33" d="M710,466.9l19.3,1.8l0.8-9.3l-10.7-1C716.3,461.5,713.1,464.4,710,466.9z"/>
	<path class="st33" d="M682.3,484.4l45.2,4.1l0.8-9.3l-31.3-2.9C692.3,479.4,687.4,482.1,682.3,484.4z"/>
	<path class="st31" d="M711.2,506.8c-8.6,7.7-23.8,8.9-28.8,9.1l21.5,2c3.4,0.3,6.5-2.5,6.8-6.4L711.2,506.8z"/>
	<path class="st8" d="M727.7,399.2c0.1-0.3,0.2-0.5,0.4-0.8c1.5-2,3.5-2.2,5.5-3.7c0.9-0.7,0.6-3.6,2.8-2.8c0.8,0.3,2.7,1.3,4.4,1.9
		c2.5,0.9,6.3,0.5,9.2-0.3c4-1.1,7.9-2.5,11.7-4.1c3.9-1.8,7.6-3.8,11.3-5.9c3.1-1.8,7.9-3.8,10.2-6.5c3.9-4.6-0.6-15.7-1.1-21.4
		c-0.5-6,0-23.5,8-24c13.1-0.8,13.3,11.7,13.9,21.7c0.4,6.3,0.3,12.6-0.2,18.9c-0.8,8.8-6.5,13.8-14,18c-8,4.4-16.1,8.7-24.9,11.3
		c-4.2,1.3-8.4,1.7-12.8,2.4s-3.8,2.6-7.3,4.1c-2,0.9-3.9,2.1-6,2.6c-3.8,0.9-6.9-1.8-9.8-3.9c-0.7-0.4-1.2-0.9-1.6-1.6
		c-0.5-1.2-0.5-2.5-0.2-3.8C727.3,400.7,727.5,400,727.7,399.2z"/>
	<path class="st34" d="M803.8,356.8l-22.3,4.3c0.5-0.1-8.6-33.3-9.1-35.3c-1.8-7.6-3.6-15.5-2.1-23.2c3.3-16.4,11.2-20.4,21.2-3.2
		c9.4,16.3,24.1,35.7,21.2,54.2c0,0.4-0.2,0.8-0.4,1.1c-0.4,0.4-0.9,0.6-1.5,0.7L803.8,356.8z"/>
</g>
</svg>
