<?xml version="1.0" encoding="utf-8"?>
<!-- Generator: Adobe Illustrator 25.0.0, SVG Export Plug-In . SVG Version: 6.00 Build 0)  -->
<!DOCTYPE svg PUBLIC "-//W3C//DTD SVG 1.1//EN" "http://www.w3.org/Graphics/SVG/1.1/DTD/svg11.dtd" [
	<!ENTITY ns_extend "http://ns.adobe.com/Extensibility/1.0/">
	<!ENTITY ns_ai "http://ns.adobe.com/AdobeIllustrator/10.0/">
	<!ENTITY ns_graphs "http://ns.adobe.com/Graphs/1.0/">
	<!ENTITY ns_vars "http://ns.adobe.com/Variables/1.0/">
	<!ENTITY ns_imrep "http://ns.adobe.com/ImageReplacement/1.0/">
	<!ENTITY ns_sfw "http://ns.adobe.com/SaveForWeb/1.0/">
	<!ENTITY ns_custom "http://ns.adobe.com/GenericCustomNamespace/1.0/">
	<!ENTITY ns_adobe_xpath "http://ns.adobe.com/XPath/1.0/">
]>
<svg version="1.1" xmlns:x="&ns_extend;" xmlns:i="&ns_ai;" xmlns:graph="&ns_graphs;"
	 xmlns="http://www.w3.org/2000/svg" xmlns:xlink="http://www.w3.org/1999/xlink" x="0px" y="0px" viewBox="0 0 994 646.4"
	 style="enable-background:new 0 0 994 646.4;" xml:space="preserve">
<style type="text/css">
	.st0{opacity:0.5;}
	.st1{fill:#EED5D5;}
	.st2{fill:#EAC1A4;}
	.st3{fill:#BABCBE;}
	.st4{fill:#272742;}
	.st5{fill:#4ABC8E;}
	.st6{fill:#84353A;}
	.st7{fill:#CB2376;}
	.st8{fill:#353A85;}
	.st9{fill:#514943;}
	.st10{fill:#D9A3A3;}
	.st11{fill:#ED7A7A;}
	.st12{fill:#7364E2;}
	.st13{fill:#474EBB;}
	.st14{fill:#9BB725;}
	.st15{fill:#8CC7F1;}
</style>
<metadata>
	<sfw  xmlns="&ns_sfw;">
		<slices></slices>
		<sliceSourceBounds  bottomLeftOrigin="true" height="646.4" width="994" x="-4347" y="-443.9"></sliceSourceBounds>
	</sfw>
</metadata>
<g id="Background">
</g>
<g id="Shadow">
</g>
<g id="Object">
	<g class="st0">
		<path class="st1" d="M456,540.6c-29.1,0.1-58.2,0.8-87.3,3.9c-11,1.2-21.7,3.8-32.7,4.8c-21.9,2.1-43.5,6-65.5,7.8
			c-17.7,1.4-35.5,2.3-53.2,4.1c-16.6,1.7-34.9,1.3-51.4-1.5c-12.2-2.1-24.4-3.3-36.4-6.7c-13.4-3.8-27.9-6.5-41.9-6.4
			c-19.9,0.1-39.3,0.2-58.3,6.8c-6.7,2.3-14.9,6.2-19.9,11.1C-2.1,575.9-3.6,604.1,8,615.8c19.5,19.7,61.2,27.4,88.6,27.8
			c30,0.4,59.2-1.8,89.2-3c27.9-1.2,55.8-2.9,83.7-2.8c57.1,0.1,114.3,0,171.3-3.7c53.6-3.5,107.3-2.3,161-2.3
			c55.1,0,109.7,0.4,164.4,7.5c23.8,3.1,48.1,4.2,72,6.3c21.4,1.9,42,0,63.4-1.8c17.9-1.5,35.7-6,52-13.5
			c12.9-6,35.9-24.5,39.8-38.8c11.1-39.9-156.2-39-181.9-38.9c-28.7,0.1-57.7,1-86.4,0c-12.1-0.4-24-2.7-35.8-5.2
			c-11.7-2.5-23.6-1.9-35.5-2.9c-49.7-4.4-99.4-3.7-149.2-3.7C488.5,540.7,472.2,540.6,456,540.6z"/>
	</g>
	<path class="st2" d="M268.1,115.9l6.1-4.1l6.9,3.1l3.5,6.5l-2.4,4.9l-6.2,2.7l2.2,0.8l-0.6,1.8l-9.6,3.2c-2-2.5-9.2-5.1-10.2-6.5
		l6.7-4.6L268.1,115.9z"/>
	<polygon class="st3" points="139.8,353 72.6,328.3 86.4,446.1 78.4,547.8 78.2,548.5 78.3,548.5 78.3,548.7 91.6,550 91.6,550 
		92.1,550 121.7,459.5 137.4,363 137.4,363 	"/>
	<polygon class="st4" points="90.9,554.6 77.1,554.3 73.6,565.9 74,566 73.9,566 96.6,579.5 107.5,580.7 108.8,568.3 105.9,566.2 	
		"/>
	<polygon class="st3" points="185.7,355.1 165.5,556.8 152.2,557.4 138.8,448.5 115.6,340 	"/>
	<polygon class="st4" points="165.4,561.5 183.1,571.5 181.4,579.8 149.9,575.1 151.8,563.1 	"/>
	<path class="st5" d="M217.2,405.7c4.3-3,4.3-8.1,4.3-13.3c0-9.7-1.8-19.6-4-29c-4.2-17.6-9-38.9-11.1-61.8
		c-5.4-59.1-24.1-98.7-24.1-98.7l-6-16.1c-1.2-2.1-2.4-4.2-3.7-6.2c-7.5-11.8-20.6-31.9-34.5-35.1c-0.3-0.1-0.6-0.1-0.9-0.2
		c-14.7-3.2-33.5-1.7-46.8,5.4c-2.5,1.4-4.8,3.2-7,5c-6.5,5.2-11.8,8.1-14.6,16c-2.4,6.9-3,14.5-4.3,21.7c-2.7,14.6-4.3,29.3-6.5,44
		c-4.1,27.5-7.5,55.1-11.9,82.5c-2.2,14.1-4.5,28.3-5.6,42.6c-0.9,12.6-12.3,25.4-18.7,36.8c-2.2,3.9,29.8,14.1,32.6,14.8
		c13.3,3.1,27.4,2.3,41.1,2.4c30,0.1,60-0.8,89.9-2.8c9.9-0.7,22.2-2.6,31-7.5C216.7,406.1,216.9,405.9,217.2,405.7z"/>
	<path class="st5" d="M122.7,142.8c0,0-16.9-4.6-19.2,33.5c-2.3,38.1-6.2,134.5-11.7,160.9c-5.4,26.4-13.6,78.3-13.6,78.3l51.7,1.8
		l59.1-4.7c0,0-20.2-37.3-23.3-63.8c-3.1-26.4,2.3-126-10.9-163.3C141.6,148.4,138.8,143.5,122.7,142.8z"/>
	<polygon class="st5" points="156,188.3 193.7,208.8 216.4,201 274.5,137.2 259.1,123.2 197.4,171.4 148.9,150.2 	"/>
	<path class="st6" d="M144.3,113.6c2.6,7.7-1.1,15.9-4.4,22.8c-2.9,6.2-3.9,10.3,3.4,12c4.1,0.9,11.4,2.7,15-0.5
		c2.7-2.4,1.2-9.8-0.1-12.7c-1-2.2-3.7-3.4-4.7-5.6c-0.4-0.9-0.5-2-0.5-3c-0.1-4.1,0.5-8.3,1.7-12.2c0.8-2.7,1.9-5.3,2.1-8.1
		c0.3-4.1-2.5-8.8-4-12.5c-2.8-6.9-12.6-16.2-20.7-10.8c-1.9,1.2-2.9,3.3-3.9,5.4c-0.5,1.2-1.1,2.5-1.1,3.8
		c-0.1,5.3,4.8,6.2,8.2,8.8C139.5,104.1,142.6,108.7,144.3,113.6z"/>
	<path class="st2" d="M128.7,143.6c7.1-1.7,12.6-7.6,15.3-14.4c2.7-6.8,2.8-14.3,2.1-21.5c-2.5-24.1-32.5-22.6-42.6-4.1
		C94.6,119.6,108.1,148.4,128.7,143.6z"/>
	<path class="st2" d="M128.7,141c-0.1,2.7-0.2,5.5-0.4,8.2c0,0.4-0.1,0.8-0.3,1.1c-0.3,0.3-0.8,0.3-1.3,0.3
		c-2.2-0.1-4.5-0.2-6.7-0.2c-1.1,0-2.3-0.1-3.2-0.6c-2.1-1.1-2.6-4.1-2.2-6.5c0.3-2.4,1.2-4.8,0.7-7.2c4.6,2.3,9-2.9,13.6-0.6
		L128.7,141z"/>
	<path class="st6" d="M119,65.8c-7.9,2.7-12.9,10.6-20.6,13.8c-4.4,1.8-9.6,2.1-13.2,5.2c-8.1,7-1.6,21.8-8.2,30.2
		c-1.4,1.7-3.2,3.1-4.6,4.8c-3,3.8-3.4,8.9-3.6,13.7c-0.1,1.1-0.1,2.3,0.1,3.3c1,11.1,17.1,10.4,23.5,9.6c7-0.8,4.7-4.7,4.7-4.7
		l-0.3-0.3c-0.7-4.5,1.2-9.3,4.7-12.1c1.3-1.1,2.9-1.9,3.8-3.3c2.1-3.2,0.1-7.4,0.4-11.1c1.2-15.2,26.7-11.9,33.9-22.7
		C148.3,78.9,133.9,60.7,119,65.8z"/>
	<polygon class="st2" points="720.4,150.7 711.5,145.7 709.2,137.1 707.1,136.6 706.5,139.2 702.5,132.5 696.6,130.4 689.8,135.2 
		687.2,143.5 692.7,149.8 702.1,153 713.9,160.3 	"/>
	<polygon class="st7" points="721.2,145.1 707.9,160.8 757.1,208.5 770.4,212.8 826.9,167.7 811.8,136.9 769.6,172.7 	"/>
	<polygon class="st8" points="914,563.6 916,572.7 900.4,585.6 889.6,578.4 896.4,567.5 912.1,554.6 	"/>
	<polygon class="st9" points="859.4,285.4 876.8,325.6 878.4,438.8 914.3,560.5 897.6,567.9 824.4,426.6 816.1,381.8 812.8,287.5 	
		"/>
	<polygon class="st9" points="774.9,294.4 773.5,413 795.9,565.9 813.1,565.9 823.9,424.8 847.4,283.7 	"/>
	<polygon class="st8" points="813,563.9 813,573.2 794.4,582.5 785.1,573.2 794.4,563.9 	"/>
	<path class="st7" d="M809.7,131.8l45.7-1.7c0,0,27.3,24,41.4,86.2c14.4,63.4-2.7,154.7-2.7,154.7s-122.5-16.3-142.6-18.8L782.2,227
		L809.7,131.8z"/>
	<path class="st2" d="M825.1,138.5c5.3-0.5,10.7-1,16-1.6c0.1-4.3-0.2-8.5-0.8-12.8c4.4-1.6,9.6-3.9,10.4-8.5c0.2-1.5,0-3-0.3-4.4
		c-1-6-2.1-12.1-3.1-18.1c-0.4-2.1-0.7-4.2-1.9-6c-2-3.1-5.9-4.5-9.5-5.2c-9.4-1.6-19.6,0.4-26.8,6.5c-1.9,1.6-3.7,3.6-4.5,6
		c-1.3,3.7-0.3,7.7,0.6,11.5c0.9,3.5,1.8,7,2.7,10.4c1,4,2.6,8.6,6.4,10.1c2,0.8,4.5,0.6,6.3,1.8C823.9,130.1,823.4,135,825.1,138.5
		z"/>
	<path d="M773,78.1c-0.1-4.1,0.5-8.3,1.3-12.1c1.4-6.5,9.1-9.4,15.7-9.9c14.3-1,28.1-7.5,42.1-2.5c8,2.9,18.7,3.6,26,7.6
		c3,1.7,5.4,4.3,7.3,7.2c6.5,10.1,6.5,23.9,0,34c-1.5,2.3-3.2,4.3-5,6.3c-3.8,4.1-8.3,9.1-13.5,10.6c-0.1-4.6,4.1-19.3,0.6-23.1
		c-5.7-6-18.4-4-25.5-2.5c-7.7,1.6-14.5,7-22.1,8.2c-5.5,0.8-12.4-1.9-17.1-4.7C775.6,92.9,773.2,85.5,773,78.1z"/>
	<path d="M821.3,139.4l-48,192l-3.9,25.2l59.8,7.9c0,0-2.4-91.9-1.6-104.2c0.8-12.3,9.7-38.8,11-67.3c0.8-16.5,6-46.2,2.4-55.9
		L821.3,139.4z"/>
	<path class="st10" d="M428.7,282.4l0-50.9c-0.2,1.1-0.4,2.2-0.4,3.3v81.5h0.4L428.7,282.4L428.7,282.4z"/>
	<path class="st10" d="M466.3,230.5c-5.6-1.9-11.2-4.9-16.8-8.1c-1.8-1-3.7-1.6-5.6-1.8c1.8,0.3,3.7,1,5.5,2
		C455.2,225.7,460.7,228.7,466.3,230.5z"/>
	<path class="st10" d="M277.6,296.9c1.5,2.5,2.2,5.2,2.1,7.8c0.3-2.9-0.3-6.1-2.1-8.9c-5.7-9.2-9.4-19.4-9.4-29.1
		C267.9,276.7,271.6,287.3,277.6,296.9z"/>
	<path class="st10" d="M343.1,269.3c-0.5,9.3-5.1,18.1-10.2,26.9c-1.3,2.3-1.9,4.7-1.9,7.1c0.2-2,0.7-4,1.8-5.9
		C338.2,288.1,343,279,343.1,269.3z"/>
	<path class="st10" d="M428.7,158.4l0-52l0-58.7c-0.1,0-0.3,0-0.4,0v107.4C428.3,156.2,428.4,157.3,428.7,158.4z"/>
	<path class="st11" d="M413.4,466.5c-1.8,0.3-3.7,1-5.5,2c-5.8,3.1-11.3,6.1-16.8,8c-8.4,2.8-17,3.3-26.2-1.7
		c-18.8-10.2-25.8-35.6-14.9-54c13.4-22.7,37.7-19.9,57.4-7.7c8.5,5.3,19.2,0.3,21.3-8.8l0-52l0-33.6h0v-2.4h-0.4v1.9h-86.8
		c-6.7-1.8-11-8.2-10.5-14.8c0-2.4,0.6-4.8,1.9-7.1c5.1-8.9,9.7-17.7,10.2-26.9c0-4.8-1-9.7-3.8-14.8c-10.2-18.8-35.5-25.8-54-15
		c-11.7,6.9-16.6,16.6-17,27.2c0,9.6,3.6,19.9,9.4,29.1c1.8,2.9,2.4,6,2.1,8.9c-0.1,6.2-4.4,12-10.7,13.5h-52.3h-23.1
		c-0.3,0.4-0.5,0.8-0.8,1.1c-6.5,10.6-5.2,18.6,4.5,25.3c6.2,4.3,12.8,8,18.2,13.5c8.3,8.5,8.9,13.5,2.5,24
		c-7.2,11.8-7.1,12.3,3.9,20.7c2.9,2.3,6.1,4,1.9,8.2c-6.1,6.3-3.9,12.4,1.3,17c7.4,6.4,8.5,14.7,7.1,23.9c-1.2,8-3,16-4.5,24
		c-4.1,21.5,1.6,31.6,21.1,37.2c20.3,5.9,40.5,0.8,60.8-1.2c13.6-1.3,27-6,40.9-2.6c9,2.2,14,7.8,15.2,17.9
		c1.7,14.7,6.1,28.8,8.6,43.3c2,11.8,7.2,15.5,17.8,15c8.9-0.4,21.7-0.6,36.5-0.6l0-107.6C427,470.4,420.3,465.8,413.4,466.5z"/>
	<path class="st12" d="M502.1,115.5c4.2,8.4,15.8,10.7,22.8,3.6c16.3-16.5,39.3-24.9,57.6-5.9c14.8,15.4,13.9,41.7-2,56
		c-7.8,7-16.3,8.6-25.1,7.8c-5.8-0.5-11.9-2.1-18.2-3.8c-2-0.5-4-0.7-5.8-0.6c-6.9,0.9-12.4,6.9-12.3,14.1l11.8,49.5l0,0l7.9,33l0,0
		l0.3,1.2l0.3,1.1l0.4-0.1l85.4-20.4c8.4,0.9,14.6,9.3,12,18.1c-4.5,15.3-8,30.2,3.7,43.3c14.3,15.9,40.6,16.9,56,2
		c19-18.3,10.7-41.3-5.8-57.6c-6.7-6.7-5-17.4,2.3-22l52.2-12.5c2.7-19.3,2.5-38.2-0.6-56c-9-45.7-26.8-81.1-54.8-106.8
		C632.7,6.8,566.3-7.6,495.9,3.5c-6.6,1.1-13.1,2.5-19.5,4.3L490.1,65L502.1,115.5z"/>
	<polygon class="st13" points="428.7,316.3 428.7,316.3 428.7,318.6 428.7,318.6 428.7,317.5 	"/>
	<path class="st14" d="M640.7,318.6H587c-8.2,2.9-12.3,12.9-7.3,20.9c12.3,19.7,15.1,44-7.7,57.4c-18.5,10.8-43.8,3.9-54-15
		c-8.4-15.5-1.5-29.1,6.4-42.9c4.6-8,0.4-17.5-7.5-20.4h-87.8h-0.4l0,33.6l0,52c-2.1,9.1-12.8,14.1-21.3,8.8
		c-19.7-12.3-44-15.1-57.4,7.7c-10.9,18.4-3.9,43.8,14.9,54c9.2,5,17.8,4.6,26.2,1.7c5.6-1.8,11.1-4.8,16.8-8c1.8-1,3.7-1.6,5.5-2
		c6.9-0.7,13.6,3.8,15.3,10.8l0,107.6c0.1,0,0.3,0,0.4,0c57.3-0.2,145,1.5,160.6,0.7c12.7-0.7,6.5-8.6,0.7-21
		c-47.6-100,9.1-180.6,18.4-191.9C622.6,355.9,633.3,337.5,640.7,318.6z"/>
	<path class="st15" d="M507.4,174.8c-13.4-22.7-37.7-19.9-57.4-7.7c-8.5,5.3-19.2,0.3-21.3-8.8c-0.2-1-0.4-2.1-0.4-3.3V47.7
		C398.9,49,370.4,57.9,343,71.3c-7.4,3.6-14.6,7.6-21.8,11.6c-50.3,28.5-78.4,72.3-76,136.4c1.3,36-14.7,62.2-38.4,84.2
		c-4.3,4-8.5,7.9-12,12.7c-0.5,0.6-0.9,1.3-1.3,1.9h23.1H269c6.3-1.6,10.6-7.3,10.7-13.5c0.1-2.6-0.6-5.3-2.1-7.8
		c-6-9.6-9.7-20.2-9.3-30.2c0.4-10.5,5.3-20.3,17-27.2c18.5-10.8,43.8-3.9,54,15c2.8,5.1,3.9,10,3.8,14.8
		c-0.1,9.7-4.9,18.9-10.2,28.1c-1.1,1.9-1.7,3.9-1.8,5.9c-0.5,6.7,3.8,13.1,10.5,14.8h86.8v-1.9v-81.5c0-1.2,0.2-2.3,0.4-3.3
		c1.6-7,8.4-11.6,15.3-10.8c1.9,0.2,3.8,0.8,5.6,1.8c5.6,3.2,11.1,6.2,16.8,8.1c8.4,2.8,17,3.3,26.2-1.7
		C511.3,218.6,518.3,193.3,507.4,174.8z"/>
	<polygon class="st7" points="861.6,168.7 803.2,223.8 716.5,198 710.3,217.5 805.6,261 830.6,261 883.6,216 	"/>
	<polygon class="st2" points="710.9,215.7 695.8,216 686.6,203 710,190 716.5,198 	"/>
	<polygon class="st2" points="226.2,248.7 225.9,257.5 241.4,263.1 250.3,256.4 250.4,246.1 241.7,245.6 241.4,243.4 238.6,241.6 	
		"/>
	<path class="st5" d="M96.7,182.9l64,54.5l68,1.3c0,0-2.8,29.2-2.7,26.8c0-2.4-75.3,7.3-75.3,7.3l-66.8-47.2L96.7,182.9z"/>
</g>
</svg>
