<svg id="Camada_1" data-name="Camada 1" xmlns="http://www.w3.org/2000/svg" viewBox="0 0 429.38 330.23"><defs><style>.cls-1{fill:#EF9B0F;}</style></defs><path class="cls-1" d="M87.26,0V34.77H275.69V85.83H257.31V79.15A15.28,15.28,0,0,0,242,63.87H199.6V214.51a22,22,0,0,0,22,22h7.92v18.38H342.11V0Z"/><path class="cls-1" d="M142.92,236.47a22,22,0,0,0,22-22V63.87h-44a15.28,15.28,0,0,0-15.27,15.28v6.68H87.26v169h48V236.47Z"/><path class="cls-1" d="M42.15,295.11H26.47v34.34H15.68V295.11H0v-9.89H42.15Z"/><path class="cls-1" d="M86,329.45H75.3V312.28H55.85v17.17H45.19V285.22H55.85v17.17H75.3V285.22H86Z"/><path class="cls-1" d="M103.88,329.45H93.21V285.22h10.67Z"/><path class="cls-1" d="M142.39,322.56H121.05l-2.93,6.89H106.81l18.92-44.23h11.91l19,44.23H145.25Zm-3.71-8.72-6.9-16.52-7,16.52Z"/><path class="cls-1" d="M199,294.13l-9.23,4.68c-2.21-2.79-5.66-4.35-10.74-4.35-7.74,0-13.14,5.4-13.14,12.75a13,13,0,0,0,13.27,13.07c4.75,0,8.53-1.5,10.87-3.71v-4.29H176.52v-8.2h22.9v16.4c-.33.65-7.29,9.75-20.23,9.75-14.64,0-24.07-11-24.07-22.89,0-12.3,10.08-22.9,24-22.9A24.31,24.31,0,0,1,199,294.13Z"/><path class="cls-1" d="M248,307.34a22.84,22.84,0,1,1-22.83-22.9A22.91,22.91,0,0,1,248,307.34Zm-35.91,0a13,13,0,1,0,13.08-12.95A13,13,0,0,0,212.06,307.34Z"/><path class="cls-1" d="M277.83,319.56h23.22v9.89H267.16V285.22h10.67Z"/><path class="cls-1" d="M314.9,329.45H304.23V285.22H314.9Z"/><path class="cls-1" d="M376.47,329.45H365.74V306.88l-10.6,22.57H343.23l-10.6-22.57v22.57H322V285.22H333.8l15.42,32.46,15.35-32.46h11.9Z"/><path class="cls-1" d="M415.13,322.56H393.79l-2.92,6.89H379.55l18.93-44.23h11.9l19,44.23H418Zm-3.71-8.72-6.89-16.52-7,16.52Z"/></svg>